M48
; DRILL file {KiCad (5.1.4)-1} date 16.02.2021 23:35:01
; FORMAT={3:3/ absolute / metric / keep zeros}
; #@! TF.CreationDate,2021-02-16T23:35:01+03:00
; #@! TF.GenerationSoftware,Kicad,Pcbnew,(5.1.4)-1
; #@! TF.FileFunction,Plated,1,2,PTH
FMAT,2
METRIC
T1C0.400
T2C1.000
%
G90
G05
T1
X213750Y-053500
X215500Y-068250
X220250Y-050750
X221250Y-057500
X221500Y-050750
X221750Y-056250
X221750Y-068250
X222000Y-042500
X222250Y-064750
X222250Y-065750
X223250Y-059250
X223500Y-064250
X223500Y-067000
X224500Y-056250
X224763Y-067013
X225500Y-056250
X226250Y-048500
X226250Y-067250
X228250Y-052500
X229000Y-057750
X231000Y-045750
X232250Y-040750
X233750Y-068275
X234500Y-040750
X234750Y-054500
X235000Y-058500
X235000Y-059750
X235500Y-055250
X236750Y-040750
X236750Y-065000
X236750Y-069000
X237000Y-063500
X237000Y-067000
X239000Y-040750
X239500Y-050000
X240000Y-047750
X240000Y-049000
X240250Y-064250
X241250Y-040750
X242862Y-052638
X243250Y-065750
X243275Y-057500
X243888Y-051612
T2
X243000Y-043500
X243000Y-046040
X243000Y-048580
X227250Y-057420
X227250Y-059960
X227250Y-062500
X224750Y-041750
X227290Y-041750
X217000Y-041750
X219540Y-041750
X212000Y-042500
X212000Y-045040
X212000Y-047580
X212000Y-050120
X212000Y-052660
X212000Y-055200
T0
M30
