G04 #@! TF.GenerationSoftware,KiCad,Pcbnew,(5.1.4)-1*
G04 #@! TF.CreationDate,2021-02-16T23:36:19+03:00*
G04 #@! TF.ProjectId,NAB_A,4e41425f-412e-46b6-9963-61645f706362,rev?*
G04 #@! TF.SameCoordinates,Original*
G04 #@! TF.FileFunction,Soldermask,Top*
G04 #@! TF.FilePolarity,Negative*
%FSLAX46Y46*%
G04 Gerber Fmt 4.6, Leading zero omitted, Abs format (unit mm)*
G04 Created by KiCad (PCBNEW (5.1.4)-1) date 2021-02-16 23:36:19*
%MOMM*%
%LPD*%
G04 APERTURE LIST*
%ADD10C,0.100000*%
G04 APERTURE END LIST*
D10*
G36*
X222250000Y-53250000D02*
G01*
X222250000Y-54750000D01*
X221250000Y-54750000D01*
X221250000Y-53250000D01*
X222250000Y-53250000D01*
G37*
X222250000Y-53250000D02*
X222250000Y-54750000D01*
X221250000Y-54750000D01*
X221250000Y-53250000D01*
X222250000Y-53250000D01*
G36*
X220250000Y-53250000D02*
G01*
X220250000Y-54750000D01*
X219250000Y-54750000D01*
X219250000Y-53250000D01*
X220250000Y-53250000D01*
G37*
X220250000Y-53250000D02*
X220250000Y-54750000D01*
X219250000Y-54750000D01*
X219250000Y-53250000D01*
X220250000Y-53250000D01*
G36*
X218301000Y-69301000D02*
G01*
X216199000Y-69301000D01*
X216199000Y-67199000D01*
X218301000Y-67199000D01*
X218301000Y-69301000D01*
X218301000Y-69301000D01*
G37*
G36*
X213551000Y-69301000D02*
G01*
X211449000Y-69301000D01*
X211449000Y-67199000D01*
X213551000Y-67199000D01*
X213551000Y-69301000D01*
X213551000Y-69301000D01*
G37*
G36*
X227363512Y-61603927D02*
G01*
X227512812Y-61633624D01*
X227676784Y-61701544D01*
X227824354Y-61800147D01*
X227949853Y-61925646D01*
X228048456Y-62073216D01*
X228116376Y-62237188D01*
X228151000Y-62411259D01*
X228151000Y-62588741D01*
X228116376Y-62762812D01*
X228048456Y-62926784D01*
X227949853Y-63074354D01*
X227824354Y-63199853D01*
X227676784Y-63298456D01*
X227512812Y-63366376D01*
X227363512Y-63396073D01*
X227338742Y-63401000D01*
X227161258Y-63401000D01*
X227136488Y-63396073D01*
X226987188Y-63366376D01*
X226823216Y-63298456D01*
X226675646Y-63199853D01*
X226550147Y-63074354D01*
X226451544Y-62926784D01*
X226383624Y-62762812D01*
X226349000Y-62588741D01*
X226349000Y-62411259D01*
X226383624Y-62237188D01*
X226451544Y-62073216D01*
X226550147Y-61925646D01*
X226675646Y-61800147D01*
X226823216Y-61701544D01*
X226987188Y-61633624D01*
X227136488Y-61603927D01*
X227161258Y-61599000D01*
X227338742Y-61599000D01*
X227363512Y-61603927D01*
X227363512Y-61603927D01*
G37*
G36*
X228151000Y-60861000D02*
G01*
X226349000Y-60861000D01*
X226349000Y-59059000D01*
X228151000Y-59059000D01*
X228151000Y-60861000D01*
X228151000Y-60861000D01*
G37*
G36*
X213551000Y-59301000D02*
G01*
X211449000Y-59301000D01*
X211449000Y-57199000D01*
X213551000Y-57199000D01*
X213551000Y-59301000D01*
X213551000Y-59301000D01*
G37*
G36*
X218301000Y-59301000D02*
G01*
X216199000Y-59301000D01*
X216199000Y-57199000D01*
X218301000Y-57199000D01*
X218301000Y-59301000D01*
X218301000Y-59301000D01*
G37*
G36*
X228151000Y-58321000D02*
G01*
X226349000Y-58321000D01*
X226349000Y-56519000D01*
X228151000Y-56519000D01*
X228151000Y-58321000D01*
X228151000Y-58321000D01*
G37*
G36*
X212901000Y-56101000D02*
G01*
X211099000Y-56101000D01*
X211099000Y-54299000D01*
X212901000Y-54299000D01*
X212901000Y-56101000D01*
X212901000Y-56101000D01*
G37*
G36*
X220059004Y-54203355D02*
G01*
X220087375Y-54211961D01*
X220115745Y-54220567D01*
X220115747Y-54220568D01*
X220168031Y-54248514D01*
X220168032Y-54248515D01*
X220168036Y-54248517D01*
X220213869Y-54286131D01*
X220251483Y-54331964D01*
X220251485Y-54331968D01*
X220251486Y-54331969D01*
X220279432Y-54384253D01*
X220296645Y-54440996D01*
X220302456Y-54500000D01*
X220296645Y-54559004D01*
X220296644Y-54559006D01*
X220279433Y-54615745D01*
X220251483Y-54668036D01*
X220213869Y-54713869D01*
X220168036Y-54751483D01*
X220168032Y-54751485D01*
X220168031Y-54751486D01*
X220115747Y-54779432D01*
X220115745Y-54779433D01*
X220087375Y-54788039D01*
X220059004Y-54796645D01*
X220014786Y-54801000D01*
X219485214Y-54801000D01*
X219440996Y-54796645D01*
X219412624Y-54788038D01*
X219384255Y-54779433D01*
X219384253Y-54779432D01*
X219331969Y-54751486D01*
X219331968Y-54751485D01*
X219331964Y-54751483D01*
X219286131Y-54713869D01*
X219248517Y-54668036D01*
X219220567Y-54615745D01*
X219203356Y-54559006D01*
X219203355Y-54559004D01*
X219197544Y-54500000D01*
X219203355Y-54440996D01*
X219220568Y-54384253D01*
X219248514Y-54331969D01*
X219248515Y-54331968D01*
X219248517Y-54331964D01*
X219286131Y-54286131D01*
X219331964Y-54248517D01*
X219331968Y-54248515D01*
X219331969Y-54248514D01*
X219384253Y-54220568D01*
X219384255Y-54220567D01*
X219412625Y-54211961D01*
X219440996Y-54203355D01*
X219485214Y-54199000D01*
X220014786Y-54199000D01*
X220059004Y-54203355D01*
X220059004Y-54203355D01*
G37*
G36*
X222059004Y-54203355D02*
G01*
X222087375Y-54211961D01*
X222115745Y-54220567D01*
X222115747Y-54220568D01*
X222168031Y-54248514D01*
X222168032Y-54248515D01*
X222168036Y-54248517D01*
X222213869Y-54286131D01*
X222251483Y-54331964D01*
X222251485Y-54331968D01*
X222251486Y-54331969D01*
X222279432Y-54384253D01*
X222296645Y-54440996D01*
X222302456Y-54500000D01*
X222296645Y-54559004D01*
X222296644Y-54559006D01*
X222279433Y-54615745D01*
X222251483Y-54668036D01*
X222213869Y-54713869D01*
X222168036Y-54751483D01*
X222168032Y-54751485D01*
X222168031Y-54751486D01*
X222115747Y-54779432D01*
X222115745Y-54779433D01*
X222087375Y-54788039D01*
X222059004Y-54796645D01*
X222014786Y-54801000D01*
X221485214Y-54801000D01*
X221440996Y-54796645D01*
X221412624Y-54788038D01*
X221384255Y-54779433D01*
X221384253Y-54779432D01*
X221331969Y-54751486D01*
X221331968Y-54751485D01*
X221331964Y-54751483D01*
X221286131Y-54713869D01*
X221248517Y-54668036D01*
X221220567Y-54615745D01*
X221203356Y-54559006D01*
X221203355Y-54559004D01*
X221197544Y-54500000D01*
X221203355Y-54440996D01*
X221220568Y-54384253D01*
X221248514Y-54331969D01*
X221248515Y-54331968D01*
X221248517Y-54331964D01*
X221286131Y-54286131D01*
X221331964Y-54248517D01*
X221331968Y-54248515D01*
X221331969Y-54248514D01*
X221384253Y-54220568D01*
X221384255Y-54220567D01*
X221412625Y-54211961D01*
X221440996Y-54203355D01*
X221485214Y-54199000D01*
X222014786Y-54199000D01*
X222059004Y-54203355D01*
X222059004Y-54203355D01*
G37*
G36*
X220059004Y-53203355D02*
G01*
X220087376Y-53211962D01*
X220115745Y-53220567D01*
X220115747Y-53220568D01*
X220168031Y-53248514D01*
X220168032Y-53248515D01*
X220168036Y-53248517D01*
X220213869Y-53286131D01*
X220251483Y-53331964D01*
X220251485Y-53331968D01*
X220251486Y-53331969D01*
X220279432Y-53384253D01*
X220296645Y-53440996D01*
X220302456Y-53500000D01*
X220296645Y-53559004D01*
X220288038Y-53587376D01*
X220279433Y-53615745D01*
X220251483Y-53668036D01*
X220213869Y-53713869D01*
X220168036Y-53751483D01*
X220168032Y-53751485D01*
X220168031Y-53751486D01*
X220115747Y-53779432D01*
X220115745Y-53779433D01*
X220087376Y-53788038D01*
X220059004Y-53796645D01*
X220014786Y-53801000D01*
X219485214Y-53801000D01*
X219440996Y-53796645D01*
X219412625Y-53788039D01*
X219384255Y-53779433D01*
X219384253Y-53779432D01*
X219331969Y-53751486D01*
X219331968Y-53751485D01*
X219331964Y-53751483D01*
X219286131Y-53713869D01*
X219248517Y-53668036D01*
X219220567Y-53615745D01*
X219211962Y-53587376D01*
X219203355Y-53559004D01*
X219197544Y-53500000D01*
X219203355Y-53440996D01*
X219220568Y-53384253D01*
X219248514Y-53331969D01*
X219248515Y-53331968D01*
X219248517Y-53331964D01*
X219286131Y-53286131D01*
X219331964Y-53248517D01*
X219331968Y-53248515D01*
X219331969Y-53248514D01*
X219384253Y-53220568D01*
X219384255Y-53220567D01*
X219412624Y-53211962D01*
X219440996Y-53203355D01*
X219485214Y-53199000D01*
X220014786Y-53199000D01*
X220059004Y-53203355D01*
X220059004Y-53203355D01*
G37*
G36*
X222059004Y-53203355D02*
G01*
X222087376Y-53211962D01*
X222115745Y-53220567D01*
X222115747Y-53220568D01*
X222168031Y-53248514D01*
X222168032Y-53248515D01*
X222168036Y-53248517D01*
X222213869Y-53286131D01*
X222251483Y-53331964D01*
X222251485Y-53331968D01*
X222251486Y-53331969D01*
X222279432Y-53384253D01*
X222296645Y-53440996D01*
X222302456Y-53500000D01*
X222296645Y-53559004D01*
X222288038Y-53587376D01*
X222279433Y-53615745D01*
X222251483Y-53668036D01*
X222213869Y-53713869D01*
X222168036Y-53751483D01*
X222168032Y-53751485D01*
X222168031Y-53751486D01*
X222115747Y-53779432D01*
X222115745Y-53779433D01*
X222087376Y-53788038D01*
X222059004Y-53796645D01*
X222014786Y-53801000D01*
X221485214Y-53801000D01*
X221440996Y-53796645D01*
X221412625Y-53788039D01*
X221384255Y-53779433D01*
X221384253Y-53779432D01*
X221331969Y-53751486D01*
X221331968Y-53751485D01*
X221331964Y-53751483D01*
X221286131Y-53713869D01*
X221248517Y-53668036D01*
X221220567Y-53615745D01*
X221211962Y-53587376D01*
X221203355Y-53559004D01*
X221197544Y-53500000D01*
X221203355Y-53440996D01*
X221220568Y-53384253D01*
X221248514Y-53331969D01*
X221248515Y-53331968D01*
X221248517Y-53331964D01*
X221286131Y-53286131D01*
X221331964Y-53248517D01*
X221331968Y-53248515D01*
X221331969Y-53248514D01*
X221384253Y-53220568D01*
X221384255Y-53220567D01*
X221412624Y-53211962D01*
X221440996Y-53203355D01*
X221485214Y-53199000D01*
X222014786Y-53199000D01*
X222059004Y-53203355D01*
X222059004Y-53203355D01*
G37*
G36*
X212901000Y-53561000D02*
G01*
X211099000Y-53561000D01*
X211099000Y-51759000D01*
X212901000Y-51759000D01*
X212901000Y-53561000D01*
X212901000Y-53561000D01*
G37*
G36*
X212901000Y-51021000D02*
G01*
X211099000Y-51021000D01*
X211099000Y-49219000D01*
X212901000Y-49219000D01*
X212901000Y-51021000D01*
X212901000Y-51021000D01*
G37*
G36*
X225551000Y-49801000D02*
G01*
X222449000Y-49801000D01*
X222449000Y-48199000D01*
X225551000Y-48199000D01*
X225551000Y-49801000D01*
X225551000Y-49801000D01*
G37*
G36*
X243901000Y-49481000D02*
G01*
X242099000Y-49481000D01*
X242099000Y-47679000D01*
X243901000Y-47679000D01*
X243901000Y-49481000D01*
X243901000Y-49481000D01*
G37*
G36*
X238468809Y-48654078D02*
G01*
X238534969Y-48674149D01*
X238534972Y-48674150D01*
X238595949Y-48706742D01*
X238614897Y-48722293D01*
X238649396Y-48750604D01*
X238677707Y-48785103D01*
X238693258Y-48804051D01*
X238725850Y-48865028D01*
X238725851Y-48865031D01*
X238745922Y-48931192D01*
X238752698Y-49000000D01*
X238745922Y-49068808D01*
X238725851Y-49134969D01*
X238725850Y-49134972D01*
X238693258Y-49195949D01*
X238677707Y-49214897D01*
X238649396Y-49249396D01*
X238614897Y-49277707D01*
X238595949Y-49293258D01*
X238534972Y-49325850D01*
X238534969Y-49325851D01*
X238468809Y-49345922D01*
X238417244Y-49351000D01*
X236482756Y-49351000D01*
X236431191Y-49345922D01*
X236365031Y-49325851D01*
X236365028Y-49325850D01*
X236304051Y-49293258D01*
X236285103Y-49277707D01*
X236250604Y-49249396D01*
X236222293Y-49214897D01*
X236206742Y-49195949D01*
X236174150Y-49134972D01*
X236174149Y-49134969D01*
X236154078Y-49068808D01*
X236147302Y-49000000D01*
X236154078Y-48931192D01*
X236174149Y-48865031D01*
X236174150Y-48865028D01*
X236206742Y-48804051D01*
X236222293Y-48785103D01*
X236250604Y-48750604D01*
X236285103Y-48722293D01*
X236304051Y-48706742D01*
X236365028Y-48674150D01*
X236365031Y-48674149D01*
X236431191Y-48654078D01*
X236482756Y-48649000D01*
X238417244Y-48649000D01*
X238468809Y-48654078D01*
X238468809Y-48654078D01*
G37*
G36*
X235327000Y-49351000D02*
G01*
X232725000Y-49351000D01*
X232725000Y-48649000D01*
X235327000Y-48649000D01*
X235327000Y-49351000D01*
X235327000Y-49351000D01*
G37*
G36*
X212901000Y-48481000D02*
G01*
X211099000Y-48481000D01*
X211099000Y-46679000D01*
X212901000Y-46679000D01*
X212901000Y-48481000D01*
X212901000Y-48481000D01*
G37*
G36*
X238751000Y-48081000D02*
G01*
X236149000Y-48081000D01*
X236149000Y-47379000D01*
X238751000Y-47379000D01*
X238751000Y-48081000D01*
X238751000Y-48081000D01*
G37*
G36*
X235327000Y-48081000D02*
G01*
X232725000Y-48081000D01*
X232725000Y-47379000D01*
X235327000Y-47379000D01*
X235327000Y-48081000D01*
X235327000Y-48081000D01*
G37*
G36*
X243901000Y-46941000D02*
G01*
X242099000Y-46941000D01*
X242099000Y-45139000D01*
X243901000Y-45139000D01*
X243901000Y-46941000D01*
X243901000Y-46941000D01*
G37*
G36*
X235327000Y-46811000D02*
G01*
X232725000Y-46811000D01*
X232725000Y-46109000D01*
X235327000Y-46109000D01*
X235327000Y-46811000D01*
X235327000Y-46811000D01*
G37*
G36*
X238751000Y-46811000D02*
G01*
X236149000Y-46811000D01*
X236149000Y-46109000D01*
X238751000Y-46109000D01*
X238751000Y-46811000D01*
X238751000Y-46811000D01*
G37*
G36*
X225551000Y-46301000D02*
G01*
X222449000Y-46301000D01*
X222449000Y-44699000D01*
X225551000Y-44699000D01*
X225551000Y-46301000D01*
X225551000Y-46301000D01*
G37*
G36*
X212901000Y-45941000D02*
G01*
X211099000Y-45941000D01*
X211099000Y-44139000D01*
X212901000Y-44139000D01*
X212901000Y-45941000D01*
X212901000Y-45941000D01*
G37*
G36*
X236051000Y-44551000D02*
G01*
X234949000Y-44551000D01*
X234949000Y-43449000D01*
X236051000Y-43449000D01*
X236051000Y-44551000D01*
X236051000Y-44551000D01*
G37*
G36*
X238301000Y-44551000D02*
G01*
X237199000Y-44551000D01*
X237199000Y-43449000D01*
X238301000Y-43449000D01*
X238301000Y-44551000D01*
X238301000Y-44551000D01*
G37*
G36*
X240551000Y-44551000D02*
G01*
X239449000Y-44551000D01*
X239449000Y-43449000D01*
X240551000Y-43449000D01*
X240551000Y-44551000D01*
X240551000Y-44551000D01*
G37*
G36*
X233801000Y-44551000D02*
G01*
X232699000Y-44551000D01*
X232699000Y-43449000D01*
X233801000Y-43449000D01*
X233801000Y-44551000D01*
X233801000Y-44551000D01*
G37*
G36*
X231551000Y-44551000D02*
G01*
X230449000Y-44551000D01*
X230449000Y-43449000D01*
X231551000Y-43449000D01*
X231551000Y-44551000D01*
X231551000Y-44551000D01*
G37*
G36*
X243113512Y-42603927D02*
G01*
X243262812Y-42633624D01*
X243426784Y-42701544D01*
X243574354Y-42800147D01*
X243699853Y-42925646D01*
X243798456Y-43073216D01*
X243866376Y-43237188D01*
X243892072Y-43366375D01*
X243898960Y-43401000D01*
X243901000Y-43411259D01*
X243901000Y-43588741D01*
X243866376Y-43762812D01*
X243798456Y-43926784D01*
X243699853Y-44074354D01*
X243574354Y-44199853D01*
X243426784Y-44298456D01*
X243262812Y-44366376D01*
X243113512Y-44396073D01*
X243088742Y-44401000D01*
X242911258Y-44401000D01*
X242886488Y-44396073D01*
X242737188Y-44366376D01*
X242573216Y-44298456D01*
X242425646Y-44199853D01*
X242300147Y-44074354D01*
X242201544Y-43926784D01*
X242133624Y-43762812D01*
X242099000Y-43588741D01*
X242099000Y-43411259D01*
X242101041Y-43401000D01*
X242107928Y-43366375D01*
X242133624Y-43237188D01*
X242201544Y-43073216D01*
X242300147Y-42925646D01*
X242425646Y-42800147D01*
X242573216Y-42701544D01*
X242737188Y-42633624D01*
X242886488Y-42603927D01*
X242911258Y-42599000D01*
X243088742Y-42599000D01*
X243113512Y-42603927D01*
X243113512Y-42603927D01*
G37*
G36*
X212113512Y-41603927D02*
G01*
X212262812Y-41633624D01*
X212426784Y-41701544D01*
X212574354Y-41800147D01*
X212699853Y-41925646D01*
X212798456Y-42073216D01*
X212866376Y-42237188D01*
X212896073Y-42386488D01*
X212901000Y-42411258D01*
X212901000Y-42588742D01*
X212896073Y-42613512D01*
X212866376Y-42762812D01*
X212798456Y-42926784D01*
X212699853Y-43074354D01*
X212574354Y-43199853D01*
X212426784Y-43298456D01*
X212262812Y-43366376D01*
X212113512Y-43396073D01*
X212088742Y-43401000D01*
X211911258Y-43401000D01*
X211886488Y-43396073D01*
X211737188Y-43366376D01*
X211573216Y-43298456D01*
X211425646Y-43199853D01*
X211300147Y-43074354D01*
X211201544Y-42926784D01*
X211133624Y-42762812D01*
X211103927Y-42613512D01*
X211099000Y-42588742D01*
X211099000Y-42411258D01*
X211103927Y-42386488D01*
X211133624Y-42237188D01*
X211201544Y-42073216D01*
X211300147Y-41925646D01*
X211425646Y-41800147D01*
X211573216Y-41701544D01*
X211737188Y-41633624D01*
X211886488Y-41603927D01*
X211911258Y-41599000D01*
X212088742Y-41599000D01*
X212113512Y-41603927D01*
X212113512Y-41603927D01*
G37*
G36*
X240551000Y-43051000D02*
G01*
X239449000Y-43051000D01*
X239449000Y-41949000D01*
X240551000Y-41949000D01*
X240551000Y-43051000D01*
X240551000Y-43051000D01*
G37*
G36*
X233801000Y-43051000D02*
G01*
X232699000Y-43051000D01*
X232699000Y-41949000D01*
X233801000Y-41949000D01*
X233801000Y-43051000D01*
X233801000Y-43051000D01*
G37*
G36*
X236051000Y-43051000D02*
G01*
X234949000Y-43051000D01*
X234949000Y-41949000D01*
X236051000Y-41949000D01*
X236051000Y-43051000D01*
X236051000Y-43051000D01*
G37*
G36*
X238301000Y-43051000D02*
G01*
X237199000Y-43051000D01*
X237199000Y-41949000D01*
X238301000Y-41949000D01*
X238301000Y-43051000D01*
X238301000Y-43051000D01*
G37*
G36*
X231551000Y-43051000D02*
G01*
X230449000Y-43051000D01*
X230449000Y-41949000D01*
X231551000Y-41949000D01*
X231551000Y-43051000D01*
X231551000Y-43051000D01*
G37*
G36*
X217113512Y-40853927D02*
G01*
X217262812Y-40883624D01*
X217426784Y-40951544D01*
X217574354Y-41050147D01*
X217699853Y-41175646D01*
X217798456Y-41323216D01*
X217866376Y-41487188D01*
X217901000Y-41661259D01*
X217901000Y-41838741D01*
X217866376Y-42012812D01*
X217798456Y-42176784D01*
X217699853Y-42324354D01*
X217574354Y-42449853D01*
X217426784Y-42548456D01*
X217262812Y-42616376D01*
X217113512Y-42646073D01*
X217088742Y-42651000D01*
X216911258Y-42651000D01*
X216886488Y-42646073D01*
X216737188Y-42616376D01*
X216573216Y-42548456D01*
X216425646Y-42449853D01*
X216300147Y-42324354D01*
X216201544Y-42176784D01*
X216133624Y-42012812D01*
X216099000Y-41838741D01*
X216099000Y-41661259D01*
X216133624Y-41487188D01*
X216201544Y-41323216D01*
X216300147Y-41175646D01*
X216425646Y-41050147D01*
X216573216Y-40951544D01*
X216737188Y-40883624D01*
X216886488Y-40853927D01*
X216911258Y-40849000D01*
X217088742Y-40849000D01*
X217113512Y-40853927D01*
X217113512Y-40853927D01*
G37*
G36*
X220441000Y-42651000D02*
G01*
X218639000Y-42651000D01*
X218639000Y-40849000D01*
X220441000Y-40849000D01*
X220441000Y-42651000D01*
X220441000Y-42651000D01*
G37*
G36*
X224863512Y-40853927D02*
G01*
X225012812Y-40883624D01*
X225176784Y-40951544D01*
X225324354Y-41050147D01*
X225449853Y-41175646D01*
X225548456Y-41323216D01*
X225616376Y-41487188D01*
X225651000Y-41661259D01*
X225651000Y-41838741D01*
X225616376Y-42012812D01*
X225548456Y-42176784D01*
X225449853Y-42324354D01*
X225324354Y-42449853D01*
X225176784Y-42548456D01*
X225012812Y-42616376D01*
X224863512Y-42646073D01*
X224838742Y-42651000D01*
X224661258Y-42651000D01*
X224636488Y-42646073D01*
X224487188Y-42616376D01*
X224323216Y-42548456D01*
X224175646Y-42449853D01*
X224050147Y-42324354D01*
X223951544Y-42176784D01*
X223883624Y-42012812D01*
X223849000Y-41838741D01*
X223849000Y-41661259D01*
X223883624Y-41487188D01*
X223951544Y-41323216D01*
X224050147Y-41175646D01*
X224175646Y-41050147D01*
X224323216Y-40951544D01*
X224487188Y-40883624D01*
X224636488Y-40853927D01*
X224661258Y-40849000D01*
X224838742Y-40849000D01*
X224863512Y-40853927D01*
X224863512Y-40853927D01*
G37*
G36*
X228191000Y-42651000D02*
G01*
X226389000Y-42651000D01*
X226389000Y-40849000D01*
X228191000Y-40849000D01*
X228191000Y-42651000D01*
X228191000Y-42651000D01*
G37*
M02*
