G04 #@! TF.GenerationSoftware,KiCad,Pcbnew,(5.1.4)-1*
G04 #@! TF.CreationDate,2021-02-16T23:36:19+03:00*
G04 #@! TF.ProjectId,NAB_A,4e41425f-412e-46b6-9963-61645f706362,rev?*
G04 #@! TF.SameCoordinates,Original*
G04 #@! TF.FileFunction,Legend,Top*
G04 #@! TF.FilePolarity,Positive*
%FSLAX46Y46*%
G04 Gerber Fmt 4.6, Leading zero omitted, Abs format (unit mm)*
G04 Created by KiCad (PCBNEW (5.1.4)-1) date 2021-02-16 23:36:19*
%MOMM*%
%LPD*%
G04 APERTURE LIST*
%ADD10C,0.150000*%
%ADD11C,0.120000*%
G04 APERTURE END LIST*
D10*
X228114285Y-68521428D02*
X228114285Y-67921428D01*
X228457142Y-68521428D01*
X228457142Y-67921428D01*
X228714285Y-68350000D02*
X229000000Y-68350000D01*
X228657142Y-68521428D02*
X228857142Y-67921428D01*
X229057142Y-68521428D01*
X229457142Y-68207142D02*
X229542857Y-68235714D01*
X229571428Y-68264285D01*
X229600000Y-68321428D01*
X229600000Y-68407142D01*
X229571428Y-68464285D01*
X229542857Y-68492857D01*
X229485714Y-68521428D01*
X229257142Y-68521428D01*
X229257142Y-67921428D01*
X229457142Y-67921428D01*
X229514285Y-67950000D01*
X229542857Y-67978571D01*
X229571428Y-68035714D01*
X229571428Y-68092857D01*
X229542857Y-68150000D01*
X229514285Y-68178571D01*
X229457142Y-68207142D01*
X229257142Y-68207142D01*
X229714285Y-68578571D02*
X230171428Y-68578571D01*
X230285714Y-68350000D02*
X230571428Y-68350000D01*
X230228571Y-68521428D02*
X230428571Y-67921428D01*
X230628571Y-68521428D01*
X230828571Y-68464285D02*
X230857142Y-68492857D01*
X230828571Y-68521428D01*
X230800000Y-68492857D01*
X230828571Y-68464285D01*
X230828571Y-68521428D01*
X231228571Y-67921428D02*
X231285714Y-67921428D01*
X231342857Y-67950000D01*
X231371428Y-67978571D01*
X231400000Y-68035714D01*
X231428571Y-68150000D01*
X231428571Y-68292857D01*
X231400000Y-68407142D01*
X231371428Y-68464285D01*
X231342857Y-68492857D01*
X231285714Y-68521428D01*
X231228571Y-68521428D01*
X231171428Y-68492857D01*
X231142857Y-68464285D01*
X231114285Y-68407142D01*
X231085714Y-68292857D01*
X231085714Y-68150000D01*
X231114285Y-68035714D01*
X231142857Y-67978571D01*
X231171428Y-67950000D01*
X231228571Y-67921428D01*
X231685714Y-68464285D02*
X231714285Y-68492857D01*
X231685714Y-68521428D01*
X231657142Y-68492857D01*
X231685714Y-68464285D01*
X231685714Y-68521428D01*
X231942857Y-67978571D02*
X231971428Y-67950000D01*
X232028571Y-67921428D01*
X232171428Y-67921428D01*
X232228571Y-67950000D01*
X232257142Y-67978571D01*
X232285714Y-68035714D01*
X232285714Y-68092857D01*
X232257142Y-68178571D01*
X231914285Y-68521428D01*
X232285714Y-68521428D01*
X232542857Y-68521428D02*
X232542857Y-67921428D01*
X232885714Y-68521428D01*
X232885714Y-67921428D01*
X241521428Y-49400000D02*
X240921428Y-49400000D01*
X240921428Y-49257142D01*
X240950000Y-49171428D01*
X241007142Y-49114285D01*
X241064285Y-49085714D01*
X241178571Y-49057142D01*
X241264285Y-49057142D01*
X241378571Y-49085714D01*
X241435714Y-49114285D01*
X241492857Y-49171428D01*
X241521428Y-49257142D01*
X241521428Y-49400000D01*
X241350000Y-48828571D02*
X241350000Y-48542857D01*
X241521428Y-48885714D02*
X240921428Y-48685714D01*
X241521428Y-48485714D01*
X240921428Y-48371428D02*
X240921428Y-48028571D01*
X241521428Y-48200000D02*
X240921428Y-48200000D01*
X241350000Y-47857142D02*
X241350000Y-47571428D01*
X241521428Y-47914285D02*
X240921428Y-47714285D01*
X241521428Y-47514285D01*
X240921428Y-46800000D02*
X241521428Y-46600000D01*
X240921428Y-46400000D01*
X241464285Y-45857142D02*
X241492857Y-45885714D01*
X241521428Y-45971428D01*
X241521428Y-46028571D01*
X241492857Y-46114285D01*
X241435714Y-46171428D01*
X241378571Y-46200000D01*
X241264285Y-46228571D01*
X241178571Y-46228571D01*
X241064285Y-46200000D01*
X241007142Y-46171428D01*
X240950000Y-46114285D01*
X240921428Y-46028571D01*
X240921428Y-45971428D01*
X240950000Y-45885714D01*
X240978571Y-45857142D01*
X241464285Y-45257142D02*
X241492857Y-45285714D01*
X241521428Y-45371428D01*
X241521428Y-45428571D01*
X241492857Y-45514285D01*
X241435714Y-45571428D01*
X241378571Y-45600000D01*
X241264285Y-45628571D01*
X241178571Y-45628571D01*
X241064285Y-45600000D01*
X241007142Y-45571428D01*
X240950000Y-45514285D01*
X240921428Y-45428571D01*
X240921428Y-45371428D01*
X240950000Y-45285714D01*
X240978571Y-45257142D01*
X221500000Y-55750000D02*
X222000000Y-55750000D01*
X221750000Y-55000000D02*
X221750000Y-55750000D01*
X218950000Y-55171428D02*
X219150000Y-55771428D01*
X219350000Y-55171428D01*
X219892857Y-55714285D02*
X219864285Y-55742857D01*
X219778571Y-55771428D01*
X219721428Y-55771428D01*
X219635714Y-55742857D01*
X219578571Y-55685714D01*
X219550000Y-55628571D01*
X219521428Y-55514285D01*
X219521428Y-55428571D01*
X219550000Y-55314285D01*
X219578571Y-55257142D01*
X219635714Y-55200000D01*
X219721428Y-55171428D01*
X219778571Y-55171428D01*
X219864285Y-55200000D01*
X219892857Y-55228571D01*
X220492857Y-55714285D02*
X220464285Y-55742857D01*
X220378571Y-55771428D01*
X220321428Y-55771428D01*
X220235714Y-55742857D01*
X220178571Y-55685714D01*
X220150000Y-55628571D01*
X220121428Y-55514285D01*
X220121428Y-55428571D01*
X220150000Y-55314285D01*
X220178571Y-55257142D01*
X220235714Y-55200000D01*
X220321428Y-55171428D01*
X220378571Y-55171428D01*
X220464285Y-55200000D01*
X220492857Y-55228571D01*
X231250000Y-46250000D02*
X231250000Y-46750000D01*
X232000000Y-46500000D02*
X231250000Y-46500000D01*
X230700000Y-48671428D02*
X230900000Y-49271428D01*
X231100000Y-48671428D01*
X231642857Y-49214285D02*
X231614285Y-49242857D01*
X231528571Y-49271428D01*
X231471428Y-49271428D01*
X231385714Y-49242857D01*
X231328571Y-49185714D01*
X231300000Y-49128571D01*
X231271428Y-49014285D01*
X231271428Y-48928571D01*
X231300000Y-48814285D01*
X231328571Y-48757142D01*
X231385714Y-48700000D01*
X231471428Y-48671428D01*
X231528571Y-48671428D01*
X231614285Y-48700000D01*
X231642857Y-48728571D01*
X232242857Y-49214285D02*
X232214285Y-49242857D01*
X232128571Y-49271428D01*
X232071428Y-49271428D01*
X231985714Y-49242857D01*
X231928571Y-49185714D01*
X231900000Y-49128571D01*
X231871428Y-49014285D01*
X231871428Y-48928571D01*
X231900000Y-48814285D01*
X231928571Y-48757142D01*
X231985714Y-48700000D01*
X232071428Y-48671428D01*
X232128571Y-48671428D01*
X232214285Y-48700000D01*
X232242857Y-48728571D01*
X239685714Y-46771428D02*
X239485714Y-46485714D01*
X239342857Y-46771428D02*
X239342857Y-46171428D01*
X239571428Y-46171428D01*
X239628571Y-46200000D01*
X239657142Y-46228571D01*
X239685714Y-46285714D01*
X239685714Y-46371428D01*
X239657142Y-46428571D01*
X239628571Y-46457142D01*
X239571428Y-46485714D01*
X239342857Y-46485714D01*
X223950000Y-62171428D02*
X224150000Y-62771428D01*
X224350000Y-62171428D01*
X224892857Y-62714285D02*
X224864285Y-62742857D01*
X224778571Y-62771428D01*
X224721428Y-62771428D01*
X224635714Y-62742857D01*
X224578571Y-62685714D01*
X224550000Y-62628571D01*
X224521428Y-62514285D01*
X224521428Y-62428571D01*
X224550000Y-62314285D01*
X224578571Y-62257142D01*
X224635714Y-62200000D01*
X224721428Y-62171428D01*
X224778571Y-62171428D01*
X224864285Y-62200000D01*
X224892857Y-62228571D01*
X225492857Y-62714285D02*
X225464285Y-62742857D01*
X225378571Y-62771428D01*
X225321428Y-62771428D01*
X225235714Y-62742857D01*
X225178571Y-62685714D01*
X225150000Y-62628571D01*
X225121428Y-62514285D01*
X225121428Y-62428571D01*
X225150000Y-62314285D01*
X225178571Y-62257142D01*
X225235714Y-62200000D01*
X225321428Y-62171428D01*
X225378571Y-62171428D01*
X225464285Y-62200000D01*
X225492857Y-62228571D01*
X224500000Y-59750000D02*
X224500000Y-60250000D01*
X225250000Y-60000000D02*
X224500000Y-60000000D01*
X224542857Y-56921428D02*
X224885714Y-56921428D01*
X224714285Y-57521428D02*
X224714285Y-56921428D01*
X225028571Y-56921428D02*
X225428571Y-57521428D01*
X225428571Y-56921428D02*
X225028571Y-57521428D01*
X214000000Y-50750000D02*
X214000000Y-50000000D01*
X213750000Y-50750000D02*
X214250000Y-50750000D01*
X213885714Y-54671428D02*
X213600000Y-54671428D01*
X213571428Y-54957142D01*
X213600000Y-54928571D01*
X213657142Y-54900000D01*
X213800000Y-54900000D01*
X213857142Y-54928571D01*
X213885714Y-54957142D01*
X213914285Y-55014285D01*
X213914285Y-55157142D01*
X213885714Y-55214285D01*
X213857142Y-55242857D01*
X213800000Y-55271428D01*
X213657142Y-55271428D01*
X213600000Y-55242857D01*
X213571428Y-55214285D01*
X214085714Y-54671428D02*
X214285714Y-55271428D01*
X214485714Y-54671428D01*
X213542857Y-52421428D02*
X213885714Y-52421428D01*
X213714285Y-53021428D02*
X213714285Y-52421428D01*
X214028571Y-52421428D02*
X214428571Y-53021428D01*
X214428571Y-52421428D02*
X214028571Y-53021428D01*
X213900000Y-45271428D02*
X213700000Y-44985714D01*
X213557142Y-45271428D02*
X213557142Y-44671428D01*
X213785714Y-44671428D01*
X213842857Y-44700000D01*
X213871428Y-44728571D01*
X213900000Y-44785714D01*
X213900000Y-44871428D01*
X213871428Y-44928571D01*
X213842857Y-44957142D01*
X213785714Y-44985714D01*
X213557142Y-44985714D01*
X214100000Y-44671428D02*
X214500000Y-45271428D01*
X214500000Y-44671428D02*
X214100000Y-45271428D01*
X213885714Y-42671428D02*
X213600000Y-42671428D01*
X213571428Y-42957142D01*
X213600000Y-42928571D01*
X213657142Y-42900000D01*
X213800000Y-42900000D01*
X213857142Y-42928571D01*
X213885714Y-42957142D01*
X213914285Y-43014285D01*
X213914285Y-43157142D01*
X213885714Y-43214285D01*
X213857142Y-43242857D01*
X213800000Y-43271428D01*
X213657142Y-43271428D01*
X213600000Y-43242857D01*
X213571428Y-43214285D01*
X214085714Y-42671428D02*
X214285714Y-43271428D01*
X214485714Y-42671428D01*
X225500000Y-69500000D02*
X234500000Y-60500000D01*
X244500000Y-69500000D02*
X235500000Y-60500000D01*
X225500000Y-64250000D02*
X225500000Y-69500000D01*
X244500000Y-50500000D02*
X235500000Y-59500000D01*
X234500000Y-59500000D02*
X225500000Y-50500000D01*
X225500000Y-55500000D02*
X225500000Y-50500000D01*
X244500000Y-69500000D02*
X225500000Y-69500000D01*
X244500000Y-50500000D02*
X244500000Y-69500000D01*
X225500000Y-50500000D02*
X244500000Y-50500000D01*
D11*
X221150000Y-54900000D02*
X221400000Y-54900000D01*
X221150000Y-54650000D02*
X221150000Y-54900000D01*
X222350000Y-54900000D02*
X222100000Y-54900000D01*
X222350000Y-54650000D02*
X222350000Y-54900000D01*
X221150000Y-53100000D02*
X221150000Y-53350000D01*
X221400000Y-53100000D02*
X221150000Y-53100000D01*
X222350000Y-53100000D02*
X222350000Y-53350000D01*
X222100000Y-53100000D02*
X222350000Y-53100000D01*
D10*
X210600000Y-56600000D02*
X210600000Y-55600000D01*
X213400000Y-56600000D02*
X212400000Y-56600000D01*
X211600000Y-56600000D02*
X210600000Y-56600000D01*
X213400000Y-55600000D02*
X213400000Y-56600000D01*
X210600000Y-41200000D02*
X210600000Y-42200000D01*
X211600000Y-41200000D02*
X210600000Y-41200000D01*
X213400000Y-41200000D02*
X212400000Y-41200000D01*
X213400000Y-41200000D02*
X213400000Y-42200000D01*
G36*
X217854027Y-44314934D02*
G01*
X217940025Y-44125384D01*
X218092887Y-43973418D01*
X218306797Y-43868974D01*
X218451299Y-43834914D01*
X218567673Y-43822593D01*
X218619916Y-43836853D01*
X218627495Y-43864506D01*
X218607173Y-43921818D01*
X218553965Y-44037891D01*
X218475414Y-44197093D01*
X218379061Y-44383795D01*
X218354593Y-44430078D01*
X218252552Y-44617285D01*
X218161287Y-44775629D01*
X218089402Y-44890833D01*
X218045499Y-44948619D01*
X218039883Y-44952428D01*
X217998876Y-44925900D01*
X217942703Y-44841545D01*
X217905881Y-44767033D01*
X217840707Y-44532130D01*
X217854027Y-44314934D01*
X217854027Y-44314934D01*
G37*
X217854027Y-44314934D02*
X217940025Y-44125384D01*
X218092887Y-43973418D01*
X218306797Y-43868974D01*
X218451299Y-43834914D01*
X218567673Y-43822593D01*
X218619916Y-43836853D01*
X218627495Y-43864506D01*
X218607173Y-43921818D01*
X218553965Y-44037891D01*
X218475414Y-44197093D01*
X218379061Y-44383795D01*
X218354593Y-44430078D01*
X218252552Y-44617285D01*
X218161287Y-44775629D01*
X218089402Y-44890833D01*
X218045499Y-44948619D01*
X218039883Y-44952428D01*
X217998876Y-44925900D01*
X217942703Y-44841545D01*
X217905881Y-44767033D01*
X217840707Y-44532130D01*
X217854027Y-44314934D01*
G36*
X218487915Y-44519247D02*
G01*
X218601870Y-44309811D01*
X218705568Y-44127516D01*
X218791309Y-43985263D01*
X218851391Y-43895953D01*
X218874511Y-43871645D01*
X218988355Y-43865697D01*
X219101594Y-43918503D01*
X219171547Y-44002926D01*
X219197115Y-44083851D01*
X219170229Y-44123780D01*
X219154175Y-44130941D01*
X219059287Y-44151354D01*
X218994427Y-44155666D01*
X218902177Y-44167432D01*
X218871207Y-44212204D01*
X218897055Y-44304194D01*
X218927739Y-44368128D01*
X219009183Y-44527772D01*
X218852164Y-44557229D01*
X218720341Y-44586767D01*
X218661148Y-44622191D01*
X218663276Y-44680465D01*
X218710340Y-44769978D01*
X218757663Y-44872607D01*
X218742995Y-44931215D01*
X218658280Y-44956447D01*
X218566536Y-44960000D01*
X218467935Y-44982430D01*
X218429619Y-45038846D01*
X218452841Y-45099438D01*
X218497933Y-45180174D01*
X218522838Y-45245750D01*
X218531414Y-45318231D01*
X218483703Y-45340546D01*
X218466880Y-45341000D01*
X218377684Y-45314381D01*
X218275710Y-45249654D01*
X218268026Y-45243203D01*
X218154331Y-45145406D01*
X218487915Y-44519247D01*
X218487915Y-44519247D01*
G37*
X218487915Y-44519247D02*
X218601870Y-44309811D01*
X218705568Y-44127516D01*
X218791309Y-43985263D01*
X218851391Y-43895953D01*
X218874511Y-43871645D01*
X218988355Y-43865697D01*
X219101594Y-43918503D01*
X219171547Y-44002926D01*
X219197115Y-44083851D01*
X219170229Y-44123780D01*
X219154175Y-44130941D01*
X219059287Y-44151354D01*
X218994427Y-44155666D01*
X218902177Y-44167432D01*
X218871207Y-44212204D01*
X218897055Y-44304194D01*
X218927739Y-44368128D01*
X219009183Y-44527772D01*
X218852164Y-44557229D01*
X218720341Y-44586767D01*
X218661148Y-44622191D01*
X218663276Y-44680465D01*
X218710340Y-44769978D01*
X218757663Y-44872607D01*
X218742995Y-44931215D01*
X218658280Y-44956447D01*
X218566536Y-44960000D01*
X218467935Y-44982430D01*
X218429619Y-45038846D01*
X218452841Y-45099438D01*
X218497933Y-45180174D01*
X218522838Y-45245750D01*
X218531414Y-45318231D01*
X218483703Y-45340546D01*
X218466880Y-45341000D01*
X218377684Y-45314381D01*
X218275710Y-45249654D01*
X218268026Y-45243203D01*
X218154331Y-45145406D01*
X218487915Y-44519247D01*
G36*
X218734726Y-45113589D02*
G01*
X218793960Y-45098879D01*
X218834511Y-45094720D01*
X218951977Y-45065151D01*
X218995690Y-45000494D01*
X218969828Y-44891958D01*
X218950101Y-44851383D01*
X218885129Y-44727166D01*
X219054398Y-44689402D01*
X219171398Y-44653388D01*
X219215984Y-44601395D01*
X219196906Y-44512998D01*
X219161425Y-44439505D01*
X219126819Y-44366648D01*
X219129964Y-44324086D01*
X219185350Y-44296014D01*
X219307465Y-44266624D01*
X219323044Y-44263193D01*
X219406787Y-44233530D01*
X219426074Y-44179363D01*
X219416597Y-44129110D01*
X219406530Y-44055197D01*
X219434607Y-44047744D01*
X219444220Y-44052725D01*
X219530006Y-44111974D01*
X219605889Y-44179817D01*
X219644091Y-44230832D01*
X219644818Y-44236311D01*
X219624871Y-44280765D01*
X219571699Y-44385124D01*
X219492780Y-44535051D01*
X219395592Y-44716210D01*
X219366710Y-44769500D01*
X219260539Y-44966902D01*
X219165589Y-45147007D01*
X219091133Y-45291972D01*
X219046447Y-45383956D01*
X219042111Y-45393916D01*
X218972946Y-45490599D01*
X218891073Y-45509795D01*
X218814465Y-45452927D01*
X218774955Y-45372750D01*
X218729307Y-45231463D01*
X218714536Y-45151430D01*
X218734726Y-45113589D01*
X218734726Y-45113589D01*
G37*
X218734726Y-45113589D02*
X218793960Y-45098879D01*
X218834511Y-45094720D01*
X218951977Y-45065151D01*
X218995690Y-45000494D01*
X218969828Y-44891958D01*
X218950101Y-44851383D01*
X218885129Y-44727166D01*
X219054398Y-44689402D01*
X219171398Y-44653388D01*
X219215984Y-44601395D01*
X219196906Y-44512998D01*
X219161425Y-44439505D01*
X219126819Y-44366648D01*
X219129964Y-44324086D01*
X219185350Y-44296014D01*
X219307465Y-44266624D01*
X219323044Y-44263193D01*
X219406787Y-44233530D01*
X219426074Y-44179363D01*
X219416597Y-44129110D01*
X219406530Y-44055197D01*
X219434607Y-44047744D01*
X219444220Y-44052725D01*
X219530006Y-44111974D01*
X219605889Y-44179817D01*
X219644091Y-44230832D01*
X219644818Y-44236311D01*
X219624871Y-44280765D01*
X219571699Y-44385124D01*
X219492780Y-44535051D01*
X219395592Y-44716210D01*
X219366710Y-44769500D01*
X219260539Y-44966902D01*
X219165589Y-45147007D01*
X219091133Y-45291972D01*
X219046447Y-45383956D01*
X219042111Y-45393916D01*
X218972946Y-45490599D01*
X218891073Y-45509795D01*
X218814465Y-45452927D01*
X218774955Y-45372750D01*
X218729307Y-45231463D01*
X218714536Y-45151430D01*
X218734726Y-45113589D01*
G36*
X213617597Y-47797463D02*
G01*
X213680097Y-47694184D01*
X213738717Y-47612356D01*
X213833377Y-47481595D01*
X213915155Y-47357219D01*
X213947062Y-47302196D01*
X214031519Y-47182082D01*
X214162413Y-47039040D01*
X214315238Y-46896352D01*
X214465487Y-46777300D01*
X214563310Y-46716734D01*
X214930245Y-46567531D01*
X215300678Y-46490195D01*
X215681436Y-46485387D01*
X216079343Y-46553766D01*
X216501224Y-46695993D01*
X216953905Y-46912730D01*
X217031966Y-46955662D01*
X217215871Y-47061978D01*
X217390287Y-47168813D01*
X217530107Y-47260514D01*
X217586403Y-47301333D01*
X217726828Y-47387466D01*
X217881445Y-47449792D01*
X217926212Y-47460679D01*
X218023879Y-47474588D01*
X218181906Y-47492024D01*
X218387682Y-47512017D01*
X218628598Y-47533597D01*
X218892042Y-47555794D01*
X219165405Y-47577638D01*
X219436077Y-47598161D01*
X219691447Y-47616391D01*
X219918906Y-47631359D01*
X220105842Y-47642096D01*
X220239647Y-47647632D01*
X220307709Y-47646996D01*
X220313374Y-47644262D01*
X220272831Y-47621914D01*
X220166519Y-47566895D01*
X220004450Y-47484289D01*
X219796639Y-47379178D01*
X219553101Y-47256643D01*
X219284419Y-47122054D01*
X218901555Y-46927808D01*
X218517414Y-46727594D01*
X218139228Y-46525603D01*
X217774227Y-46326027D01*
X217429643Y-46133059D01*
X217112707Y-45950891D01*
X216830650Y-45783716D01*
X216590704Y-45635726D01*
X216400099Y-45511114D01*
X216266066Y-45414072D01*
X216195838Y-45348792D01*
X216187377Y-45326482D01*
X216249843Y-45257168D01*
X216372064Y-45203383D01*
X216529343Y-45174657D01*
X216586937Y-45172291D01*
X216719026Y-45180669D01*
X216859608Y-45209971D01*
X217020556Y-45265061D01*
X217213742Y-45350806D01*
X217451040Y-45472072D01*
X217744320Y-45633724D01*
X217826667Y-45680384D01*
X218698823Y-46165072D01*
X219588061Y-46637340D01*
X220460590Y-47079409D01*
X220801921Y-47246000D01*
X221102093Y-47392964D01*
X221329871Y-47509727D01*
X221490703Y-47599390D01*
X221590037Y-47665054D01*
X221633323Y-47709819D01*
X221636241Y-47720839D01*
X221600515Y-47816860D01*
X221506320Y-47924612D01*
X221374616Y-48026502D01*
X221226360Y-48104938D01*
X221147330Y-48131214D01*
X220942505Y-48167559D01*
X220669559Y-48192982D01*
X220344385Y-48207061D01*
X219982877Y-48209372D01*
X219600926Y-48199494D01*
X219270824Y-48181111D01*
X219038264Y-48165617D01*
X218837204Y-48153811D01*
X218681949Y-48146402D01*
X218586808Y-48144104D01*
X218563639Y-48145916D01*
X218584639Y-48180606D01*
X218651997Y-48263764D01*
X218754401Y-48381864D01*
X218847082Y-48484883D01*
X218949634Y-48595541D01*
X219039339Y-48684758D01*
X219129642Y-48761444D01*
X219233986Y-48834510D01*
X219365814Y-48912864D01*
X219538571Y-49005417D01*
X219765700Y-49121078D01*
X219935267Y-49206073D01*
X220208195Y-49340097D01*
X220489271Y-49473781D01*
X220757568Y-49597475D01*
X220992158Y-49701528D01*
X221169960Y-49775447D01*
X221348626Y-49848531D01*
X221495533Y-49914532D01*
X221594111Y-49965616D01*
X221627671Y-49991847D01*
X221606729Y-50043212D01*
X221541295Y-50100538D01*
X221390279Y-50170241D01*
X221208807Y-50197220D01*
X220989237Y-50180202D01*
X220723925Y-50117917D01*
X220405229Y-50009091D01*
X220025505Y-49852453D01*
X220010151Y-49845709D01*
X219835809Y-49770077D01*
X219690632Y-49709154D01*
X219591688Y-49669973D01*
X219557021Y-49659000D01*
X219555027Y-49694468D01*
X219579750Y-49786217D01*
X219613432Y-49881250D01*
X219678352Y-50142704D01*
X219697344Y-50454880D01*
X219670872Y-50797677D01*
X219599399Y-51150991D01*
X219582744Y-51210871D01*
X219528643Y-51383439D01*
X219475402Y-51529411D01*
X219431637Y-51626008D01*
X219418027Y-51646517D01*
X219363020Y-51724472D01*
X219294864Y-51840194D01*
X219282285Y-51863762D01*
X219282285Y-51259339D01*
X219338689Y-51245775D01*
X219364157Y-51195864D01*
X219368896Y-51175855D01*
X219406261Y-50974084D01*
X219425907Y-50800166D01*
X219427148Y-50669822D01*
X219409296Y-50598774D01*
X219394490Y-50590333D01*
X219345247Y-50623486D01*
X219305065Y-50681108D01*
X219249921Y-50761863D01*
X219158994Y-50874335D01*
X219085042Y-50957875D01*
X219054334Y-50995300D01*
X219054334Y-50336333D01*
X219435334Y-50336333D01*
X219435334Y-50216623D01*
X219421441Y-50116774D01*
X219384999Y-49969590D01*
X219333866Y-49806754D01*
X219333303Y-49805141D01*
X219278170Y-49660986D01*
X219227747Y-49552400D01*
X219192078Y-49500731D01*
X219189496Y-49499443D01*
X219133871Y-49523722D01*
X219055280Y-49618846D01*
X218959791Y-49776127D01*
X218862585Y-49967512D01*
X218797073Y-50097723D01*
X218741166Y-50194562D01*
X218710333Y-50233796D01*
X218669625Y-50278475D01*
X218712618Y-50310459D01*
X218839302Y-50329745D01*
X219049668Y-50336331D01*
X219054334Y-50336333D01*
X219054334Y-50995300D01*
X218994429Y-51068310D01*
X218950048Y-51149128D01*
X218952217Y-51180243D01*
X219015560Y-51209324D01*
X219127156Y-51237965D01*
X219169081Y-51245582D01*
X219282285Y-51259339D01*
X219282285Y-51863762D01*
X219272818Y-51881500D01*
X219188991Y-52020075D01*
X219081923Y-52168294D01*
X219040921Y-52218297D01*
X218896737Y-52385761D01*
X218785298Y-52312796D01*
X218785298Y-51896686D01*
X218788617Y-51840006D01*
X218785716Y-51828583D01*
X218765648Y-51739499D01*
X218741857Y-51613401D01*
X218737024Y-51585166D01*
X218677329Y-51359436D01*
X218571076Y-51091989D01*
X218428126Y-50804239D01*
X218258342Y-50517599D01*
X218215043Y-50451864D01*
X218115253Y-50303556D01*
X218115253Y-49484922D01*
X218153703Y-49479496D01*
X218226800Y-49460121D01*
X218346862Y-49423290D01*
X218526208Y-49365497D01*
X218694500Y-49310401D01*
X218836565Y-49264016D01*
X218950005Y-49227465D01*
X219003022Y-49210871D01*
X219011898Y-49170828D01*
X218973380Y-49080640D01*
X218895846Y-48953859D01*
X218787674Y-48804040D01*
X218657246Y-48644736D01*
X218642877Y-48628324D01*
X218555920Y-48538015D01*
X218488072Y-48482301D01*
X218467671Y-48473666D01*
X218435760Y-48510816D01*
X218405182Y-48603008D01*
X218398994Y-48632416D01*
X218363948Y-48769704D01*
X218318844Y-48889537D01*
X218315146Y-48897000D01*
X218259311Y-49016404D01*
X218201221Y-49156363D01*
X218149282Y-49294188D01*
X218111905Y-49407188D01*
X218097497Y-49472674D01*
X218099129Y-49479906D01*
X218115253Y-49484922D01*
X218115253Y-50303556D01*
X218022178Y-50165227D01*
X217836499Y-50346030D01*
X217730610Y-50454198D01*
X217647779Y-50547953D01*
X217613169Y-50595470D01*
X217613968Y-50677996D01*
X217680996Y-50808680D01*
X217814688Y-50988107D01*
X218015480Y-51216864D01*
X218278220Y-51489916D01*
X218481591Y-51688321D01*
X218633051Y-51821688D01*
X218733864Y-51890861D01*
X218785298Y-51896686D01*
X218785298Y-52312796D01*
X218774452Y-52305694D01*
X218684478Y-52233940D01*
X218551288Y-52111442D01*
X218387357Y-51951230D01*
X218205161Y-51766329D01*
X218017176Y-51569770D01*
X217835878Y-51374580D01*
X217673743Y-51193787D01*
X217543247Y-51040419D01*
X217462526Y-50935696D01*
X217411117Y-50872591D01*
X217363156Y-50866842D01*
X217282934Y-50913225D01*
X217190777Y-50983076D01*
X217069883Y-51087014D01*
X216979196Y-51171289D01*
X216862569Y-51278476D01*
X216757091Y-51366340D01*
X216699499Y-51407054D01*
X216611035Y-51461341D01*
X216490429Y-51538991D01*
X216436845Y-51574404D01*
X216248741Y-51680926D01*
X216048684Y-51763533D01*
X215867812Y-51810466D01*
X215794667Y-51816881D01*
X215689609Y-51805232D01*
X215689609Y-51558645D01*
X215780455Y-51551097D01*
X215995861Y-51509659D01*
X216216807Y-51426104D01*
X216452349Y-51294797D01*
X216711541Y-51110102D01*
X217003440Y-50866384D01*
X217262996Y-50628528D01*
X217448939Y-50449581D01*
X217611753Y-50286657D01*
X217741881Y-50149836D01*
X217829767Y-50049195D01*
X217865855Y-49994814D01*
X217866246Y-49992334D01*
X217837910Y-49940537D01*
X217757960Y-49843042D01*
X217636982Y-49711586D01*
X217485566Y-49557909D01*
X217395424Y-49470345D01*
X217276194Y-49358414D01*
X217276194Y-48713344D01*
X217373852Y-48690818D01*
X217531345Y-48627902D01*
X217636167Y-48581622D01*
X217805487Y-48508714D01*
X217984739Y-48435793D01*
X218048917Y-48410999D01*
X218163820Y-48358062D01*
X218236606Y-48306066D01*
X218250000Y-48281975D01*
X218220696Y-48230552D01*
X218142620Y-48139798D01*
X218030531Y-48026352D01*
X217986228Y-47984579D01*
X217767702Y-47789744D01*
X217589475Y-47646505D01*
X217456194Y-47558147D01*
X217372503Y-47527958D01*
X217351077Y-47535323D01*
X217332786Y-47591589D01*
X217314664Y-47711517D01*
X217299494Y-47874142D01*
X217293806Y-47966500D01*
X217280683Y-48162726D01*
X217263066Y-48346407D01*
X217244042Y-48487253D01*
X217237095Y-48523203D01*
X217218329Y-48631076D01*
X217227858Y-48693943D01*
X217276194Y-48713344D01*
X217276194Y-49358414D01*
X217106490Y-49199097D01*
X216859751Y-48980074D01*
X216641315Y-48802078D01*
X216437290Y-48653912D01*
X216374672Y-48614055D01*
X216374672Y-48008000D01*
X216438513Y-47973816D01*
X216457256Y-47943029D01*
X216504858Y-47882771D01*
X216598748Y-47800885D01*
X216663675Y-47753192D01*
X216794201Y-47655471D01*
X216920954Y-47547493D01*
X217026378Y-47445802D01*
X217092915Y-47366947D01*
X217107000Y-47335371D01*
X217076252Y-47291782D01*
X217000981Y-47226044D01*
X216988515Y-47216656D01*
X216882716Y-47147524D01*
X216739543Y-47064977D01*
X216646504Y-47015787D01*
X216518104Y-46955488D01*
X216426728Y-46931404D01*
X216366326Y-46952349D01*
X216330847Y-47027136D01*
X216314239Y-47164581D01*
X216310453Y-47373497D01*
X216311436Y-47503862D01*
X216315991Y-47726835D01*
X216324788Y-47876765D01*
X216339281Y-47965228D01*
X216360922Y-48003803D01*
X216374672Y-48008000D01*
X216374672Y-48614055D01*
X216233783Y-48524377D01*
X216189710Y-48498434D01*
X216039404Y-48412407D01*
X215947461Y-48365552D01*
X215899646Y-48353476D01*
X215881723Y-48371787D01*
X215879334Y-48402649D01*
X215860114Y-48464889D01*
X215811165Y-48574789D01*
X215745549Y-48706952D01*
X215676329Y-48835981D01*
X215616569Y-48936479D01*
X215581505Y-48981666D01*
X215552001Y-49032109D01*
X215512815Y-49132619D01*
X215499819Y-49172166D01*
X215446265Y-49317269D01*
X215384204Y-49452240D01*
X215378220Y-49463250D01*
X215378220Y-48826938D01*
X215415511Y-48814334D01*
X215461541Y-48750653D01*
X215529084Y-48623582D01*
X215537028Y-48607876D01*
X215608561Y-48474423D01*
X215670766Y-48372796D01*
X215709053Y-48326085D01*
X215749505Y-48279439D01*
X215713366Y-48231415D01*
X215614750Y-48183253D01*
X215487750Y-48135875D01*
X215487750Y-47584492D01*
X215536511Y-47551351D01*
X215540667Y-47530304D01*
X215569213Y-47476603D01*
X215644812Y-47383542D01*
X215752404Y-47269295D01*
X215777408Y-47244554D01*
X215938114Y-47076523D01*
X216032377Y-46949810D01*
X216063867Y-46858273D01*
X216042154Y-46801500D01*
X215983723Y-46782010D01*
X215863301Y-46767260D01*
X215703535Y-46759680D01*
X215648045Y-46759166D01*
X215483577Y-46761531D01*
X215354294Y-46767828D01*
X215281350Y-46776864D01*
X215273157Y-46780333D01*
X215268731Y-46833059D01*
X215285197Y-46942469D01*
X215316743Y-47086786D01*
X215357557Y-47244228D01*
X215401826Y-47393018D01*
X215443740Y-47511374D01*
X215477485Y-47577519D01*
X215487750Y-47584492D01*
X215487750Y-48135875D01*
X215455534Y-48123856D01*
X215258531Y-48056419D01*
X215048304Y-47988682D01*
X214849414Y-47928382D01*
X214686425Y-47883259D01*
X214660800Y-47877420D01*
X214660800Y-47482104D01*
X214715011Y-47434296D01*
X214750764Y-47349187D01*
X214804424Y-47236330D01*
X214887319Y-47109448D01*
X214912159Y-47077604D01*
X214997583Y-46956196D01*
X215031634Y-46868164D01*
X215010601Y-46825093D01*
X214993843Y-46822666D01*
X214906672Y-46844077D01*
X214781661Y-46897577D01*
X214650589Y-46967070D01*
X214545233Y-47036461D01*
X214511168Y-47067152D01*
X214466704Y-47124188D01*
X214458210Y-47176878D01*
X214487170Y-47255483D01*
X214524025Y-47329408D01*
X214598302Y-47447242D01*
X214660800Y-47482104D01*
X214660800Y-47877420D01*
X214600187Y-47863607D01*
X214477725Y-47852761D01*
X214334079Y-47855631D01*
X214193737Y-47869481D01*
X214081186Y-47891576D01*
X214020914Y-47919182D01*
X214016667Y-47928787D01*
X214050011Y-47963392D01*
X214067568Y-47965666D01*
X214127435Y-47993082D01*
X214216117Y-48061743D01*
X214248721Y-48091911D01*
X214390612Y-48208387D01*
X214603723Y-48353225D01*
X214881231Y-48521963D01*
X215075000Y-48632369D01*
X215200646Y-48706748D01*
X215303975Y-48775275D01*
X215336892Y-48800779D01*
X215378220Y-48826938D01*
X215378220Y-49463250D01*
X215375367Y-49468500D01*
X215258628Y-49721039D01*
X215157627Y-50022888D01*
X215081317Y-50339974D01*
X215038652Y-50638230D01*
X215032733Y-50772334D01*
X215064293Y-51018336D01*
X215163872Y-51224516D01*
X215339057Y-51405654D01*
X215370488Y-51430189D01*
X215488989Y-51513340D01*
X215582429Y-51552345D01*
X215689609Y-51558645D01*
X215689609Y-51805232D01*
X215638546Y-51799569D01*
X215459151Y-51754392D01*
X215288827Y-51691920D01*
X215159923Y-51622723D01*
X215132186Y-51600401D01*
X215050253Y-51505540D01*
X214959507Y-51374996D01*
X214921840Y-51312205D01*
X214839089Y-51090016D01*
X214806878Y-50818744D01*
X214825596Y-50517519D01*
X214895631Y-50205475D01*
X214899111Y-50194291D01*
X214944376Y-50042607D01*
X214977020Y-49918570D01*
X214990299Y-49847910D01*
X214990334Y-49846198D01*
X215006763Y-49777782D01*
X215049144Y-49662033D01*
X215090291Y-49564907D01*
X215185195Y-49349758D01*
X215246939Y-49199762D01*
X215278666Y-49103584D01*
X215283514Y-49049886D01*
X215264625Y-49027332D01*
X215240131Y-49024000D01*
X215176673Y-49001350D01*
X215060563Y-48940125D01*
X214908436Y-48850410D01*
X214736926Y-48742289D01*
X214562668Y-48625849D01*
X214439178Y-48538396D01*
X214309839Y-48444998D01*
X214200392Y-48367761D01*
X214137733Y-48325500D01*
X214004262Y-48234907D01*
X213866051Y-48129495D01*
X213740414Y-48024011D01*
X213644663Y-47933205D01*
X213596113Y-47871825D01*
X213593334Y-47861740D01*
X213617597Y-47797463D01*
X213617597Y-47797463D01*
G37*
X213617597Y-47797463D02*
X213680097Y-47694184D01*
X213738717Y-47612356D01*
X213833377Y-47481595D01*
X213915155Y-47357219D01*
X213947062Y-47302196D01*
X214031519Y-47182082D01*
X214162413Y-47039040D01*
X214315238Y-46896352D01*
X214465487Y-46777300D01*
X214563310Y-46716734D01*
X214930245Y-46567531D01*
X215300678Y-46490195D01*
X215681436Y-46485387D01*
X216079343Y-46553766D01*
X216501224Y-46695993D01*
X216953905Y-46912730D01*
X217031966Y-46955662D01*
X217215871Y-47061978D01*
X217390287Y-47168813D01*
X217530107Y-47260514D01*
X217586403Y-47301333D01*
X217726828Y-47387466D01*
X217881445Y-47449792D01*
X217926212Y-47460679D01*
X218023879Y-47474588D01*
X218181906Y-47492024D01*
X218387682Y-47512017D01*
X218628598Y-47533597D01*
X218892042Y-47555794D01*
X219165405Y-47577638D01*
X219436077Y-47598161D01*
X219691447Y-47616391D01*
X219918906Y-47631359D01*
X220105842Y-47642096D01*
X220239647Y-47647632D01*
X220307709Y-47646996D01*
X220313374Y-47644262D01*
X220272831Y-47621914D01*
X220166519Y-47566895D01*
X220004450Y-47484289D01*
X219796639Y-47379178D01*
X219553101Y-47256643D01*
X219284419Y-47122054D01*
X218901555Y-46927808D01*
X218517414Y-46727594D01*
X218139228Y-46525603D01*
X217774227Y-46326027D01*
X217429643Y-46133059D01*
X217112707Y-45950891D01*
X216830650Y-45783716D01*
X216590704Y-45635726D01*
X216400099Y-45511114D01*
X216266066Y-45414072D01*
X216195838Y-45348792D01*
X216187377Y-45326482D01*
X216249843Y-45257168D01*
X216372064Y-45203383D01*
X216529343Y-45174657D01*
X216586937Y-45172291D01*
X216719026Y-45180669D01*
X216859608Y-45209971D01*
X217020556Y-45265061D01*
X217213742Y-45350806D01*
X217451040Y-45472072D01*
X217744320Y-45633724D01*
X217826667Y-45680384D01*
X218698823Y-46165072D01*
X219588061Y-46637340D01*
X220460590Y-47079409D01*
X220801921Y-47246000D01*
X221102093Y-47392964D01*
X221329871Y-47509727D01*
X221490703Y-47599390D01*
X221590037Y-47665054D01*
X221633323Y-47709819D01*
X221636241Y-47720839D01*
X221600515Y-47816860D01*
X221506320Y-47924612D01*
X221374616Y-48026502D01*
X221226360Y-48104938D01*
X221147330Y-48131214D01*
X220942505Y-48167559D01*
X220669559Y-48192982D01*
X220344385Y-48207061D01*
X219982877Y-48209372D01*
X219600926Y-48199494D01*
X219270824Y-48181111D01*
X219038264Y-48165617D01*
X218837204Y-48153811D01*
X218681949Y-48146402D01*
X218586808Y-48144104D01*
X218563639Y-48145916D01*
X218584639Y-48180606D01*
X218651997Y-48263764D01*
X218754401Y-48381864D01*
X218847082Y-48484883D01*
X218949634Y-48595541D01*
X219039339Y-48684758D01*
X219129642Y-48761444D01*
X219233986Y-48834510D01*
X219365814Y-48912864D01*
X219538571Y-49005417D01*
X219765700Y-49121078D01*
X219935267Y-49206073D01*
X220208195Y-49340097D01*
X220489271Y-49473781D01*
X220757568Y-49597475D01*
X220992158Y-49701528D01*
X221169960Y-49775447D01*
X221348626Y-49848531D01*
X221495533Y-49914532D01*
X221594111Y-49965616D01*
X221627671Y-49991847D01*
X221606729Y-50043212D01*
X221541295Y-50100538D01*
X221390279Y-50170241D01*
X221208807Y-50197220D01*
X220989237Y-50180202D01*
X220723925Y-50117917D01*
X220405229Y-50009091D01*
X220025505Y-49852453D01*
X220010151Y-49845709D01*
X219835809Y-49770077D01*
X219690632Y-49709154D01*
X219591688Y-49669973D01*
X219557021Y-49659000D01*
X219555027Y-49694468D01*
X219579750Y-49786217D01*
X219613432Y-49881250D01*
X219678352Y-50142704D01*
X219697344Y-50454880D01*
X219670872Y-50797677D01*
X219599399Y-51150991D01*
X219582744Y-51210871D01*
X219528643Y-51383439D01*
X219475402Y-51529411D01*
X219431637Y-51626008D01*
X219418027Y-51646517D01*
X219363020Y-51724472D01*
X219294864Y-51840194D01*
X219282285Y-51863762D01*
X219282285Y-51259339D01*
X219338689Y-51245775D01*
X219364157Y-51195864D01*
X219368896Y-51175855D01*
X219406261Y-50974084D01*
X219425907Y-50800166D01*
X219427148Y-50669822D01*
X219409296Y-50598774D01*
X219394490Y-50590333D01*
X219345247Y-50623486D01*
X219305065Y-50681108D01*
X219249921Y-50761863D01*
X219158994Y-50874335D01*
X219085042Y-50957875D01*
X219054334Y-50995300D01*
X219054334Y-50336333D01*
X219435334Y-50336333D01*
X219435334Y-50216623D01*
X219421441Y-50116774D01*
X219384999Y-49969590D01*
X219333866Y-49806754D01*
X219333303Y-49805141D01*
X219278170Y-49660986D01*
X219227747Y-49552400D01*
X219192078Y-49500731D01*
X219189496Y-49499443D01*
X219133871Y-49523722D01*
X219055280Y-49618846D01*
X218959791Y-49776127D01*
X218862585Y-49967512D01*
X218797073Y-50097723D01*
X218741166Y-50194562D01*
X218710333Y-50233796D01*
X218669625Y-50278475D01*
X218712618Y-50310459D01*
X218839302Y-50329745D01*
X219049668Y-50336331D01*
X219054334Y-50336333D01*
X219054334Y-50995300D01*
X218994429Y-51068310D01*
X218950048Y-51149128D01*
X218952217Y-51180243D01*
X219015560Y-51209324D01*
X219127156Y-51237965D01*
X219169081Y-51245582D01*
X219282285Y-51259339D01*
X219282285Y-51863762D01*
X219272818Y-51881500D01*
X219188991Y-52020075D01*
X219081923Y-52168294D01*
X219040921Y-52218297D01*
X218896737Y-52385761D01*
X218785298Y-52312796D01*
X218785298Y-51896686D01*
X218788617Y-51840006D01*
X218785716Y-51828583D01*
X218765648Y-51739499D01*
X218741857Y-51613401D01*
X218737024Y-51585166D01*
X218677329Y-51359436D01*
X218571076Y-51091989D01*
X218428126Y-50804239D01*
X218258342Y-50517599D01*
X218215043Y-50451864D01*
X218115253Y-50303556D01*
X218115253Y-49484922D01*
X218153703Y-49479496D01*
X218226800Y-49460121D01*
X218346862Y-49423290D01*
X218526208Y-49365497D01*
X218694500Y-49310401D01*
X218836565Y-49264016D01*
X218950005Y-49227465D01*
X219003022Y-49210871D01*
X219011898Y-49170828D01*
X218973380Y-49080640D01*
X218895846Y-48953859D01*
X218787674Y-48804040D01*
X218657246Y-48644736D01*
X218642877Y-48628324D01*
X218555920Y-48538015D01*
X218488072Y-48482301D01*
X218467671Y-48473666D01*
X218435760Y-48510816D01*
X218405182Y-48603008D01*
X218398994Y-48632416D01*
X218363948Y-48769704D01*
X218318844Y-48889537D01*
X218315146Y-48897000D01*
X218259311Y-49016404D01*
X218201221Y-49156363D01*
X218149282Y-49294188D01*
X218111905Y-49407188D01*
X218097497Y-49472674D01*
X218099129Y-49479906D01*
X218115253Y-49484922D01*
X218115253Y-50303556D01*
X218022178Y-50165227D01*
X217836499Y-50346030D01*
X217730610Y-50454198D01*
X217647779Y-50547953D01*
X217613169Y-50595470D01*
X217613968Y-50677996D01*
X217680996Y-50808680D01*
X217814688Y-50988107D01*
X218015480Y-51216864D01*
X218278220Y-51489916D01*
X218481591Y-51688321D01*
X218633051Y-51821688D01*
X218733864Y-51890861D01*
X218785298Y-51896686D01*
X218785298Y-52312796D01*
X218774452Y-52305694D01*
X218684478Y-52233940D01*
X218551288Y-52111442D01*
X218387357Y-51951230D01*
X218205161Y-51766329D01*
X218017176Y-51569770D01*
X217835878Y-51374580D01*
X217673743Y-51193787D01*
X217543247Y-51040419D01*
X217462526Y-50935696D01*
X217411117Y-50872591D01*
X217363156Y-50866842D01*
X217282934Y-50913225D01*
X217190777Y-50983076D01*
X217069883Y-51087014D01*
X216979196Y-51171289D01*
X216862569Y-51278476D01*
X216757091Y-51366340D01*
X216699499Y-51407054D01*
X216611035Y-51461341D01*
X216490429Y-51538991D01*
X216436845Y-51574404D01*
X216248741Y-51680926D01*
X216048684Y-51763533D01*
X215867812Y-51810466D01*
X215794667Y-51816881D01*
X215689609Y-51805232D01*
X215689609Y-51558645D01*
X215780455Y-51551097D01*
X215995861Y-51509659D01*
X216216807Y-51426104D01*
X216452349Y-51294797D01*
X216711541Y-51110102D01*
X217003440Y-50866384D01*
X217262996Y-50628528D01*
X217448939Y-50449581D01*
X217611753Y-50286657D01*
X217741881Y-50149836D01*
X217829767Y-50049195D01*
X217865855Y-49994814D01*
X217866246Y-49992334D01*
X217837910Y-49940537D01*
X217757960Y-49843042D01*
X217636982Y-49711586D01*
X217485566Y-49557909D01*
X217395424Y-49470345D01*
X217276194Y-49358414D01*
X217276194Y-48713344D01*
X217373852Y-48690818D01*
X217531345Y-48627902D01*
X217636167Y-48581622D01*
X217805487Y-48508714D01*
X217984739Y-48435793D01*
X218048917Y-48410999D01*
X218163820Y-48358062D01*
X218236606Y-48306066D01*
X218250000Y-48281975D01*
X218220696Y-48230552D01*
X218142620Y-48139798D01*
X218030531Y-48026352D01*
X217986228Y-47984579D01*
X217767702Y-47789744D01*
X217589475Y-47646505D01*
X217456194Y-47558147D01*
X217372503Y-47527958D01*
X217351077Y-47535323D01*
X217332786Y-47591589D01*
X217314664Y-47711517D01*
X217299494Y-47874142D01*
X217293806Y-47966500D01*
X217280683Y-48162726D01*
X217263066Y-48346407D01*
X217244042Y-48487253D01*
X217237095Y-48523203D01*
X217218329Y-48631076D01*
X217227858Y-48693943D01*
X217276194Y-48713344D01*
X217276194Y-49358414D01*
X217106490Y-49199097D01*
X216859751Y-48980074D01*
X216641315Y-48802078D01*
X216437290Y-48653912D01*
X216374672Y-48614055D01*
X216374672Y-48008000D01*
X216438513Y-47973816D01*
X216457256Y-47943029D01*
X216504858Y-47882771D01*
X216598748Y-47800885D01*
X216663675Y-47753192D01*
X216794201Y-47655471D01*
X216920954Y-47547493D01*
X217026378Y-47445802D01*
X217092915Y-47366947D01*
X217107000Y-47335371D01*
X217076252Y-47291782D01*
X217000981Y-47226044D01*
X216988515Y-47216656D01*
X216882716Y-47147524D01*
X216739543Y-47064977D01*
X216646504Y-47015787D01*
X216518104Y-46955488D01*
X216426728Y-46931404D01*
X216366326Y-46952349D01*
X216330847Y-47027136D01*
X216314239Y-47164581D01*
X216310453Y-47373497D01*
X216311436Y-47503862D01*
X216315991Y-47726835D01*
X216324788Y-47876765D01*
X216339281Y-47965228D01*
X216360922Y-48003803D01*
X216374672Y-48008000D01*
X216374672Y-48614055D01*
X216233783Y-48524377D01*
X216189710Y-48498434D01*
X216039404Y-48412407D01*
X215947461Y-48365552D01*
X215899646Y-48353476D01*
X215881723Y-48371787D01*
X215879334Y-48402649D01*
X215860114Y-48464889D01*
X215811165Y-48574789D01*
X215745549Y-48706952D01*
X215676329Y-48835981D01*
X215616569Y-48936479D01*
X215581505Y-48981666D01*
X215552001Y-49032109D01*
X215512815Y-49132619D01*
X215499819Y-49172166D01*
X215446265Y-49317269D01*
X215384204Y-49452240D01*
X215378220Y-49463250D01*
X215378220Y-48826938D01*
X215415511Y-48814334D01*
X215461541Y-48750653D01*
X215529084Y-48623582D01*
X215537028Y-48607876D01*
X215608561Y-48474423D01*
X215670766Y-48372796D01*
X215709053Y-48326085D01*
X215749505Y-48279439D01*
X215713366Y-48231415D01*
X215614750Y-48183253D01*
X215487750Y-48135875D01*
X215487750Y-47584492D01*
X215536511Y-47551351D01*
X215540667Y-47530304D01*
X215569213Y-47476603D01*
X215644812Y-47383542D01*
X215752404Y-47269295D01*
X215777408Y-47244554D01*
X215938114Y-47076523D01*
X216032377Y-46949810D01*
X216063867Y-46858273D01*
X216042154Y-46801500D01*
X215983723Y-46782010D01*
X215863301Y-46767260D01*
X215703535Y-46759680D01*
X215648045Y-46759166D01*
X215483577Y-46761531D01*
X215354294Y-46767828D01*
X215281350Y-46776864D01*
X215273157Y-46780333D01*
X215268731Y-46833059D01*
X215285197Y-46942469D01*
X215316743Y-47086786D01*
X215357557Y-47244228D01*
X215401826Y-47393018D01*
X215443740Y-47511374D01*
X215477485Y-47577519D01*
X215487750Y-47584492D01*
X215487750Y-48135875D01*
X215455534Y-48123856D01*
X215258531Y-48056419D01*
X215048304Y-47988682D01*
X214849414Y-47928382D01*
X214686425Y-47883259D01*
X214660800Y-47877420D01*
X214660800Y-47482104D01*
X214715011Y-47434296D01*
X214750764Y-47349187D01*
X214804424Y-47236330D01*
X214887319Y-47109448D01*
X214912159Y-47077604D01*
X214997583Y-46956196D01*
X215031634Y-46868164D01*
X215010601Y-46825093D01*
X214993843Y-46822666D01*
X214906672Y-46844077D01*
X214781661Y-46897577D01*
X214650589Y-46967070D01*
X214545233Y-47036461D01*
X214511168Y-47067152D01*
X214466704Y-47124188D01*
X214458210Y-47176878D01*
X214487170Y-47255483D01*
X214524025Y-47329408D01*
X214598302Y-47447242D01*
X214660800Y-47482104D01*
X214660800Y-47877420D01*
X214600187Y-47863607D01*
X214477725Y-47852761D01*
X214334079Y-47855631D01*
X214193737Y-47869481D01*
X214081186Y-47891576D01*
X214020914Y-47919182D01*
X214016667Y-47928787D01*
X214050011Y-47963392D01*
X214067568Y-47965666D01*
X214127435Y-47993082D01*
X214216117Y-48061743D01*
X214248721Y-48091911D01*
X214390612Y-48208387D01*
X214603723Y-48353225D01*
X214881231Y-48521963D01*
X215075000Y-48632369D01*
X215200646Y-48706748D01*
X215303975Y-48775275D01*
X215336892Y-48800779D01*
X215378220Y-48826938D01*
X215378220Y-49463250D01*
X215375367Y-49468500D01*
X215258628Y-49721039D01*
X215157627Y-50022888D01*
X215081317Y-50339974D01*
X215038652Y-50638230D01*
X215032733Y-50772334D01*
X215064293Y-51018336D01*
X215163872Y-51224516D01*
X215339057Y-51405654D01*
X215370488Y-51430189D01*
X215488989Y-51513340D01*
X215582429Y-51552345D01*
X215689609Y-51558645D01*
X215689609Y-51805232D01*
X215638546Y-51799569D01*
X215459151Y-51754392D01*
X215288827Y-51691920D01*
X215159923Y-51622723D01*
X215132186Y-51600401D01*
X215050253Y-51505540D01*
X214959507Y-51374996D01*
X214921840Y-51312205D01*
X214839089Y-51090016D01*
X214806878Y-50818744D01*
X214825596Y-50517519D01*
X214895631Y-50205475D01*
X214899111Y-50194291D01*
X214944376Y-50042607D01*
X214977020Y-49918570D01*
X214990299Y-49847910D01*
X214990334Y-49846198D01*
X215006763Y-49777782D01*
X215049144Y-49662033D01*
X215090291Y-49564907D01*
X215185195Y-49349758D01*
X215246939Y-49199762D01*
X215278666Y-49103584D01*
X215283514Y-49049886D01*
X215264625Y-49027332D01*
X215240131Y-49024000D01*
X215176673Y-49001350D01*
X215060563Y-48940125D01*
X214908436Y-48850410D01*
X214736926Y-48742289D01*
X214562668Y-48625849D01*
X214439178Y-48538396D01*
X214309839Y-48444998D01*
X214200392Y-48367761D01*
X214137733Y-48325500D01*
X214004262Y-48234907D01*
X213866051Y-48129495D01*
X213740414Y-48024011D01*
X213644663Y-47933205D01*
X213596113Y-47871825D01*
X213593334Y-47861740D01*
X213617597Y-47797463D01*
G36*
X219206813Y-45494959D02*
G01*
X219250327Y-45384695D01*
X219324998Y-45223447D01*
X219425435Y-45022499D01*
X219546247Y-44793135D01*
X219639077Y-44623473D01*
X219790731Y-44350445D01*
X219884754Y-44555095D01*
X219942579Y-44687101D01*
X219986084Y-44797470D01*
X219999115Y-44837521D01*
X220047013Y-44887478D01*
X220172451Y-44969197D01*
X220374665Y-45082240D01*
X220652891Y-45226169D01*
X220838644Y-45318634D01*
X221158868Y-45478773D01*
X221407531Y-45610201D01*
X221590606Y-45718224D01*
X221714063Y-45808150D01*
X221783874Y-45885284D01*
X221806010Y-45954934D01*
X221786445Y-46022404D01*
X221731148Y-46093003D01*
X221721334Y-46103000D01*
X221629006Y-46166438D01*
X221551577Y-46187666D01*
X221489671Y-46169298D01*
X221364829Y-46117944D01*
X221189465Y-46039230D01*
X220975990Y-45938781D01*
X220736820Y-45822222D01*
X220652247Y-45780118D01*
X220382620Y-45645718D01*
X220177498Y-45545616D01*
X220025943Y-45475683D01*
X219917017Y-45431789D01*
X219839781Y-45409806D01*
X219783296Y-45405606D01*
X219736624Y-45415059D01*
X219710754Y-45424754D01*
X219572882Y-45474179D01*
X219428199Y-45515124D01*
X219301530Y-45541846D01*
X219217696Y-45548603D01*
X219199845Y-45542956D01*
X219206813Y-45494959D01*
X219206813Y-45494959D01*
G37*
X219206813Y-45494959D02*
X219250327Y-45384695D01*
X219324998Y-45223447D01*
X219425435Y-45022499D01*
X219546247Y-44793135D01*
X219639077Y-44623473D01*
X219790731Y-44350445D01*
X219884754Y-44555095D01*
X219942579Y-44687101D01*
X219986084Y-44797470D01*
X219999115Y-44837521D01*
X220047013Y-44887478D01*
X220172451Y-44969197D01*
X220374665Y-45082240D01*
X220652891Y-45226169D01*
X220838644Y-45318634D01*
X221158868Y-45478773D01*
X221407531Y-45610201D01*
X221590606Y-45718224D01*
X221714063Y-45808150D01*
X221783874Y-45885284D01*
X221806010Y-45954934D01*
X221786445Y-46022404D01*
X221731148Y-46093003D01*
X221721334Y-46103000D01*
X221629006Y-46166438D01*
X221551577Y-46187666D01*
X221489671Y-46169298D01*
X221364829Y-46117944D01*
X221189465Y-46039230D01*
X220975990Y-45938781D01*
X220736820Y-45822222D01*
X220652247Y-45780118D01*
X220382620Y-45645718D01*
X220177498Y-45545616D01*
X220025943Y-45475683D01*
X219917017Y-45431789D01*
X219839781Y-45409806D01*
X219783296Y-45405606D01*
X219736624Y-45415059D01*
X219710754Y-45424754D01*
X219572882Y-45474179D01*
X219428199Y-45515124D01*
X219301530Y-45541846D01*
X219217696Y-45548603D01*
X219199845Y-45542956D01*
X219206813Y-45494959D01*
X235738000Y-45825000D02*
X234595000Y-45825000D01*
X236881000Y-45825000D02*
X235738000Y-45825000D01*
X236881000Y-49635000D02*
X235738000Y-49635000D01*
X235738000Y-49635000D02*
X234595000Y-49635000D01*
X235738000Y-46460000D02*
X235738000Y-45825000D01*
X235738000Y-49000000D02*
X235738000Y-49635000D01*
X220150000Y-40500000D02*
X220900000Y-40500000D01*
X220900000Y-43000000D02*
X220150000Y-43000000D01*
X215750000Y-43000000D02*
X216500000Y-43000000D01*
X220900000Y-40500000D02*
X220900000Y-41250000D01*
X220900000Y-42250000D02*
X220900000Y-43000000D01*
X215750000Y-42250000D02*
X215750000Y-43000000D01*
X215750000Y-40500000D02*
X215750000Y-41250000D01*
X215750000Y-40500000D02*
X216500000Y-40500000D01*
X244250000Y-49150000D02*
X244250000Y-49900000D01*
X241750000Y-49900000D02*
X241750000Y-49150000D01*
X241750000Y-42250000D02*
X241750000Y-43000000D01*
X244250000Y-49900000D02*
X243500000Y-49900000D01*
X242500000Y-49900000D02*
X241750000Y-49900000D01*
X242500000Y-42250000D02*
X241750000Y-42250000D01*
X244250000Y-42250000D02*
X243500000Y-42250000D01*
X244250000Y-42250000D02*
X244250000Y-43000000D01*
X226000000Y-56850000D02*
X226000000Y-56100000D01*
X228500000Y-56100000D02*
X228500000Y-56850000D01*
X228500000Y-63750000D02*
X228500000Y-63000000D01*
X226000000Y-56100000D02*
X226750000Y-56100000D01*
X227750000Y-56100000D02*
X228500000Y-56100000D01*
X227750000Y-63750000D02*
X228500000Y-63750000D01*
X226000000Y-63750000D02*
X226750000Y-63750000D01*
X226000000Y-63750000D02*
X226000000Y-63000000D01*
X227900000Y-40500000D02*
X228650000Y-40500000D01*
X228650000Y-43000000D02*
X227900000Y-43000000D01*
X223500000Y-43000000D02*
X224250000Y-43000000D01*
X228650000Y-40500000D02*
X228650000Y-41250000D01*
X228650000Y-42250000D02*
X228650000Y-43000000D01*
X223500000Y-42250000D02*
X223500000Y-43000000D01*
X223500000Y-40500000D02*
X223500000Y-41250000D01*
X223500000Y-40500000D02*
X224250000Y-40500000D01*
X222500000Y-47250000D02*
X223000000Y-47250000D01*
X225000000Y-47250000D02*
X225500000Y-47250000D01*
X224500000Y-47250000D02*
G75*
G02X225000000Y-47250000I250000J0D01*
G01*
X223000000Y-47250000D02*
G75*
G02X223500000Y-47250000I250000J0D01*
G01*
X224000000Y-47250000D02*
G75*
G02X224500000Y-47250000I250000J0D01*
G01*
X223500000Y-47250000D02*
G75*
G02X224000000Y-47250000I250000J0D01*
G01*
X222000000Y-50250000D02*
X222000000Y-49150000D01*
X226000000Y-50250000D02*
X222000000Y-50250000D01*
X226000000Y-44250000D02*
X222000000Y-44250000D01*
X226000000Y-44250000D02*
X226000000Y-45350000D01*
X222000000Y-44250000D02*
X222000000Y-45350000D01*
X226000000Y-50250000D02*
X226000000Y-49150000D01*
X219150000Y-54900000D02*
X219400000Y-54900000D01*
X219150000Y-54650000D02*
X219150000Y-54900000D01*
X220350000Y-54900000D02*
X220100000Y-54900000D01*
X220350000Y-54650000D02*
X220350000Y-54900000D01*
X219150000Y-53100000D02*
X219150000Y-53350000D01*
X219400000Y-53100000D02*
X219150000Y-53100000D01*
X220350000Y-53100000D02*
X220350000Y-53350000D01*
X220100000Y-53100000D02*
X220350000Y-53100000D01*
X215250000Y-66750000D02*
X215250000Y-65750000D01*
X215750000Y-66750000D02*
X215250000Y-66750000D01*
X215250000Y-59750000D02*
X215250000Y-60750000D01*
X215750000Y-59750000D02*
X215250000Y-59750000D01*
X219250000Y-66750000D02*
X219250000Y-65750000D01*
X218750000Y-66750000D02*
X219250000Y-66750000D01*
X219250000Y-59750000D02*
X219250000Y-60750000D01*
X218750000Y-59750000D02*
X219250000Y-59750000D01*
X240900000Y-44600000D02*
X240600000Y-44900000D01*
X240900000Y-44400000D02*
X240900000Y-44600000D01*
X239100000Y-44900000D02*
X240600000Y-44900000D01*
X239100000Y-44900000D02*
X239100000Y-44400000D01*
X239100000Y-41600000D02*
X239100000Y-42100000D01*
X240900000Y-41600000D02*
X240900000Y-42100000D01*
X240900000Y-41600000D02*
X239100000Y-41600000D01*
X238650000Y-44600000D02*
X238350000Y-44900000D01*
X238650000Y-44400000D02*
X238650000Y-44600000D01*
X236850000Y-44900000D02*
X238350000Y-44900000D01*
X236850000Y-44900000D02*
X236850000Y-44400000D01*
X236850000Y-41600000D02*
X236850000Y-42100000D01*
X238650000Y-41600000D02*
X238650000Y-42100000D01*
X238650000Y-41600000D02*
X236850000Y-41600000D01*
X236400000Y-44600000D02*
X236100000Y-44900000D01*
X236400000Y-44400000D02*
X236400000Y-44600000D01*
X234600000Y-44900000D02*
X236100000Y-44900000D01*
X234600000Y-44900000D02*
X234600000Y-44400000D01*
X234600000Y-41600000D02*
X234600000Y-42100000D01*
X236400000Y-41600000D02*
X236400000Y-42100000D01*
X236400000Y-41600000D02*
X234600000Y-41600000D01*
X234150000Y-44600000D02*
X233850000Y-44900000D01*
X234150000Y-44400000D02*
X234150000Y-44600000D01*
X232350000Y-44900000D02*
X233850000Y-44900000D01*
X232350000Y-44900000D02*
X232350000Y-44400000D01*
X232350000Y-41600000D02*
X232350000Y-42100000D01*
X234150000Y-41600000D02*
X234150000Y-42100000D01*
X234150000Y-41600000D02*
X232350000Y-41600000D01*
X231900000Y-44600000D02*
X231600000Y-44900000D01*
X231900000Y-44400000D02*
X231900000Y-44600000D01*
X230100000Y-44900000D02*
X231600000Y-44900000D01*
X230100000Y-44900000D02*
X230100000Y-44400000D01*
X230100000Y-41600000D02*
X230100000Y-42100000D01*
X231900000Y-41600000D02*
X231900000Y-42100000D01*
X231900000Y-41600000D02*
X230100000Y-41600000D01*
X210500000Y-66750000D02*
X210500000Y-65750000D01*
X211000000Y-66750000D02*
X210500000Y-66750000D01*
X210500000Y-59750000D02*
X210500000Y-60750000D01*
X211000000Y-59750000D02*
X210500000Y-59750000D01*
X214500000Y-66750000D02*
X214500000Y-65750000D01*
X214000000Y-66750000D02*
X214500000Y-66750000D01*
X214500000Y-59750000D02*
X214500000Y-60750000D01*
X214000000Y-59750000D02*
X214500000Y-59750000D01*
X221264285Y-52171428D02*
X221664285Y-52771428D01*
X221664285Y-52171428D02*
X221264285Y-52771428D01*
X221864285Y-52228571D02*
X221892857Y-52200000D01*
X221950000Y-52171428D01*
X222092857Y-52171428D01*
X222150000Y-52200000D01*
X222178571Y-52228571D01*
X222207142Y-52285714D01*
X222207142Y-52342857D01*
X222178571Y-52428571D01*
X221835714Y-52771428D01*
X222207142Y-52771428D01*
X211214285Y-40421428D02*
X211614285Y-41021428D01*
X211614285Y-40421428D02*
X211214285Y-41021428D01*
X211842857Y-41021428D02*
X211842857Y-40421428D01*
X212071428Y-40421428D01*
X212128571Y-40450000D01*
X212157142Y-40478571D01*
X212185714Y-40535714D01*
X212185714Y-40621428D01*
X212157142Y-40678571D01*
X212128571Y-40707142D01*
X212071428Y-40735714D01*
X211842857Y-40735714D01*
X212757142Y-41021428D02*
X212414285Y-41021428D01*
X212585714Y-41021428D02*
X212585714Y-40421428D01*
X212528571Y-40507142D01*
X212471428Y-40564285D01*
X212414285Y-40592857D01*
X237214285Y-45171428D02*
X237614285Y-45771428D01*
X237614285Y-45171428D02*
X237214285Y-45771428D01*
X237842857Y-45771428D02*
X237842857Y-45171428D01*
X238071428Y-45171428D01*
X238128571Y-45200000D01*
X238157142Y-45228571D01*
X238185714Y-45285714D01*
X238185714Y-45371428D01*
X238157142Y-45428571D01*
X238128571Y-45457142D01*
X238071428Y-45485714D01*
X237842857Y-45485714D01*
X238700000Y-45371428D02*
X238700000Y-45771428D01*
X238557142Y-45142857D02*
X238414285Y-45571428D01*
X238785714Y-45571428D01*
X214671428Y-42535714D02*
X215271428Y-42135714D01*
X214671428Y-42135714D02*
X215271428Y-42535714D01*
X215271428Y-41907142D02*
X214671428Y-41907142D01*
X214671428Y-41678571D01*
X214700000Y-41621428D01*
X214728571Y-41592857D01*
X214785714Y-41564285D01*
X214871428Y-41564285D01*
X214928571Y-41592857D01*
X214957142Y-41621428D01*
X214985714Y-41678571D01*
X214985714Y-41907142D01*
X214671428Y-41364285D02*
X214671428Y-40992857D01*
X214900000Y-41192857D01*
X214900000Y-41107142D01*
X214928571Y-41050000D01*
X214957142Y-41021428D01*
X215014285Y-40992857D01*
X215157142Y-40992857D01*
X215214285Y-41021428D01*
X215242857Y-41050000D01*
X215271428Y-41107142D01*
X215271428Y-41278571D01*
X215242857Y-41335714D01*
X215214285Y-41364285D01*
X242228571Y-41171428D02*
X242628571Y-41771428D01*
X242628571Y-41171428D02*
X242228571Y-41771428D01*
X242828571Y-41742857D02*
X242914285Y-41771428D01*
X243057142Y-41771428D01*
X243114285Y-41742857D01*
X243142857Y-41714285D01*
X243171428Y-41657142D01*
X243171428Y-41600000D01*
X243142857Y-41542857D01*
X243114285Y-41514285D01*
X243057142Y-41485714D01*
X242942857Y-41457142D01*
X242885714Y-41428571D01*
X242857142Y-41400000D01*
X242828571Y-41342857D01*
X242828571Y-41285714D01*
X242857142Y-41228571D01*
X242885714Y-41200000D01*
X242942857Y-41171428D01*
X243085714Y-41171428D01*
X243171428Y-41200000D01*
X243400000Y-41228571D02*
X243428571Y-41200000D01*
X243485714Y-41171428D01*
X243628571Y-41171428D01*
X243685714Y-41200000D01*
X243714285Y-41228571D01*
X243742857Y-41285714D01*
X243742857Y-41342857D01*
X243714285Y-41428571D01*
X243371428Y-41771428D01*
X243742857Y-41771428D01*
X226478571Y-55171428D02*
X226878571Y-55771428D01*
X226878571Y-55171428D02*
X226478571Y-55771428D01*
X227078571Y-55742857D02*
X227164285Y-55771428D01*
X227307142Y-55771428D01*
X227364285Y-55742857D01*
X227392857Y-55714285D01*
X227421428Y-55657142D01*
X227421428Y-55600000D01*
X227392857Y-55542857D01*
X227364285Y-55514285D01*
X227307142Y-55485714D01*
X227192857Y-55457142D01*
X227135714Y-55428571D01*
X227107142Y-55400000D01*
X227078571Y-55342857D01*
X227078571Y-55285714D01*
X227107142Y-55228571D01*
X227135714Y-55200000D01*
X227192857Y-55171428D01*
X227335714Y-55171428D01*
X227421428Y-55200000D01*
X227992857Y-55771428D02*
X227650000Y-55771428D01*
X227821428Y-55771428D02*
X227821428Y-55171428D01*
X227764285Y-55257142D01*
X227707142Y-55314285D01*
X227650000Y-55342857D01*
X222421428Y-42535714D02*
X223021428Y-42135714D01*
X222421428Y-42135714D02*
X223021428Y-42535714D01*
X223021428Y-41907142D02*
X222421428Y-41907142D01*
X222421428Y-41678571D01*
X222450000Y-41621428D01*
X222478571Y-41592857D01*
X222535714Y-41564285D01*
X222621428Y-41564285D01*
X222678571Y-41592857D01*
X222707142Y-41621428D01*
X222735714Y-41678571D01*
X222735714Y-41907142D01*
X222478571Y-41335714D02*
X222450000Y-41307142D01*
X222421428Y-41250000D01*
X222421428Y-41107142D01*
X222450000Y-41050000D01*
X222478571Y-41021428D01*
X222535714Y-40992857D01*
X222592857Y-40992857D01*
X222678571Y-41021428D01*
X223021428Y-41364285D01*
X223021428Y-40992857D01*
X223900000Y-44021428D02*
X223614285Y-44021428D01*
X223614285Y-43421428D01*
X224414285Y-44021428D02*
X224071428Y-44021428D01*
X224242857Y-44021428D02*
X224242857Y-43421428D01*
X224185714Y-43507142D01*
X224128571Y-43564285D01*
X224071428Y-43592857D01*
X219514285Y-52171428D02*
X219914285Y-52771428D01*
X219914285Y-52171428D02*
X219514285Y-52771428D01*
X220457142Y-52771428D02*
X220114285Y-52771428D01*
X220285714Y-52771428D02*
X220285714Y-52171428D01*
X220228571Y-52257142D01*
X220171428Y-52314285D01*
X220114285Y-52342857D01*
X218807142Y-59021428D02*
X218807142Y-58421428D01*
X219150000Y-59021428D02*
X218892857Y-58678571D01*
X219150000Y-58421428D02*
X218807142Y-58764285D01*
X219378571Y-58478571D02*
X219407142Y-58450000D01*
X219464285Y-58421428D01*
X219607142Y-58421428D01*
X219664285Y-58450000D01*
X219692857Y-58478571D01*
X219721428Y-58535714D01*
X219721428Y-58592857D01*
X219692857Y-58678571D01*
X219350000Y-59021428D01*
X219721428Y-59021428D01*
X239300000Y-41271428D02*
X239300000Y-40671428D01*
X239300000Y-40957142D02*
X239642857Y-40957142D01*
X239642857Y-41271428D02*
X239642857Y-40671428D01*
X240214285Y-41271428D02*
X239928571Y-41271428D01*
X239928571Y-40671428D01*
X240700000Y-40671428D02*
X240414285Y-40671428D01*
X240385714Y-40957142D01*
X240414285Y-40928571D01*
X240471428Y-40900000D01*
X240614285Y-40900000D01*
X240671428Y-40928571D01*
X240700000Y-40957142D01*
X240728571Y-41014285D01*
X240728571Y-41157142D01*
X240700000Y-41214285D01*
X240671428Y-41242857D01*
X240614285Y-41271428D01*
X240471428Y-41271428D01*
X240414285Y-41242857D01*
X240385714Y-41214285D01*
X237050000Y-41271428D02*
X237050000Y-40671428D01*
X237050000Y-40957142D02*
X237392857Y-40957142D01*
X237392857Y-41271428D02*
X237392857Y-40671428D01*
X237964285Y-41271428D02*
X237678571Y-41271428D01*
X237678571Y-40671428D01*
X238421428Y-40871428D02*
X238421428Y-41271428D01*
X238278571Y-40642857D02*
X238135714Y-41071428D01*
X238507142Y-41071428D01*
X234800000Y-41271428D02*
X234800000Y-40671428D01*
X234800000Y-40957142D02*
X235142857Y-40957142D01*
X235142857Y-41271428D02*
X235142857Y-40671428D01*
X235714285Y-41271428D02*
X235428571Y-41271428D01*
X235428571Y-40671428D01*
X235857142Y-40671428D02*
X236228571Y-40671428D01*
X236028571Y-40900000D01*
X236114285Y-40900000D01*
X236171428Y-40928571D01*
X236200000Y-40957142D01*
X236228571Y-41014285D01*
X236228571Y-41157142D01*
X236200000Y-41214285D01*
X236171428Y-41242857D01*
X236114285Y-41271428D01*
X235942857Y-41271428D01*
X235885714Y-41242857D01*
X235857142Y-41214285D01*
X232550000Y-41271428D02*
X232550000Y-40671428D01*
X232550000Y-40957142D02*
X232892857Y-40957142D01*
X232892857Y-41271428D02*
X232892857Y-40671428D01*
X233464285Y-41271428D02*
X233178571Y-41271428D01*
X233178571Y-40671428D01*
X233635714Y-40728571D02*
X233664285Y-40700000D01*
X233721428Y-40671428D01*
X233864285Y-40671428D01*
X233921428Y-40700000D01*
X233950000Y-40728571D01*
X233978571Y-40785714D01*
X233978571Y-40842857D01*
X233950000Y-40928571D01*
X233607142Y-41271428D01*
X233978571Y-41271428D01*
X230300000Y-41271428D02*
X230300000Y-40671428D01*
X230300000Y-40957142D02*
X230642857Y-40957142D01*
X230642857Y-41271428D02*
X230642857Y-40671428D01*
X231214285Y-41271428D02*
X230928571Y-41271428D01*
X230928571Y-40671428D01*
X231728571Y-41271428D02*
X231385714Y-41271428D01*
X231557142Y-41271428D02*
X231557142Y-40671428D01*
X231500000Y-40757142D01*
X231442857Y-40814285D01*
X231385714Y-40842857D01*
X214057142Y-59021428D02*
X214057142Y-58421428D01*
X214400000Y-59021428D02*
X214142857Y-58678571D01*
X214400000Y-58421428D02*
X214057142Y-58764285D01*
X214971428Y-59021428D02*
X214628571Y-59021428D01*
X214800000Y-59021428D02*
X214800000Y-58421428D01*
X214742857Y-58507142D01*
X214685714Y-58564285D01*
X214628571Y-58592857D01*
M02*
