G04 #@! TF.GenerationSoftware,KiCad,Pcbnew,(5.1.4)-1*
G04 #@! TF.CreationDate,2021-02-16T23:36:19+03:00*
G04 #@! TF.ProjectId,NAB_A,4e41425f-412e-46b6-9963-61645f706362,rev?*
G04 #@! TF.SameCoordinates,Original*
G04 #@! TF.FileFunction,Soldermask,Bot*
G04 #@! TF.FilePolarity,Negative*
%FSLAX46Y46*%
G04 Gerber Fmt 4.6, Leading zero omitted, Abs format (unit mm)*
G04 Created by KiCad (PCBNEW (5.1.4)-1) date 2021-02-16 23:36:19*
%MOMM*%
%LPD*%
G04 APERTURE LIST*
%ADD10C,0.100000*%
G04 APERTURE END LIST*
D10*
G36*
X220537600Y-68665800D02*
G01*
X218962400Y-68665800D01*
X218962400Y-67954200D01*
X220537600Y-67954200D01*
X220537600Y-68665800D01*
X220537600Y-68665800D01*
G37*
G36*
X214949600Y-68665800D02*
G01*
X213374400Y-68665800D01*
X213374400Y-67954200D01*
X214949600Y-67954200D01*
X214949600Y-68665800D01*
X214949600Y-68665800D01*
G37*
G36*
X239676000Y-68551000D02*
G01*
X238324000Y-68551000D01*
X238324000Y-67949000D01*
X239676000Y-67949000D01*
X239676000Y-68551000D01*
X239676000Y-68551000D01*
G37*
G36*
X241676000Y-68551000D02*
G01*
X240324000Y-68551000D01*
X240324000Y-67949000D01*
X241676000Y-67949000D01*
X241676000Y-68551000D01*
X241676000Y-68551000D01*
G37*
G36*
X212551000Y-68051000D02*
G01*
X210949000Y-68051000D01*
X210949000Y-66949000D01*
X212551000Y-66949000D01*
X212551000Y-68051000D01*
X212551000Y-68051000D01*
G37*
G36*
X229301000Y-67926000D02*
G01*
X228699000Y-67926000D01*
X228699000Y-66574000D01*
X229301000Y-66574000D01*
X229301000Y-67926000D01*
X229301000Y-67926000D01*
G37*
G36*
X227551000Y-67926000D02*
G01*
X226949000Y-67926000D01*
X226949000Y-66574000D01*
X227551000Y-66574000D01*
X227551000Y-67926000D01*
X227551000Y-67926000D01*
G37*
G36*
X235426000Y-67801000D02*
G01*
X234074000Y-67801000D01*
X234074000Y-67199000D01*
X235426000Y-67199000D01*
X235426000Y-67801000D01*
X235426000Y-67801000D01*
G37*
G36*
X233176000Y-67801000D02*
G01*
X231824000Y-67801000D01*
X231824000Y-67199000D01*
X233176000Y-67199000D01*
X233176000Y-67801000D01*
X233176000Y-67801000D01*
G37*
G36*
X214949600Y-67395800D02*
G01*
X213374400Y-67395800D01*
X213374400Y-66684200D01*
X214949600Y-66684200D01*
X214949600Y-67395800D01*
X214949600Y-67395800D01*
G37*
G36*
X220537600Y-67395800D02*
G01*
X218962400Y-67395800D01*
X218962400Y-66684200D01*
X220537600Y-66684200D01*
X220537600Y-67395800D01*
X220537600Y-67395800D01*
G37*
G36*
X239676000Y-66801000D02*
G01*
X238324000Y-66801000D01*
X238324000Y-66199000D01*
X239676000Y-66199000D01*
X239676000Y-66801000D01*
X239676000Y-66801000D01*
G37*
G36*
X241676000Y-66801000D02*
G01*
X240324000Y-66801000D01*
X240324000Y-66199000D01*
X241676000Y-66199000D01*
X241676000Y-66801000D01*
X241676000Y-66801000D01*
G37*
G36*
X220537600Y-66125800D02*
G01*
X218962400Y-66125800D01*
X218962400Y-65414200D01*
X220537600Y-65414200D01*
X220537600Y-66125800D01*
X220537600Y-66125800D01*
G37*
G36*
X214949600Y-66125800D02*
G01*
X213374400Y-66125800D01*
X213374400Y-65414200D01*
X214949600Y-65414200D01*
X214949600Y-66125800D01*
X214949600Y-66125800D01*
G37*
G36*
X212551000Y-66051000D02*
G01*
X210949000Y-66051000D01*
X210949000Y-64949000D01*
X212551000Y-64949000D01*
X212551000Y-66051000D01*
X212551000Y-66051000D01*
G37*
G36*
X233176000Y-66051000D02*
G01*
X231824000Y-66051000D01*
X231824000Y-65449000D01*
X233176000Y-65449000D01*
X233176000Y-66051000D01*
X233176000Y-66051000D01*
G37*
G36*
X235426000Y-66051000D02*
G01*
X234074000Y-66051000D01*
X234074000Y-65449000D01*
X235426000Y-65449000D01*
X235426000Y-66051000D01*
X235426000Y-66051000D01*
G37*
G36*
X244051000Y-65051000D02*
G01*
X242449000Y-65051000D01*
X242449000Y-63949000D01*
X244051000Y-63949000D01*
X244051000Y-65051000D01*
X244051000Y-65051000D01*
G37*
G36*
X214949600Y-64855800D02*
G01*
X213374400Y-64855800D01*
X213374400Y-64144200D01*
X214949600Y-64144200D01*
X214949600Y-64855800D01*
X214949600Y-64855800D01*
G37*
G36*
X220537600Y-64855800D02*
G01*
X218962400Y-64855800D01*
X218962400Y-64144200D01*
X220537600Y-64144200D01*
X220537600Y-64855800D01*
X220537600Y-64855800D01*
G37*
G36*
X227363512Y-61603927D02*
G01*
X227512812Y-61633624D01*
X227676784Y-61701544D01*
X227824354Y-61800147D01*
X227949853Y-61925646D01*
X228048456Y-62073216D01*
X228116376Y-62237188D01*
X228151000Y-62411259D01*
X228151000Y-62588741D01*
X228116376Y-62762812D01*
X228048456Y-62926784D01*
X227949853Y-63074354D01*
X227824354Y-63199853D01*
X227676784Y-63298456D01*
X227512812Y-63366376D01*
X227363512Y-63396073D01*
X227338742Y-63401000D01*
X227161258Y-63401000D01*
X227136488Y-63396073D01*
X226987188Y-63366376D01*
X226823216Y-63298456D01*
X226675646Y-63199853D01*
X226550147Y-63074354D01*
X226451544Y-62926784D01*
X226383624Y-62762812D01*
X226349000Y-62588741D01*
X226349000Y-62411259D01*
X226383624Y-62237188D01*
X226451544Y-62073216D01*
X226550147Y-61925646D01*
X226675646Y-61800147D01*
X226823216Y-61701544D01*
X226987188Y-61633624D01*
X227136488Y-61603927D01*
X227161258Y-61599000D01*
X227338742Y-61599000D01*
X227363512Y-61603927D01*
X227363512Y-61603927D01*
G37*
G36*
X244051000Y-63051000D02*
G01*
X242449000Y-63051000D01*
X242449000Y-61949000D01*
X244051000Y-61949000D01*
X244051000Y-63051000D01*
X244051000Y-63051000D01*
G37*
G36*
X223301000Y-63051000D02*
G01*
X221699000Y-63051000D01*
X221699000Y-61949000D01*
X223301000Y-61949000D01*
X223301000Y-63051000D01*
X223301000Y-63051000D01*
G37*
G36*
X240626000Y-62551000D02*
G01*
X234374000Y-62551000D01*
X234374000Y-60949000D01*
X240626000Y-60949000D01*
X240626000Y-62551000D01*
X240626000Y-62551000D01*
G37*
G36*
X219301000Y-62301000D02*
G01*
X215199000Y-62301000D01*
X215199000Y-60199000D01*
X219301000Y-60199000D01*
X219301000Y-62301000D01*
X219301000Y-62301000D01*
G37*
G36*
X225426000Y-62301000D02*
G01*
X224074000Y-62301000D01*
X224074000Y-61699000D01*
X225426000Y-61699000D01*
X225426000Y-62301000D01*
X225426000Y-62301000D01*
G37*
G36*
X230801000Y-62051000D02*
G01*
X229199000Y-62051000D01*
X229199000Y-60949000D01*
X230801000Y-60949000D01*
X230801000Y-62051000D01*
X230801000Y-62051000D01*
G37*
G36*
X223301000Y-61051000D02*
G01*
X221699000Y-61051000D01*
X221699000Y-59949000D01*
X223301000Y-59949000D01*
X223301000Y-61051000D01*
X223301000Y-61051000D01*
G37*
G36*
X228151000Y-60861000D02*
G01*
X226349000Y-60861000D01*
X226349000Y-59059000D01*
X228151000Y-59059000D01*
X228151000Y-60861000D01*
X228151000Y-60861000D01*
G37*
G36*
X225426000Y-60551000D02*
G01*
X224074000Y-60551000D01*
X224074000Y-59949000D01*
X225426000Y-59949000D01*
X225426000Y-60551000D01*
X225426000Y-60551000D01*
G37*
G36*
X242801000Y-60326000D02*
G01*
X241199000Y-60326000D01*
X241199000Y-54074000D01*
X242801000Y-54074000D01*
X242801000Y-60326000D01*
X242801000Y-60326000D01*
G37*
G36*
X233801000Y-60326000D02*
G01*
X232199000Y-60326000D01*
X232199000Y-54074000D01*
X233801000Y-54074000D01*
X233801000Y-60326000D01*
X233801000Y-60326000D01*
G37*
G36*
X230801000Y-60051000D02*
G01*
X229199000Y-60051000D01*
X229199000Y-58949000D01*
X230801000Y-58949000D01*
X230801000Y-60051000D01*
X230801000Y-60051000D01*
G37*
G36*
X228151000Y-58321000D02*
G01*
X226349000Y-58321000D01*
X226349000Y-56519000D01*
X228151000Y-56519000D01*
X228151000Y-58321000D01*
X228151000Y-58321000D01*
G37*
G36*
X224001000Y-57951000D02*
G01*
X222199000Y-57951000D01*
X222199000Y-57049000D01*
X224001000Y-57049000D01*
X224001000Y-57951000D01*
X224001000Y-57951000D01*
G37*
G36*
X230801000Y-56801000D02*
G01*
X229199000Y-56801000D01*
X229199000Y-55699000D01*
X230801000Y-55699000D01*
X230801000Y-56801000D01*
X230801000Y-56801000D01*
G37*
G36*
X212901000Y-56101000D02*
G01*
X211099000Y-56101000D01*
X211099000Y-54299000D01*
X212901000Y-54299000D01*
X212901000Y-56101000D01*
X212901000Y-56101000D01*
G37*
G36*
X218051000Y-56051000D02*
G01*
X216449000Y-56051000D01*
X216449000Y-53949000D01*
X218051000Y-53949000D01*
X218051000Y-56051000D01*
X218051000Y-56051000D01*
G37*
G36*
X215801000Y-56051000D02*
G01*
X214199000Y-56051000D01*
X214199000Y-53949000D01*
X215801000Y-53949000D01*
X215801000Y-56051000D01*
X215801000Y-56051000D01*
G37*
G36*
X220301000Y-56051000D02*
G01*
X218699000Y-56051000D01*
X218699000Y-53949000D01*
X220301000Y-53949000D01*
X220301000Y-56051000D01*
X220301000Y-56051000D01*
G37*
G36*
X222701000Y-55651000D02*
G01*
X222199000Y-55651000D01*
X222199000Y-54749000D01*
X222701000Y-54749000D01*
X222701000Y-55651000D01*
X222701000Y-55651000D01*
G37*
G36*
X224001000Y-55651000D02*
G01*
X223499000Y-55651000D01*
X223499000Y-54749000D01*
X224001000Y-54749000D01*
X224001000Y-55651000D01*
X224001000Y-55651000D01*
G37*
G36*
X227301000Y-54926000D02*
G01*
X226699000Y-54926000D01*
X226699000Y-53574000D01*
X227301000Y-53574000D01*
X227301000Y-54926000D01*
X227301000Y-54926000D01*
G37*
G36*
X225551000Y-54926000D02*
G01*
X224949000Y-54926000D01*
X224949000Y-53574000D01*
X225551000Y-53574000D01*
X225551000Y-54926000D01*
X225551000Y-54926000D01*
G37*
G36*
X230801000Y-54801000D02*
G01*
X229199000Y-54801000D01*
X229199000Y-53699000D01*
X230801000Y-53699000D01*
X230801000Y-54801000D01*
X230801000Y-54801000D01*
G37*
G36*
X212901000Y-53561000D02*
G01*
X211099000Y-53561000D01*
X211099000Y-51759000D01*
X212901000Y-51759000D01*
X212901000Y-53561000D01*
X212901000Y-53561000D01*
G37*
G36*
X240626000Y-53501000D02*
G01*
X234374000Y-53501000D01*
X234374000Y-51899000D01*
X240626000Y-51899000D01*
X240626000Y-53501000D01*
X240626000Y-53501000D01*
G37*
G36*
X217801000Y-53051000D02*
G01*
X216699000Y-53051000D01*
X216699000Y-51449000D01*
X217801000Y-51449000D01*
X217801000Y-53051000D01*
X217801000Y-53051000D01*
G37*
G36*
X215801000Y-53051000D02*
G01*
X214699000Y-53051000D01*
X214699000Y-51449000D01*
X215801000Y-51449000D01*
X215801000Y-53051000D01*
X215801000Y-53051000D01*
G37*
G36*
X224451000Y-52201000D02*
G01*
X223549000Y-52201000D01*
X223549000Y-50999000D01*
X224451000Y-50999000D01*
X224451000Y-52201000D01*
X224451000Y-52201000D01*
G37*
G36*
X227751000Y-52201000D02*
G01*
X226849000Y-52201000D01*
X226849000Y-50999000D01*
X227751000Y-50999000D01*
X227751000Y-52201000D01*
X227751000Y-52201000D01*
G37*
G36*
X229651000Y-52201000D02*
G01*
X228749000Y-52201000D01*
X228749000Y-50999000D01*
X229651000Y-50999000D01*
X229651000Y-52201000D01*
X229651000Y-52201000D01*
G37*
G36*
X212901000Y-51021000D02*
G01*
X211099000Y-51021000D01*
X211099000Y-49219000D01*
X212901000Y-49219000D01*
X212901000Y-51021000D01*
X212901000Y-51021000D01*
G37*
G36*
X228701000Y-50001000D02*
G01*
X227799000Y-50001000D01*
X227799000Y-48799000D01*
X228701000Y-48799000D01*
X228701000Y-50001000D01*
X228701000Y-50001000D01*
G37*
G36*
X225401000Y-50001000D02*
G01*
X224499000Y-50001000D01*
X224499000Y-48799000D01*
X225401000Y-48799000D01*
X225401000Y-50001000D01*
X225401000Y-50001000D01*
G37*
G36*
X223501000Y-50001000D02*
G01*
X222599000Y-50001000D01*
X222599000Y-48799000D01*
X223501000Y-48799000D01*
X223501000Y-50001000D01*
X223501000Y-50001000D01*
G37*
G36*
X219301000Y-49676000D02*
G01*
X218699000Y-49676000D01*
X218699000Y-48324000D01*
X219301000Y-48324000D01*
X219301000Y-49676000D01*
X219301000Y-49676000D01*
G37*
G36*
X217551000Y-49676000D02*
G01*
X216949000Y-49676000D01*
X216949000Y-48324000D01*
X217551000Y-48324000D01*
X217551000Y-49676000D01*
X217551000Y-49676000D01*
G37*
G36*
X243901000Y-49481000D02*
G01*
X242099000Y-49481000D01*
X242099000Y-47679000D01*
X243901000Y-47679000D01*
X243901000Y-49481000D01*
X243901000Y-49481000D01*
G37*
G36*
X215801000Y-49301000D02*
G01*
X214199000Y-49301000D01*
X214199000Y-48199000D01*
X215801000Y-48199000D01*
X215801000Y-49301000D01*
X215801000Y-49301000D01*
G37*
G36*
X212901000Y-48481000D02*
G01*
X211099000Y-48481000D01*
X211099000Y-46679000D01*
X212901000Y-46679000D01*
X212901000Y-48481000D01*
X212901000Y-48481000D01*
G37*
G36*
X225401000Y-47451001D02*
G01*
X224499000Y-47451001D01*
X224499000Y-46249001D01*
X225401000Y-46249001D01*
X225401000Y-47451001D01*
X225401000Y-47451001D01*
G37*
G36*
X223501000Y-47451001D02*
G01*
X222599000Y-47451001D01*
X222599000Y-46249001D01*
X223501000Y-46249001D01*
X223501000Y-47451001D01*
X223501000Y-47451001D01*
G37*
G36*
X228701000Y-47451000D02*
G01*
X227799000Y-47451000D01*
X227799000Y-46249000D01*
X228701000Y-46249000D01*
X228701000Y-47451000D01*
X228701000Y-47451000D01*
G37*
G36*
X215801000Y-47301000D02*
G01*
X214199000Y-47301000D01*
X214199000Y-46199000D01*
X215801000Y-46199000D01*
X215801000Y-47301000D01*
X215801000Y-47301000D01*
G37*
G36*
X243901000Y-46941000D02*
G01*
X242099000Y-46941000D01*
X242099000Y-45139000D01*
X243901000Y-45139000D01*
X243901000Y-46941000D01*
X243901000Y-46941000D01*
G37*
G36*
X219451000Y-46851000D02*
G01*
X218549000Y-46851000D01*
X218549000Y-45649000D01*
X219451000Y-45649000D01*
X219451000Y-46851000D01*
X219451000Y-46851000D01*
G37*
G36*
X217551000Y-46851000D02*
G01*
X216649000Y-46851000D01*
X216649000Y-45649000D01*
X217551000Y-45649000D01*
X217551000Y-46851000D01*
X217551000Y-46851000D01*
G37*
G36*
X221926000Y-46801000D02*
G01*
X220574000Y-46801000D01*
X220574000Y-46199000D01*
X221926000Y-46199000D01*
X221926000Y-46801000D01*
X221926000Y-46801000D01*
G37*
G36*
X212901000Y-45941000D02*
G01*
X211099000Y-45941000D01*
X211099000Y-44139000D01*
X212901000Y-44139000D01*
X212901000Y-45941000D01*
X212901000Y-45941000D01*
G37*
G36*
X224451000Y-45251001D02*
G01*
X223549000Y-45251001D01*
X223549000Y-44049001D01*
X224451000Y-44049001D01*
X224451000Y-45251001D01*
X224451000Y-45251001D01*
G37*
G36*
X229651000Y-45251000D02*
G01*
X228749000Y-45251000D01*
X228749000Y-44049000D01*
X229651000Y-44049000D01*
X229651000Y-45251000D01*
X229651000Y-45251000D01*
G37*
G36*
X227751000Y-45251000D02*
G01*
X226849000Y-45251000D01*
X226849000Y-44049000D01*
X227751000Y-44049000D01*
X227751000Y-45251000D01*
X227751000Y-45251000D01*
G37*
G36*
X221926000Y-45051000D02*
G01*
X220574000Y-45051000D01*
X220574000Y-44449000D01*
X221926000Y-44449000D01*
X221926000Y-45051000D01*
X221926000Y-45051000D01*
G37*
G36*
X218501000Y-44651000D02*
G01*
X217599000Y-44651000D01*
X217599000Y-43449000D01*
X218501000Y-43449000D01*
X218501000Y-44651000D01*
X218501000Y-44651000D01*
G37*
G36*
X232426000Y-44551000D02*
G01*
X231074000Y-44551000D01*
X231074000Y-43949000D01*
X232426000Y-43949000D01*
X232426000Y-44551000D01*
X232426000Y-44551000D01*
G37*
G36*
X239176000Y-44551000D02*
G01*
X237824000Y-44551000D01*
X237824000Y-43949000D01*
X239176000Y-43949000D01*
X239176000Y-44551000D01*
X239176000Y-44551000D01*
G37*
G36*
X236926000Y-44551000D02*
G01*
X235574000Y-44551000D01*
X235574000Y-43949000D01*
X236926000Y-43949000D01*
X236926000Y-44551000D01*
X236926000Y-44551000D01*
G37*
G36*
X234676000Y-44551000D02*
G01*
X233324000Y-44551000D01*
X233324000Y-43949000D01*
X234676000Y-43949000D01*
X234676000Y-44551000D01*
X234676000Y-44551000D01*
G37*
G36*
X241438563Y-44538437D02*
G01*
X240086563Y-44538437D01*
X240086563Y-43936437D01*
X241438563Y-43936437D01*
X241438563Y-44538437D01*
X241438563Y-44538437D01*
G37*
G36*
X243113512Y-42603927D02*
G01*
X243262812Y-42633624D01*
X243426784Y-42701544D01*
X243574354Y-42800147D01*
X243699853Y-42925646D01*
X243798456Y-43073216D01*
X243866376Y-43237188D01*
X243892072Y-43366375D01*
X243898960Y-43401000D01*
X243901000Y-43411259D01*
X243901000Y-43588741D01*
X243866376Y-43762812D01*
X243798456Y-43926784D01*
X243699853Y-44074354D01*
X243574354Y-44199853D01*
X243426784Y-44298456D01*
X243262812Y-44366376D01*
X243113512Y-44396073D01*
X243088742Y-44401000D01*
X242911258Y-44401000D01*
X242886488Y-44396073D01*
X242737188Y-44366376D01*
X242573216Y-44298456D01*
X242425646Y-44199853D01*
X242300147Y-44074354D01*
X242201544Y-43926784D01*
X242133624Y-43762812D01*
X242099000Y-43588741D01*
X242099000Y-43411259D01*
X242101041Y-43401000D01*
X242107928Y-43366375D01*
X242133624Y-43237188D01*
X242201544Y-43073216D01*
X242300147Y-42925646D01*
X242425646Y-42800147D01*
X242573216Y-42701544D01*
X242737188Y-42633624D01*
X242886488Y-42603927D01*
X242911258Y-42599000D01*
X243088742Y-42599000D01*
X243113512Y-42603927D01*
X243113512Y-42603927D01*
G37*
G36*
X212113512Y-41603927D02*
G01*
X212262812Y-41633624D01*
X212426784Y-41701544D01*
X212574354Y-41800147D01*
X212699853Y-41925646D01*
X212798456Y-42073216D01*
X212866376Y-42237188D01*
X212896073Y-42386488D01*
X212901000Y-42411258D01*
X212901000Y-42588742D01*
X212896073Y-42613512D01*
X212866376Y-42762812D01*
X212798456Y-42926784D01*
X212699853Y-43074354D01*
X212574354Y-43199853D01*
X212426784Y-43298456D01*
X212262812Y-43366376D01*
X212113512Y-43396073D01*
X212088742Y-43401000D01*
X211911258Y-43401000D01*
X211886488Y-43396073D01*
X211737188Y-43366376D01*
X211573216Y-43298456D01*
X211425646Y-43199853D01*
X211300147Y-43074354D01*
X211201544Y-42926784D01*
X211133624Y-42762812D01*
X211103927Y-42613512D01*
X211099000Y-42588742D01*
X211099000Y-42411258D01*
X211103927Y-42386488D01*
X211133624Y-42237188D01*
X211201544Y-42073216D01*
X211300147Y-41925646D01*
X211425646Y-41800147D01*
X211573216Y-41701544D01*
X211737188Y-41633624D01*
X211886488Y-41603927D01*
X211911258Y-41599000D01*
X212088742Y-41599000D01*
X212113512Y-41603927D01*
X212113512Y-41603927D01*
G37*
G36*
X232426000Y-42801000D02*
G01*
X231074000Y-42801000D01*
X231074000Y-42199000D01*
X232426000Y-42199000D01*
X232426000Y-42801000D01*
X232426000Y-42801000D01*
G37*
G36*
X234676000Y-42801000D02*
G01*
X233324000Y-42801000D01*
X233324000Y-42199000D01*
X234676000Y-42199000D01*
X234676000Y-42801000D01*
X234676000Y-42801000D01*
G37*
G36*
X236926000Y-42801000D02*
G01*
X235574000Y-42801000D01*
X235574000Y-42199000D01*
X236926000Y-42199000D01*
X236926000Y-42801000D01*
X236926000Y-42801000D01*
G37*
G36*
X239176000Y-42801000D02*
G01*
X237824000Y-42801000D01*
X237824000Y-42199000D01*
X239176000Y-42199000D01*
X239176000Y-42801000D01*
X239176000Y-42801000D01*
G37*
G36*
X241438563Y-42788437D02*
G01*
X240086563Y-42788437D01*
X240086563Y-42186437D01*
X241438563Y-42186437D01*
X241438563Y-42788437D01*
X241438563Y-42788437D01*
G37*
G36*
X224863512Y-40853927D02*
G01*
X225012812Y-40883624D01*
X225176784Y-40951544D01*
X225324354Y-41050147D01*
X225449853Y-41175646D01*
X225548456Y-41323216D01*
X225616376Y-41487188D01*
X225651000Y-41661259D01*
X225651000Y-41838741D01*
X225616376Y-42012812D01*
X225548456Y-42176784D01*
X225449853Y-42324354D01*
X225324354Y-42449853D01*
X225176784Y-42548456D01*
X225012812Y-42616376D01*
X224863512Y-42646073D01*
X224838742Y-42651000D01*
X224661258Y-42651000D01*
X224636488Y-42646073D01*
X224487188Y-42616376D01*
X224323216Y-42548456D01*
X224175646Y-42449853D01*
X224050147Y-42324354D01*
X223951544Y-42176784D01*
X223883624Y-42012812D01*
X223849000Y-41838741D01*
X223849000Y-41661259D01*
X223883624Y-41487188D01*
X223951544Y-41323216D01*
X224050147Y-41175646D01*
X224175646Y-41050147D01*
X224323216Y-40951544D01*
X224487188Y-40883624D01*
X224636488Y-40853927D01*
X224661258Y-40849000D01*
X224838742Y-40849000D01*
X224863512Y-40853927D01*
X224863512Y-40853927D01*
G37*
G36*
X228191000Y-42651000D02*
G01*
X226389000Y-42651000D01*
X226389000Y-40849000D01*
X228191000Y-40849000D01*
X228191000Y-42651000D01*
X228191000Y-42651000D01*
G37*
G36*
X220441000Y-42651000D02*
G01*
X218639000Y-42651000D01*
X218639000Y-40849000D01*
X220441000Y-40849000D01*
X220441000Y-42651000D01*
X220441000Y-42651000D01*
G37*
G36*
X217113512Y-40853927D02*
G01*
X217262812Y-40883624D01*
X217426784Y-40951544D01*
X217574354Y-41050147D01*
X217699853Y-41175646D01*
X217798456Y-41323216D01*
X217866376Y-41487188D01*
X217901000Y-41661259D01*
X217901000Y-41838741D01*
X217866376Y-42012812D01*
X217798456Y-42176784D01*
X217699853Y-42324354D01*
X217574354Y-42449853D01*
X217426784Y-42548456D01*
X217262812Y-42616376D01*
X217113512Y-42646073D01*
X217088742Y-42651000D01*
X216911258Y-42651000D01*
X216886488Y-42646073D01*
X216737188Y-42616376D01*
X216573216Y-42548456D01*
X216425646Y-42449853D01*
X216300147Y-42324354D01*
X216201544Y-42176784D01*
X216133624Y-42012812D01*
X216099000Y-41838741D01*
X216099000Y-41661259D01*
X216133624Y-41487188D01*
X216201544Y-41323216D01*
X216300147Y-41175646D01*
X216425646Y-41050147D01*
X216573216Y-40951544D01*
X216737188Y-40883624D01*
X216886488Y-40853927D01*
X216911258Y-40849000D01*
X217088742Y-40849000D01*
X217113512Y-40853927D01*
X217113512Y-40853927D01*
G37*
M02*
