G04 #@! TF.GenerationSoftware,KiCad,Pcbnew,(5.1.4)-1*
G04 #@! TF.CreationDate,2021-02-16T23:36:19+03:00*
G04 #@! TF.ProjectId,NAB_A,4e41425f-412e-46b6-9963-61645f706362,rev?*
G04 #@! TF.SameCoordinates,Original*
G04 #@! TF.FileFunction,Copper,L1,Top*
G04 #@! TF.FilePolarity,Positive*
%FSLAX46Y46*%
G04 Gerber Fmt 4.6, Leading zero omitted, Abs format (unit mm)*
G04 Created by KiCad (PCBNEW (5.1.4)-1) date 2021-02-16 23:36:19*
%MOMM*%
%LPD*%
G04 APERTURE LIST*
%ADD10C,0.100000*%
%ADD11O,1.000000X0.500000*%
%ADD12R,1.700000X1.700000*%
%ADD13C,1.700000*%
%ADD14R,2.500000X0.600000*%
%ADD15O,2.500000X0.600000*%
%ADD16R,3.000000X1.500000*%
%ADD17R,2.000000X2.000000*%
%ADD18R,1.000000X1.000000*%
%ADD19C,0.800000*%
%ADD20C,0.250000*%
G04 APERTURE END LIST*
D10*
G36*
X222250000Y-53500000D02*
G01*
X222250000Y-54500000D01*
X221250000Y-54500000D01*
X221250000Y-53500000D01*
X222250000Y-53500000D01*
G37*
G36*
X220250000Y-53500000D02*
G01*
X220250000Y-54500000D01*
X219250000Y-54500000D01*
X219250000Y-53500000D01*
X220250000Y-53500000D01*
G37*
D11*
X221750000Y-54500000D03*
X221750000Y-53500000D03*
D12*
X212000000Y-55200000D03*
X212000000Y-52660000D03*
X212000000Y-50120000D03*
X212000000Y-47580000D03*
X212000000Y-45040000D03*
D13*
X212000000Y-42500000D03*
D14*
X234026000Y-46460000D03*
X237450000Y-46460000D03*
X237450000Y-47730000D03*
X234026000Y-47730000D03*
X234026000Y-49000000D03*
D15*
X237450000Y-49000000D03*
D12*
X219540000Y-41750000D03*
D13*
X217000000Y-41750000D03*
D12*
X243000000Y-48580000D03*
X243000000Y-46040000D03*
D13*
X243000000Y-43500000D03*
D12*
X227250000Y-57420000D03*
X227250000Y-59960000D03*
D13*
X227250000Y-62500000D03*
D12*
X227290000Y-41750000D03*
D13*
X224750000Y-41750000D03*
D16*
X224000000Y-49000000D03*
X224000000Y-45500000D03*
D11*
X219750000Y-54500000D03*
X219750000Y-53500000D03*
D17*
X217250000Y-68250000D03*
X217250000Y-58250000D03*
D18*
X240000000Y-44000000D03*
X240000000Y-42500000D03*
X237750000Y-44000000D03*
X237750000Y-42500000D03*
X235500000Y-44000000D03*
X235500000Y-42500000D03*
X233250000Y-44000000D03*
X233250000Y-42500000D03*
X231000000Y-44000000D03*
X231000000Y-42500000D03*
D17*
X212500000Y-68250000D03*
X212500000Y-58250000D03*
D19*
X223500000Y-67000000D03*
X224762653Y-67012653D03*
X243250000Y-65750000D03*
X243275000Y-57500000D03*
X228250000Y-52500000D03*
X215500000Y-68250000D03*
X235000000Y-58500000D03*
X224500000Y-56250000D03*
X221750000Y-56250000D03*
X221750000Y-68250000D03*
X231000000Y-45750000D03*
X223500000Y-64250000D03*
X229000000Y-57750000D03*
X233750000Y-68275000D03*
X213750000Y-53500000D03*
X225500000Y-56250000D03*
X232250000Y-40750000D03*
X234500000Y-40750000D03*
X236750000Y-40750000D03*
X239000000Y-40750000D03*
X241250000Y-40750000D03*
X220250000Y-50750000D03*
X223250000Y-59250000D03*
X221500000Y-50750000D03*
X243887653Y-51612347D03*
X242862347Y-52637653D03*
X235000000Y-59750000D03*
X234750000Y-54500000D03*
X235500000Y-55250000D03*
X221250000Y-57500000D03*
X226250000Y-67250000D03*
X237000000Y-63500000D03*
X240000000Y-47750000D03*
X239500000Y-50000000D03*
X240000000Y-49000000D03*
X236750000Y-69000000D03*
X237000000Y-67000000D03*
X226250000Y-48500000D03*
X222000000Y-42500000D03*
X236750000Y-65000000D03*
X240250000Y-64250000D03*
X222250000Y-65750000D03*
X222250000Y-64750000D03*
D20*
X224250000Y-66250000D02*
X223500000Y-67000000D01*
X224250000Y-63926998D02*
X224250000Y-66250000D01*
X218945000Y-58621998D02*
X224250000Y-63926998D01*
X218945000Y-56555000D02*
X218945000Y-58621998D01*
X212000000Y-52660000D02*
X215050000Y-52660000D01*
X215195000Y-52805000D02*
X218945000Y-56555000D01*
X215050000Y-52660000D02*
X215195000Y-52805000D01*
X228750000Y-59000000D02*
X228500000Y-58750000D01*
X228500000Y-58750000D02*
X227500000Y-58750000D01*
X227500000Y-58750000D02*
X227250000Y-58500000D01*
X227250000Y-58500000D02*
X227250000Y-57250000D01*
X225098308Y-67750000D02*
X225500000Y-67348308D01*
X223500000Y-67000000D02*
X224250000Y-67750000D01*
X224250000Y-67750000D02*
X225098308Y-67750000D01*
X228750000Y-63250000D02*
X228750000Y-63000000D01*
X228750000Y-63250000D02*
X225500000Y-66500000D01*
X228750000Y-62750000D02*
X228750000Y-63250000D01*
X225500000Y-67348308D02*
X225500000Y-66500000D01*
X228750000Y-63000000D02*
X228750000Y-62750000D01*
X228750000Y-62750000D02*
X228750000Y-59000000D01*
X214790000Y-45040000D02*
X212000000Y-45040000D01*
X215750000Y-46000000D02*
X214790000Y-45040000D01*
X215750000Y-52723590D02*
X215750000Y-46000000D01*
X219513205Y-56486795D02*
X215750000Y-52723590D01*
X219513205Y-58553793D02*
X219513205Y-56486795D01*
X224762653Y-63803241D02*
X219513205Y-58553793D01*
X224762653Y-67012653D02*
X224762653Y-63803241D01*
X231000000Y-44000000D02*
X231000000Y-44750000D01*
X231000000Y-44750000D02*
X231250000Y-45000000D01*
X233000000Y-45000000D02*
X233250000Y-44750000D01*
X233250000Y-44750000D02*
X233250000Y-44000000D01*
X235500000Y-44000000D02*
X235500000Y-44750000D01*
X235500000Y-44750000D02*
X235250000Y-45000000D01*
X233500000Y-45000000D02*
X233250000Y-44750000D01*
X235250000Y-45000000D02*
X233500000Y-45000000D01*
X237750000Y-44000000D02*
X237750000Y-44750000D01*
X237750000Y-44750000D02*
X237500000Y-45000000D01*
X235750000Y-45000000D02*
X235500000Y-44750000D01*
X240000000Y-44000000D02*
X240000000Y-44750000D01*
X240000000Y-44750000D02*
X239750000Y-45000000D01*
X238000000Y-45000000D02*
X237750000Y-44750000D01*
X240000000Y-44750000D02*
X240250000Y-45000000D01*
X240250000Y-45000000D02*
X240500000Y-45000000D01*
X240500000Y-45000000D02*
X241500000Y-45000000D01*
X241500000Y-45000000D02*
X243000000Y-43500000D01*
X239500000Y-45000000D02*
X240250000Y-45000000D01*
X239750000Y-45000000D02*
X239500000Y-45000000D01*
X239500000Y-45000000D02*
X238000000Y-45000000D01*
X237000000Y-45000000D02*
X238000000Y-45000000D01*
X237500000Y-45000000D02*
X237000000Y-45000000D01*
X237000000Y-45000000D02*
X235750000Y-45000000D01*
X235250000Y-45000000D02*
X235750000Y-45000000D01*
X215500000Y-68250000D02*
X217250000Y-68250000D01*
X212500000Y-68250000D02*
X215500000Y-68250000D01*
X233460000Y-46460000D02*
X233250000Y-46250000D01*
X233250000Y-45000000D02*
X233500000Y-45000000D01*
X233000000Y-45000000D02*
X233250000Y-45000000D01*
X231250000Y-45000000D02*
X231000000Y-45250000D01*
X231000000Y-45250000D02*
X231000000Y-45750000D01*
X231000000Y-45250000D02*
X231000000Y-44750000D01*
X223500000Y-65750000D02*
X223500000Y-64250000D01*
X221750000Y-67500000D02*
X223500000Y-65750000D01*
X221750000Y-68250000D02*
X221750000Y-67500000D01*
X221750000Y-54500000D02*
X221750000Y-55500000D01*
X221750000Y-53500000D02*
X221750000Y-52250000D01*
X221750000Y-54500000D02*
X222750000Y-54500000D01*
X222750000Y-54500000D02*
X223000000Y-54500000D01*
X221750000Y-53500000D02*
X222750000Y-53500000D01*
X234976000Y-46460000D02*
X232460000Y-46460000D01*
X232460000Y-46460000D02*
X232250000Y-46250000D01*
X232250000Y-46250000D02*
X232250000Y-45250000D01*
X232250000Y-45250000D02*
X232000000Y-45000000D01*
X231250000Y-45000000D02*
X232000000Y-45000000D01*
X232500000Y-45000000D02*
X232250000Y-45250000D01*
X232000000Y-45000000D02*
X232500000Y-45000000D01*
X232500000Y-45000000D02*
X233000000Y-45000000D01*
X231000000Y-42250000D02*
X231000000Y-41000000D01*
X231250000Y-40750000D02*
X232000000Y-40750000D01*
X231000000Y-41000000D02*
X231250000Y-40750000D01*
X233250000Y-42250000D02*
X233250000Y-41000000D01*
X233500000Y-40750000D02*
X234250000Y-40750000D01*
X233250000Y-41000000D02*
X233500000Y-40750000D01*
X235500000Y-42250000D02*
X235500000Y-41000000D01*
X235750000Y-40750000D02*
X236500000Y-40750000D01*
X235500000Y-41000000D02*
X235750000Y-40750000D01*
X237750000Y-42250000D02*
X237750000Y-41000000D01*
X237750000Y-41000000D02*
X238000000Y-40750000D01*
X238000000Y-40750000D02*
X238750000Y-40750000D01*
X240250000Y-40750000D02*
X241000000Y-40750000D01*
X240000000Y-41000000D02*
X240250000Y-40750000D01*
X240000000Y-42250000D02*
X240000000Y-41000000D01*
X219750000Y-51250000D02*
X220250000Y-50750000D01*
X219750000Y-53500000D02*
X219750000Y-51250000D01*
X218750000Y-53500000D02*
X219750000Y-53500000D01*
X218500000Y-53750000D02*
X218750000Y-53500000D01*
X223250000Y-59250000D02*
X221000000Y-59250000D01*
X220000000Y-58250000D02*
X220000000Y-56250000D01*
X220000000Y-56250000D02*
X218500000Y-54750000D01*
X218500000Y-54750000D02*
X218500000Y-53750000D01*
X221000000Y-59250000D02*
X220000000Y-58250000D01*
X221750000Y-50750000D02*
X222250000Y-50750000D01*
X223750000Y-48000000D02*
X223750000Y-49250000D01*
X223750000Y-49250000D02*
X223750000Y-49000000D01*
X221750000Y-50750000D02*
X221500000Y-50750000D01*
X224000000Y-49000000D02*
X224000000Y-50250000D01*
X223500000Y-50750000D02*
X223000000Y-50750000D01*
X224000000Y-50250000D02*
X223500000Y-50750000D01*
X223000000Y-50750000D02*
X223250000Y-50750000D01*
X221500000Y-50750000D02*
X223000000Y-50750000D01*
X244100000Y-46040000D02*
X244500000Y-46440000D01*
X243000000Y-46040000D02*
X244100000Y-46040000D01*
X244500000Y-51000000D02*
X243887653Y-51612347D01*
X244500000Y-46440000D02*
X244500000Y-51000000D01*
X233500000Y-49000000D02*
X233250000Y-49250000D01*
X234750000Y-54500000D02*
X235500000Y-55250000D01*
X223098002Y-57500000D02*
X224250000Y-58651998D01*
X221250000Y-57500000D02*
X223098002Y-57500000D01*
X224250000Y-59500000D02*
X224250000Y-58651998D01*
X227250000Y-62500000D02*
X224250000Y-59500000D01*
X219750000Y-54500000D02*
X219750000Y-55250000D01*
X219750000Y-55000000D02*
X219750000Y-55250000D01*
X233500000Y-53250000D02*
X234750000Y-54500000D01*
X233250000Y-53000000D02*
X233500000Y-53250000D01*
X227500000Y-67250000D02*
X233750000Y-61000000D01*
X226250000Y-67250000D02*
X227500000Y-67250000D01*
X233750000Y-61000000D02*
X235000000Y-59750000D01*
X233250000Y-61500000D02*
X233750000Y-61000000D01*
X219750000Y-55323002D02*
X219750000Y-55250000D01*
X220588499Y-56838499D02*
X220588499Y-56161501D01*
X220588499Y-56161501D02*
X219750000Y-55323002D01*
X221250000Y-57500000D02*
X220588499Y-56838499D01*
X234976000Y-49000000D02*
X232500000Y-49000000D01*
X232500000Y-49000000D02*
X232250000Y-49250000D01*
X232250000Y-52000000D02*
X234500000Y-54250000D01*
X232250000Y-49250000D02*
X232250000Y-52000000D01*
X244250000Y-58500000D02*
X239250000Y-63500000D01*
X244250000Y-53000000D02*
X244250000Y-58500000D01*
X239250000Y-63500000D02*
X237000000Y-63500000D01*
X241000000Y-49750000D02*
X244250000Y-53000000D01*
X240460000Y-46460000D02*
X241000000Y-47000000D01*
X241000000Y-47000000D02*
X241000000Y-49750000D01*
X236500000Y-46460000D02*
X240460000Y-46460000D01*
X236500000Y-47730000D02*
X239480000Y-47730000D01*
X239500000Y-47750000D02*
X239480000Y-47730000D01*
X240000000Y-47750000D02*
X239500000Y-47750000D01*
X234976000Y-47730000D02*
X235480000Y-47730000D01*
X235480000Y-47730000D02*
X235750000Y-48000000D01*
X235750000Y-48000000D02*
X235750000Y-49500000D01*
X235750000Y-49500000D02*
X236250000Y-50000000D01*
X239500000Y-50000000D02*
X238250000Y-50000000D01*
X238250000Y-50000000D02*
X238500000Y-50000000D01*
X236250000Y-50000000D02*
X238250000Y-50000000D01*
X236500000Y-49000000D02*
X239500000Y-49000000D01*
X240000000Y-49000000D02*
X239500000Y-49000000D01*
X237000000Y-67000000D02*
X237000000Y-67750000D01*
X237000000Y-67750000D02*
X237000000Y-68406795D01*
X237000000Y-68750000D02*
X236750000Y-69000000D01*
X237000000Y-67750000D02*
X237000000Y-68750000D01*
X226250000Y-48500000D02*
X226250000Y-43250000D01*
X226250000Y-43250000D02*
X224750000Y-41750000D01*
X224000000Y-44500000D02*
X222000000Y-42500000D01*
X224000000Y-45500000D02*
X224000000Y-44500000D01*
X239500000Y-65000000D02*
X236750000Y-65000000D01*
X240250000Y-64250000D02*
X239500000Y-65000000D01*
X212500000Y-60000000D02*
X212500000Y-58250000D01*
X218250000Y-65750000D02*
X217750000Y-65250000D01*
X222250000Y-65750000D02*
X218250000Y-65750000D01*
X217750000Y-65250000D02*
X212500000Y-60000000D01*
X217987347Y-65487347D02*
X217750000Y-65250000D01*
X217250000Y-63750000D02*
X217250000Y-58250000D01*
X218250000Y-64750000D02*
X217750000Y-64250000D01*
X222250000Y-64750000D02*
X218250000Y-64750000D01*
X217750000Y-64250000D02*
X217250000Y-63750000D01*
X218000000Y-64500000D02*
X217750000Y-64250000D01*
G36*
X231750001Y-51975430D02*
G01*
X231747581Y-52000000D01*
X231757235Y-52098017D01*
X231785826Y-52192267D01*
X231832255Y-52279129D01*
X231894737Y-52355264D01*
X231913819Y-52370924D01*
X233975000Y-54432107D01*
X233975000Y-54576331D01*
X234004783Y-54726059D01*
X234063204Y-54867100D01*
X234148018Y-54994034D01*
X234255966Y-55101982D01*
X234382900Y-55186796D01*
X234523941Y-55245217D01*
X234673669Y-55275000D01*
X234725000Y-55275000D01*
X234725000Y-55326331D01*
X234754783Y-55476059D01*
X234813204Y-55617100D01*
X234898018Y-55744034D01*
X235005966Y-55851982D01*
X235132900Y-55936796D01*
X235273941Y-55995217D01*
X235423669Y-56025000D01*
X235576331Y-56025000D01*
X235726059Y-55995217D01*
X235867100Y-55936796D01*
X235994034Y-55851982D01*
X236101982Y-55744034D01*
X236186796Y-55617100D01*
X236245217Y-55476059D01*
X236275000Y-55326331D01*
X236275000Y-55173669D01*
X236245217Y-55023941D01*
X236186796Y-54882900D01*
X236101982Y-54755966D01*
X235994034Y-54648018D01*
X235867100Y-54563204D01*
X235726059Y-54504783D01*
X235576331Y-54475000D01*
X235525000Y-54475000D01*
X235525000Y-54423669D01*
X235495217Y-54273941D01*
X235436796Y-54132900D01*
X235351982Y-54005966D01*
X235244034Y-53898018D01*
X235117100Y-53813204D01*
X234976059Y-53754783D01*
X234826331Y-53725000D01*
X234682107Y-53725000D01*
X232750000Y-51792895D01*
X232750000Y-50875000D01*
X241417895Y-50875000D01*
X242494350Y-51951456D01*
X242368313Y-52035671D01*
X242260365Y-52143619D01*
X242175551Y-52270553D01*
X242117130Y-52411594D01*
X242087347Y-52561322D01*
X242087347Y-52713984D01*
X242117130Y-52863712D01*
X242175551Y-53004753D01*
X242260365Y-53131687D01*
X242368313Y-53239635D01*
X242495247Y-53324449D01*
X242636288Y-53382870D01*
X242786016Y-53412653D01*
X242938678Y-53412653D01*
X243088406Y-53382870D01*
X243229447Y-53324449D01*
X243356381Y-53239635D01*
X243464329Y-53131687D01*
X243548544Y-53005650D01*
X243750000Y-53207106D01*
X243750001Y-58292892D01*
X239042895Y-63000000D01*
X237596016Y-63000000D01*
X237494034Y-62898018D01*
X237367100Y-62813204D01*
X237226059Y-62754783D01*
X237076331Y-62725000D01*
X236923669Y-62725000D01*
X236773941Y-62754783D01*
X236632900Y-62813204D01*
X236505966Y-62898018D01*
X236398018Y-63005966D01*
X236313204Y-63132900D01*
X236254783Y-63273941D01*
X236225000Y-63423669D01*
X236225000Y-63576331D01*
X236254783Y-63726059D01*
X236313204Y-63867100D01*
X236398018Y-63994034D01*
X236505966Y-64101982D01*
X236632900Y-64186796D01*
X236725133Y-64225000D01*
X236673669Y-64225000D01*
X236523941Y-64254783D01*
X236382900Y-64313204D01*
X236255966Y-64398018D01*
X236148018Y-64505966D01*
X236063204Y-64632900D01*
X236004783Y-64773941D01*
X235975000Y-64923669D01*
X235975000Y-65076331D01*
X236004783Y-65226059D01*
X236063204Y-65367100D01*
X236148018Y-65494034D01*
X236255966Y-65601982D01*
X236382900Y-65686796D01*
X236523941Y-65745217D01*
X236673669Y-65775000D01*
X236826331Y-65775000D01*
X236976059Y-65745217D01*
X237117100Y-65686796D01*
X237244034Y-65601982D01*
X237346016Y-65500000D01*
X239475440Y-65500000D01*
X239500000Y-65502419D01*
X239524560Y-65500000D01*
X239598017Y-65492765D01*
X239692267Y-65464175D01*
X239779129Y-65417746D01*
X239855264Y-65355264D01*
X239870929Y-65336176D01*
X240182105Y-65025000D01*
X240326331Y-65025000D01*
X240476059Y-64995217D01*
X240617100Y-64936796D01*
X240744034Y-64851982D01*
X240851982Y-64744034D01*
X240936796Y-64617100D01*
X240995217Y-64476059D01*
X241025000Y-64326331D01*
X241025000Y-64173669D01*
X240995217Y-64023941D01*
X240936796Y-63882900D01*
X240851982Y-63755966D01*
X240744034Y-63648018D01*
X240617100Y-63563204D01*
X240476059Y-63504783D01*
X240326331Y-63475000D01*
X240173669Y-63475000D01*
X240023941Y-63504783D01*
X239901680Y-63555425D01*
X244125000Y-59332107D01*
X244125000Y-69125000D01*
X237515319Y-69125000D01*
X237525000Y-69076331D01*
X237525000Y-68923669D01*
X237498457Y-68790228D01*
X237500000Y-68774560D01*
X237500000Y-68774551D01*
X237502418Y-68750001D01*
X237500000Y-68725451D01*
X237500000Y-67596016D01*
X237601982Y-67494034D01*
X237686796Y-67367100D01*
X237745217Y-67226059D01*
X237775000Y-67076331D01*
X237775000Y-66923669D01*
X237745217Y-66773941D01*
X237686796Y-66632900D01*
X237601982Y-66505966D01*
X237494034Y-66398018D01*
X237367100Y-66313204D01*
X237226059Y-66254783D01*
X237076331Y-66225000D01*
X236923669Y-66225000D01*
X236773941Y-66254783D01*
X236632900Y-66313204D01*
X236505966Y-66398018D01*
X236398018Y-66505966D01*
X236313204Y-66632900D01*
X236254783Y-66773941D01*
X236225000Y-66923669D01*
X236225000Y-67076331D01*
X236254783Y-67226059D01*
X236313204Y-67367100D01*
X236398018Y-67494034D01*
X236500001Y-67596017D01*
X236500001Y-67725431D01*
X236500000Y-67725441D01*
X236500001Y-68264699D01*
X236382900Y-68313204D01*
X236255966Y-68398018D01*
X236148018Y-68505966D01*
X236063204Y-68632900D01*
X236004783Y-68773941D01*
X235975000Y-68923669D01*
X235975000Y-69076331D01*
X235984681Y-69125000D01*
X221125000Y-69125000D01*
X221125000Y-66250000D01*
X221653984Y-66250000D01*
X221755966Y-66351982D01*
X221882900Y-66436796D01*
X222023941Y-66495217D01*
X222173669Y-66525000D01*
X222326331Y-66525000D01*
X222476059Y-66495217D01*
X222617100Y-66436796D01*
X222744034Y-66351982D01*
X222851982Y-66244034D01*
X222936796Y-66117100D01*
X222995217Y-65976059D01*
X223025000Y-65826331D01*
X223025000Y-65673669D01*
X222995217Y-65523941D01*
X222936796Y-65382900D01*
X222851982Y-65255966D01*
X222846016Y-65250000D01*
X222851982Y-65244034D01*
X222936796Y-65117100D01*
X222995217Y-64976059D01*
X223025000Y-64826331D01*
X223025000Y-64673669D01*
X222995217Y-64523941D01*
X222936796Y-64382900D01*
X222851982Y-64255966D01*
X222744034Y-64148018D01*
X222617100Y-64063204D01*
X222476059Y-64004783D01*
X222326331Y-63975000D01*
X222173669Y-63975000D01*
X222023941Y-64004783D01*
X221882900Y-64063204D01*
X221755966Y-64148018D01*
X221653984Y-64250000D01*
X221125000Y-64250000D01*
X221125000Y-61509103D01*
X223750000Y-64134104D01*
X223750001Y-66042893D01*
X223567894Y-66225000D01*
X223423669Y-66225000D01*
X223273941Y-66254783D01*
X223132900Y-66313204D01*
X223005966Y-66398018D01*
X222898018Y-66505966D01*
X222813204Y-66632900D01*
X222754783Y-66773941D01*
X222725000Y-66923669D01*
X222725000Y-67076331D01*
X222754783Y-67226059D01*
X222813204Y-67367100D01*
X222898018Y-67494034D01*
X223005966Y-67601982D01*
X223132900Y-67686796D01*
X223273941Y-67745217D01*
X223423669Y-67775000D01*
X223567894Y-67775000D01*
X223879075Y-68086181D01*
X223894736Y-68105264D01*
X223970871Y-68167746D01*
X224057733Y-68214175D01*
X224151983Y-68242765D01*
X224225440Y-68250000D01*
X224225441Y-68250000D01*
X224249999Y-68252419D01*
X224274557Y-68250000D01*
X225073748Y-68250000D01*
X225098308Y-68252419D01*
X225122868Y-68250000D01*
X225196325Y-68242765D01*
X225290575Y-68214175D01*
X225377437Y-68167746D01*
X225453572Y-68105264D01*
X225469236Y-68086177D01*
X225729699Y-67825715D01*
X225755966Y-67851982D01*
X225882900Y-67936796D01*
X226023941Y-67995217D01*
X226173669Y-68025000D01*
X226326331Y-68025000D01*
X226476059Y-67995217D01*
X226617100Y-67936796D01*
X226744034Y-67851982D01*
X226846016Y-67750000D01*
X227475440Y-67750000D01*
X227500000Y-67752419D01*
X227524560Y-67750000D01*
X227598017Y-67742765D01*
X227692267Y-67714175D01*
X227779129Y-67667746D01*
X227855264Y-67605264D01*
X227870929Y-67586176D01*
X234120920Y-61336187D01*
X234120929Y-61336176D01*
X234932106Y-60525000D01*
X235076331Y-60525000D01*
X235226059Y-60495217D01*
X235367100Y-60436796D01*
X235494034Y-60351982D01*
X235601982Y-60244034D01*
X235686796Y-60117100D01*
X235745217Y-59976059D01*
X235775000Y-59826331D01*
X235775000Y-59673669D01*
X235745217Y-59523941D01*
X235686796Y-59382900D01*
X235601982Y-59255966D01*
X235494034Y-59148018D01*
X235367100Y-59063204D01*
X235226059Y-59004783D01*
X235076331Y-58975000D01*
X234923669Y-58975000D01*
X234773941Y-59004783D01*
X234632900Y-59063204D01*
X234505966Y-59148018D01*
X234398018Y-59255966D01*
X234313204Y-59382900D01*
X234254783Y-59523941D01*
X234225000Y-59673669D01*
X234225000Y-59817894D01*
X233413824Y-60629071D01*
X233413813Y-60629080D01*
X227292895Y-66750000D01*
X226846016Y-66750000D01*
X226744034Y-66648018D01*
X226617100Y-66563204D01*
X226476059Y-66504783D01*
X226326331Y-66475000D01*
X226232105Y-66475000D01*
X229086181Y-63620925D01*
X229105264Y-63605264D01*
X229167746Y-63529129D01*
X229214175Y-63442267D01*
X229242765Y-63348017D01*
X229250000Y-63274560D01*
X229250000Y-63274559D01*
X229252419Y-63250001D01*
X229250000Y-63225443D01*
X229250000Y-59024549D01*
X229252418Y-58999999D01*
X229250000Y-58975449D01*
X229250000Y-58975440D01*
X229242765Y-58901983D01*
X229214175Y-58807733D01*
X229167746Y-58720871D01*
X229105264Y-58644736D01*
X229086181Y-58629075D01*
X228870929Y-58413823D01*
X228855264Y-58394736D01*
X228779129Y-58332254D01*
X228692267Y-58285825D01*
X228598017Y-58257235D01*
X228524560Y-58250000D01*
X228500000Y-58247581D01*
X228476814Y-58249865D01*
X228476814Y-56570000D01*
X228469574Y-56496487D01*
X228448131Y-56425800D01*
X228413309Y-56360653D01*
X228366448Y-56303552D01*
X228309347Y-56256691D01*
X228244200Y-56221869D01*
X228173513Y-56200426D01*
X228100000Y-56193186D01*
X226400000Y-56193186D01*
X226326487Y-56200426D01*
X226255800Y-56221869D01*
X226190653Y-56256691D01*
X226133552Y-56303552D01*
X226086691Y-56360653D01*
X226051869Y-56425800D01*
X226030426Y-56496487D01*
X226023186Y-56570000D01*
X226023186Y-58270000D01*
X226030426Y-58343513D01*
X226051869Y-58414200D01*
X226086691Y-58479347D01*
X226133552Y-58536448D01*
X226138932Y-58540863D01*
X226051089Y-58587817D01*
X225955920Y-58665920D01*
X225877817Y-58761089D01*
X225819781Y-58869666D01*
X225784043Y-58987479D01*
X225771976Y-59110000D01*
X225775000Y-59778750D01*
X225931250Y-59935000D01*
X227225000Y-59935000D01*
X227225000Y-59915000D01*
X227275000Y-59915000D01*
X227275000Y-59935000D01*
X227295000Y-59935000D01*
X227295000Y-59985000D01*
X227275000Y-59985000D01*
X227275000Y-60005000D01*
X227225000Y-60005000D01*
X227225000Y-59985000D01*
X225931250Y-59985000D01*
X225775000Y-60141250D01*
X225774205Y-60317099D01*
X224750000Y-59292895D01*
X224750000Y-58676555D01*
X224752419Y-58651997D01*
X224747102Y-58598016D01*
X224742765Y-58553981D01*
X224714175Y-58459731D01*
X224667746Y-58372869D01*
X224605264Y-58296734D01*
X224586181Y-58281073D01*
X223468931Y-57163824D01*
X223453266Y-57144736D01*
X223377131Y-57082254D01*
X223290269Y-57035825D01*
X223196019Y-57007235D01*
X223122562Y-57000000D01*
X223098002Y-56997581D01*
X223073442Y-57000000D01*
X221846016Y-57000000D01*
X221744034Y-56898018D01*
X221617100Y-56813204D01*
X221476059Y-56754783D01*
X221326331Y-56725000D01*
X221182106Y-56725000D01*
X221125000Y-56667895D01*
X221125000Y-55289076D01*
X221142055Y-55298828D01*
X221304776Y-55353310D01*
X221475000Y-55375000D01*
X221725000Y-55375000D01*
X221725000Y-54875000D01*
X221775000Y-54875000D01*
X221775000Y-55375000D01*
X222025000Y-55375000D01*
X222195224Y-55353310D01*
X222357945Y-55298828D01*
X222506911Y-55213647D01*
X222636396Y-55101041D01*
X222741425Y-54965337D01*
X222817961Y-54811751D01*
X222859964Y-54661517D01*
X222718315Y-54525000D01*
X222622746Y-54525000D01*
X222624963Y-54505236D01*
X222624981Y-54502715D01*
X222624991Y-54502618D01*
X222624982Y-54502521D01*
X222625000Y-54500000D01*
X222625000Y-54475000D01*
X222718315Y-54475000D01*
X222859964Y-54338483D01*
X222817961Y-54188249D01*
X222741425Y-54034663D01*
X222714597Y-54000000D01*
X222741425Y-53965337D01*
X222817961Y-53811751D01*
X222859964Y-53661517D01*
X222718315Y-53525000D01*
X222625000Y-53525000D01*
X222625000Y-53500000D01*
X222622549Y-53475000D01*
X222718315Y-53475000D01*
X222859964Y-53338483D01*
X222817961Y-53188249D01*
X222741425Y-53034663D01*
X222636396Y-52898959D01*
X222506911Y-52786353D01*
X222357945Y-52701172D01*
X222195224Y-52646690D01*
X222025000Y-52625000D01*
X221775000Y-52625000D01*
X221775000Y-53125000D01*
X221725000Y-53125000D01*
X221725000Y-52625000D01*
X221475000Y-52625000D01*
X221304776Y-52646690D01*
X221142055Y-52701172D01*
X221125000Y-52710924D01*
X221125000Y-51431517D01*
X221132900Y-51436796D01*
X221273941Y-51495217D01*
X221423669Y-51525000D01*
X221576331Y-51525000D01*
X221726059Y-51495217D01*
X221867100Y-51436796D01*
X221994034Y-51351982D01*
X222096016Y-51250000D01*
X223475440Y-51250000D01*
X223500000Y-51252419D01*
X223524560Y-51250000D01*
X223598017Y-51242765D01*
X223692267Y-51214175D01*
X223779129Y-51167746D01*
X223855264Y-51105264D01*
X223870929Y-51086177D01*
X224082106Y-50875000D01*
X231750001Y-50875000D01*
X231750001Y-51975430D01*
X231750001Y-51975430D01*
G37*
X231750001Y-51975430D02*
X231747581Y-52000000D01*
X231757235Y-52098017D01*
X231785826Y-52192267D01*
X231832255Y-52279129D01*
X231894737Y-52355264D01*
X231913819Y-52370924D01*
X233975000Y-54432107D01*
X233975000Y-54576331D01*
X234004783Y-54726059D01*
X234063204Y-54867100D01*
X234148018Y-54994034D01*
X234255966Y-55101982D01*
X234382900Y-55186796D01*
X234523941Y-55245217D01*
X234673669Y-55275000D01*
X234725000Y-55275000D01*
X234725000Y-55326331D01*
X234754783Y-55476059D01*
X234813204Y-55617100D01*
X234898018Y-55744034D01*
X235005966Y-55851982D01*
X235132900Y-55936796D01*
X235273941Y-55995217D01*
X235423669Y-56025000D01*
X235576331Y-56025000D01*
X235726059Y-55995217D01*
X235867100Y-55936796D01*
X235994034Y-55851982D01*
X236101982Y-55744034D01*
X236186796Y-55617100D01*
X236245217Y-55476059D01*
X236275000Y-55326331D01*
X236275000Y-55173669D01*
X236245217Y-55023941D01*
X236186796Y-54882900D01*
X236101982Y-54755966D01*
X235994034Y-54648018D01*
X235867100Y-54563204D01*
X235726059Y-54504783D01*
X235576331Y-54475000D01*
X235525000Y-54475000D01*
X235525000Y-54423669D01*
X235495217Y-54273941D01*
X235436796Y-54132900D01*
X235351982Y-54005966D01*
X235244034Y-53898018D01*
X235117100Y-53813204D01*
X234976059Y-53754783D01*
X234826331Y-53725000D01*
X234682107Y-53725000D01*
X232750000Y-51792895D01*
X232750000Y-50875000D01*
X241417895Y-50875000D01*
X242494350Y-51951456D01*
X242368313Y-52035671D01*
X242260365Y-52143619D01*
X242175551Y-52270553D01*
X242117130Y-52411594D01*
X242087347Y-52561322D01*
X242087347Y-52713984D01*
X242117130Y-52863712D01*
X242175551Y-53004753D01*
X242260365Y-53131687D01*
X242368313Y-53239635D01*
X242495247Y-53324449D01*
X242636288Y-53382870D01*
X242786016Y-53412653D01*
X242938678Y-53412653D01*
X243088406Y-53382870D01*
X243229447Y-53324449D01*
X243356381Y-53239635D01*
X243464329Y-53131687D01*
X243548544Y-53005650D01*
X243750000Y-53207106D01*
X243750001Y-58292892D01*
X239042895Y-63000000D01*
X237596016Y-63000000D01*
X237494034Y-62898018D01*
X237367100Y-62813204D01*
X237226059Y-62754783D01*
X237076331Y-62725000D01*
X236923669Y-62725000D01*
X236773941Y-62754783D01*
X236632900Y-62813204D01*
X236505966Y-62898018D01*
X236398018Y-63005966D01*
X236313204Y-63132900D01*
X236254783Y-63273941D01*
X236225000Y-63423669D01*
X236225000Y-63576331D01*
X236254783Y-63726059D01*
X236313204Y-63867100D01*
X236398018Y-63994034D01*
X236505966Y-64101982D01*
X236632900Y-64186796D01*
X236725133Y-64225000D01*
X236673669Y-64225000D01*
X236523941Y-64254783D01*
X236382900Y-64313204D01*
X236255966Y-64398018D01*
X236148018Y-64505966D01*
X236063204Y-64632900D01*
X236004783Y-64773941D01*
X235975000Y-64923669D01*
X235975000Y-65076331D01*
X236004783Y-65226059D01*
X236063204Y-65367100D01*
X236148018Y-65494034D01*
X236255966Y-65601982D01*
X236382900Y-65686796D01*
X236523941Y-65745217D01*
X236673669Y-65775000D01*
X236826331Y-65775000D01*
X236976059Y-65745217D01*
X237117100Y-65686796D01*
X237244034Y-65601982D01*
X237346016Y-65500000D01*
X239475440Y-65500000D01*
X239500000Y-65502419D01*
X239524560Y-65500000D01*
X239598017Y-65492765D01*
X239692267Y-65464175D01*
X239779129Y-65417746D01*
X239855264Y-65355264D01*
X239870929Y-65336176D01*
X240182105Y-65025000D01*
X240326331Y-65025000D01*
X240476059Y-64995217D01*
X240617100Y-64936796D01*
X240744034Y-64851982D01*
X240851982Y-64744034D01*
X240936796Y-64617100D01*
X240995217Y-64476059D01*
X241025000Y-64326331D01*
X241025000Y-64173669D01*
X240995217Y-64023941D01*
X240936796Y-63882900D01*
X240851982Y-63755966D01*
X240744034Y-63648018D01*
X240617100Y-63563204D01*
X240476059Y-63504783D01*
X240326331Y-63475000D01*
X240173669Y-63475000D01*
X240023941Y-63504783D01*
X239901680Y-63555425D01*
X244125000Y-59332107D01*
X244125000Y-69125000D01*
X237515319Y-69125000D01*
X237525000Y-69076331D01*
X237525000Y-68923669D01*
X237498457Y-68790228D01*
X237500000Y-68774560D01*
X237500000Y-68774551D01*
X237502418Y-68750001D01*
X237500000Y-68725451D01*
X237500000Y-67596016D01*
X237601982Y-67494034D01*
X237686796Y-67367100D01*
X237745217Y-67226059D01*
X237775000Y-67076331D01*
X237775000Y-66923669D01*
X237745217Y-66773941D01*
X237686796Y-66632900D01*
X237601982Y-66505966D01*
X237494034Y-66398018D01*
X237367100Y-66313204D01*
X237226059Y-66254783D01*
X237076331Y-66225000D01*
X236923669Y-66225000D01*
X236773941Y-66254783D01*
X236632900Y-66313204D01*
X236505966Y-66398018D01*
X236398018Y-66505966D01*
X236313204Y-66632900D01*
X236254783Y-66773941D01*
X236225000Y-66923669D01*
X236225000Y-67076331D01*
X236254783Y-67226059D01*
X236313204Y-67367100D01*
X236398018Y-67494034D01*
X236500001Y-67596017D01*
X236500001Y-67725431D01*
X236500000Y-67725441D01*
X236500001Y-68264699D01*
X236382900Y-68313204D01*
X236255966Y-68398018D01*
X236148018Y-68505966D01*
X236063204Y-68632900D01*
X236004783Y-68773941D01*
X235975000Y-68923669D01*
X235975000Y-69076331D01*
X235984681Y-69125000D01*
X221125000Y-69125000D01*
X221125000Y-66250000D01*
X221653984Y-66250000D01*
X221755966Y-66351982D01*
X221882900Y-66436796D01*
X222023941Y-66495217D01*
X222173669Y-66525000D01*
X222326331Y-66525000D01*
X222476059Y-66495217D01*
X222617100Y-66436796D01*
X222744034Y-66351982D01*
X222851982Y-66244034D01*
X222936796Y-66117100D01*
X222995217Y-65976059D01*
X223025000Y-65826331D01*
X223025000Y-65673669D01*
X222995217Y-65523941D01*
X222936796Y-65382900D01*
X222851982Y-65255966D01*
X222846016Y-65250000D01*
X222851982Y-65244034D01*
X222936796Y-65117100D01*
X222995217Y-64976059D01*
X223025000Y-64826331D01*
X223025000Y-64673669D01*
X222995217Y-64523941D01*
X222936796Y-64382900D01*
X222851982Y-64255966D01*
X222744034Y-64148018D01*
X222617100Y-64063204D01*
X222476059Y-64004783D01*
X222326331Y-63975000D01*
X222173669Y-63975000D01*
X222023941Y-64004783D01*
X221882900Y-64063204D01*
X221755966Y-64148018D01*
X221653984Y-64250000D01*
X221125000Y-64250000D01*
X221125000Y-61509103D01*
X223750000Y-64134104D01*
X223750001Y-66042893D01*
X223567894Y-66225000D01*
X223423669Y-66225000D01*
X223273941Y-66254783D01*
X223132900Y-66313204D01*
X223005966Y-66398018D01*
X222898018Y-66505966D01*
X222813204Y-66632900D01*
X222754783Y-66773941D01*
X222725000Y-66923669D01*
X222725000Y-67076331D01*
X222754783Y-67226059D01*
X222813204Y-67367100D01*
X222898018Y-67494034D01*
X223005966Y-67601982D01*
X223132900Y-67686796D01*
X223273941Y-67745217D01*
X223423669Y-67775000D01*
X223567894Y-67775000D01*
X223879075Y-68086181D01*
X223894736Y-68105264D01*
X223970871Y-68167746D01*
X224057733Y-68214175D01*
X224151983Y-68242765D01*
X224225440Y-68250000D01*
X224225441Y-68250000D01*
X224249999Y-68252419D01*
X224274557Y-68250000D01*
X225073748Y-68250000D01*
X225098308Y-68252419D01*
X225122868Y-68250000D01*
X225196325Y-68242765D01*
X225290575Y-68214175D01*
X225377437Y-68167746D01*
X225453572Y-68105264D01*
X225469236Y-68086177D01*
X225729699Y-67825715D01*
X225755966Y-67851982D01*
X225882900Y-67936796D01*
X226023941Y-67995217D01*
X226173669Y-68025000D01*
X226326331Y-68025000D01*
X226476059Y-67995217D01*
X226617100Y-67936796D01*
X226744034Y-67851982D01*
X226846016Y-67750000D01*
X227475440Y-67750000D01*
X227500000Y-67752419D01*
X227524560Y-67750000D01*
X227598017Y-67742765D01*
X227692267Y-67714175D01*
X227779129Y-67667746D01*
X227855264Y-67605264D01*
X227870929Y-67586176D01*
X234120920Y-61336187D01*
X234120929Y-61336176D01*
X234932106Y-60525000D01*
X235076331Y-60525000D01*
X235226059Y-60495217D01*
X235367100Y-60436796D01*
X235494034Y-60351982D01*
X235601982Y-60244034D01*
X235686796Y-60117100D01*
X235745217Y-59976059D01*
X235775000Y-59826331D01*
X235775000Y-59673669D01*
X235745217Y-59523941D01*
X235686796Y-59382900D01*
X235601982Y-59255966D01*
X235494034Y-59148018D01*
X235367100Y-59063204D01*
X235226059Y-59004783D01*
X235076331Y-58975000D01*
X234923669Y-58975000D01*
X234773941Y-59004783D01*
X234632900Y-59063204D01*
X234505966Y-59148018D01*
X234398018Y-59255966D01*
X234313204Y-59382900D01*
X234254783Y-59523941D01*
X234225000Y-59673669D01*
X234225000Y-59817894D01*
X233413824Y-60629071D01*
X233413813Y-60629080D01*
X227292895Y-66750000D01*
X226846016Y-66750000D01*
X226744034Y-66648018D01*
X226617100Y-66563204D01*
X226476059Y-66504783D01*
X226326331Y-66475000D01*
X226232105Y-66475000D01*
X229086181Y-63620925D01*
X229105264Y-63605264D01*
X229167746Y-63529129D01*
X229214175Y-63442267D01*
X229242765Y-63348017D01*
X229250000Y-63274560D01*
X229250000Y-63274559D01*
X229252419Y-63250001D01*
X229250000Y-63225443D01*
X229250000Y-59024549D01*
X229252418Y-58999999D01*
X229250000Y-58975449D01*
X229250000Y-58975440D01*
X229242765Y-58901983D01*
X229214175Y-58807733D01*
X229167746Y-58720871D01*
X229105264Y-58644736D01*
X229086181Y-58629075D01*
X228870929Y-58413823D01*
X228855264Y-58394736D01*
X228779129Y-58332254D01*
X228692267Y-58285825D01*
X228598017Y-58257235D01*
X228524560Y-58250000D01*
X228500000Y-58247581D01*
X228476814Y-58249865D01*
X228476814Y-56570000D01*
X228469574Y-56496487D01*
X228448131Y-56425800D01*
X228413309Y-56360653D01*
X228366448Y-56303552D01*
X228309347Y-56256691D01*
X228244200Y-56221869D01*
X228173513Y-56200426D01*
X228100000Y-56193186D01*
X226400000Y-56193186D01*
X226326487Y-56200426D01*
X226255800Y-56221869D01*
X226190653Y-56256691D01*
X226133552Y-56303552D01*
X226086691Y-56360653D01*
X226051869Y-56425800D01*
X226030426Y-56496487D01*
X226023186Y-56570000D01*
X226023186Y-58270000D01*
X226030426Y-58343513D01*
X226051869Y-58414200D01*
X226086691Y-58479347D01*
X226133552Y-58536448D01*
X226138932Y-58540863D01*
X226051089Y-58587817D01*
X225955920Y-58665920D01*
X225877817Y-58761089D01*
X225819781Y-58869666D01*
X225784043Y-58987479D01*
X225771976Y-59110000D01*
X225775000Y-59778750D01*
X225931250Y-59935000D01*
X227225000Y-59935000D01*
X227225000Y-59915000D01*
X227275000Y-59915000D01*
X227275000Y-59935000D01*
X227295000Y-59935000D01*
X227295000Y-59985000D01*
X227275000Y-59985000D01*
X227275000Y-60005000D01*
X227225000Y-60005000D01*
X227225000Y-59985000D01*
X225931250Y-59985000D01*
X225775000Y-60141250D01*
X225774205Y-60317099D01*
X224750000Y-59292895D01*
X224750000Y-58676555D01*
X224752419Y-58651997D01*
X224747102Y-58598016D01*
X224742765Y-58553981D01*
X224714175Y-58459731D01*
X224667746Y-58372869D01*
X224605264Y-58296734D01*
X224586181Y-58281073D01*
X223468931Y-57163824D01*
X223453266Y-57144736D01*
X223377131Y-57082254D01*
X223290269Y-57035825D01*
X223196019Y-57007235D01*
X223122562Y-57000000D01*
X223098002Y-56997581D01*
X223073442Y-57000000D01*
X221846016Y-57000000D01*
X221744034Y-56898018D01*
X221617100Y-56813204D01*
X221476059Y-56754783D01*
X221326331Y-56725000D01*
X221182106Y-56725000D01*
X221125000Y-56667895D01*
X221125000Y-55289076D01*
X221142055Y-55298828D01*
X221304776Y-55353310D01*
X221475000Y-55375000D01*
X221725000Y-55375000D01*
X221725000Y-54875000D01*
X221775000Y-54875000D01*
X221775000Y-55375000D01*
X222025000Y-55375000D01*
X222195224Y-55353310D01*
X222357945Y-55298828D01*
X222506911Y-55213647D01*
X222636396Y-55101041D01*
X222741425Y-54965337D01*
X222817961Y-54811751D01*
X222859964Y-54661517D01*
X222718315Y-54525000D01*
X222622746Y-54525000D01*
X222624963Y-54505236D01*
X222624981Y-54502715D01*
X222624991Y-54502618D01*
X222624982Y-54502521D01*
X222625000Y-54500000D01*
X222625000Y-54475000D01*
X222718315Y-54475000D01*
X222859964Y-54338483D01*
X222817961Y-54188249D01*
X222741425Y-54034663D01*
X222714597Y-54000000D01*
X222741425Y-53965337D01*
X222817961Y-53811751D01*
X222859964Y-53661517D01*
X222718315Y-53525000D01*
X222625000Y-53525000D01*
X222625000Y-53500000D01*
X222622549Y-53475000D01*
X222718315Y-53475000D01*
X222859964Y-53338483D01*
X222817961Y-53188249D01*
X222741425Y-53034663D01*
X222636396Y-52898959D01*
X222506911Y-52786353D01*
X222357945Y-52701172D01*
X222195224Y-52646690D01*
X222025000Y-52625000D01*
X221775000Y-52625000D01*
X221775000Y-53125000D01*
X221725000Y-53125000D01*
X221725000Y-52625000D01*
X221475000Y-52625000D01*
X221304776Y-52646690D01*
X221142055Y-52701172D01*
X221125000Y-52710924D01*
X221125000Y-51431517D01*
X221132900Y-51436796D01*
X221273941Y-51495217D01*
X221423669Y-51525000D01*
X221576331Y-51525000D01*
X221726059Y-51495217D01*
X221867100Y-51436796D01*
X221994034Y-51351982D01*
X222096016Y-51250000D01*
X223475440Y-51250000D01*
X223500000Y-51252419D01*
X223524560Y-51250000D01*
X223598017Y-51242765D01*
X223692267Y-51214175D01*
X223779129Y-51167746D01*
X223855264Y-51105264D01*
X223870929Y-51086177D01*
X224082106Y-50875000D01*
X231750001Y-50875000D01*
X231750001Y-51975430D01*
M02*
