G04 #@! TF.GenerationSoftware,KiCad,Pcbnew,(5.1.4)-1*
G04 #@! TF.CreationDate,2021-02-16T23:36:19+03:00*
G04 #@! TF.ProjectId,NAB_A,4e41425f-412e-46b6-9963-61645f706362,rev?*
G04 #@! TF.SameCoordinates,Original*
G04 #@! TF.FileFunction,Copper,L2,Bot*
G04 #@! TF.FilePolarity,Positive*
%FSLAX46Y46*%
G04 Gerber Fmt 4.6, Leading zero omitted, Abs format (unit mm)*
G04 Created by KiCad (PCBNEW (5.1.4)-1) date 2021-02-16 23:36:19*
%MOMM*%
%LPD*%
G04 APERTURE LIST*
%ADD10R,1.700000X1.700000*%
%ADD11C,1.700000*%
%ADD12R,1.250000X0.500000*%
%ADD13R,0.800000X1.100000*%
%ADD14R,0.500000X1.250000*%
%ADD15R,1.473200X0.609600*%
%ADD16R,1.500000X1.000000*%
%ADD17R,1.000000X1.500000*%
%ADD18R,4.000000X2.000000*%
%ADD19R,1.500000X2.000000*%
%ADD20R,0.400000X0.800000*%
%ADD21R,0.550000X1.500000*%
%ADD22R,1.500000X0.550000*%
%ADD23C,0.800000*%
%ADD24C,0.250000*%
G04 APERTURE END LIST*
D10*
X212000000Y-55200000D03*
X212000000Y-52660000D03*
X212000000Y-50120000D03*
X212000000Y-47580000D03*
X212000000Y-45040000D03*
D11*
X212000000Y-42500000D03*
D12*
X234750000Y-67500000D03*
X234750000Y-65750000D03*
X232500000Y-65750000D03*
X232500000Y-67500000D03*
D10*
X219540000Y-41750000D03*
D11*
X217000000Y-41750000D03*
D13*
X218050000Y-44050000D03*
X217100000Y-46250000D03*
X219000000Y-46250000D03*
D14*
X219000000Y-49000000D03*
X217250000Y-49000000D03*
D12*
X221250000Y-44750000D03*
X221250000Y-46500000D03*
D10*
X243000000Y-48580000D03*
X243000000Y-46040000D03*
D11*
X243000000Y-43500000D03*
D12*
X241000000Y-68250000D03*
X241000000Y-66500000D03*
X239000000Y-68250000D03*
X239000000Y-66500000D03*
D15*
X214162000Y-64500000D03*
X214162000Y-65770000D03*
X214162000Y-67040000D03*
X214162000Y-68310000D03*
X219750000Y-68310000D03*
X219750000Y-67040000D03*
X219750000Y-65770000D03*
X219750000Y-64500000D03*
D14*
X227000000Y-54250000D03*
X225250000Y-54250000D03*
X227250000Y-67250000D03*
X229000000Y-67250000D03*
D16*
X211750000Y-65500000D03*
X211750000Y-67500000D03*
X243250000Y-62500000D03*
X243250000Y-64500000D03*
X230000000Y-59500000D03*
X230000000Y-61500000D03*
X230000000Y-56250000D03*
X230000000Y-54250000D03*
D10*
X227250000Y-57420000D03*
X227250000Y-59960000D03*
D11*
X227250000Y-62500000D03*
D10*
X227290000Y-41750000D03*
D11*
X224750000Y-41750000D03*
D13*
X224000000Y-44650001D03*
X223050000Y-46850001D03*
X224950000Y-46850001D03*
X224000000Y-51600000D03*
X224950000Y-49400000D03*
X223050000Y-49400000D03*
X228250000Y-46850000D03*
X229200000Y-44650000D03*
X227300000Y-44650000D03*
X228250000Y-49400000D03*
X227300000Y-51600000D03*
X229200000Y-51600000D03*
D17*
X217250000Y-52250000D03*
X215250000Y-52250000D03*
D16*
X215000000Y-48750000D03*
X215000000Y-46750000D03*
X222500000Y-60500000D03*
X222500000Y-62500000D03*
D12*
X224750000Y-60250000D03*
X224750000Y-62000000D03*
D18*
X217250000Y-61250000D03*
D19*
X217250000Y-55000000D03*
X215000000Y-55000000D03*
X219500000Y-55000000D03*
D12*
X240762563Y-42487437D03*
X240762563Y-44237437D03*
X238500000Y-42500000D03*
X238500000Y-44250000D03*
X236250000Y-42500000D03*
X236250000Y-44250000D03*
X234000000Y-42500000D03*
X234000000Y-44250000D03*
X231750000Y-42500000D03*
X231750000Y-44250000D03*
D20*
X222450000Y-55200000D03*
X222450000Y-57500000D03*
X223100000Y-57500000D03*
X223750000Y-55200000D03*
X223750000Y-57500000D03*
D21*
X234700000Y-61750000D03*
X235500000Y-61750000D03*
X236300000Y-61750000D03*
X237100000Y-61750000D03*
X237900000Y-61750000D03*
X238700000Y-61750000D03*
X239500000Y-61750000D03*
X240300000Y-61750000D03*
D22*
X242000000Y-60000000D03*
X242000000Y-59200000D03*
X242000000Y-58400000D03*
X242000000Y-57600000D03*
X242000000Y-56800000D03*
X242000000Y-56000000D03*
X242000000Y-55200000D03*
X242000000Y-54400000D03*
D21*
X240300000Y-52700000D03*
X239500000Y-52700000D03*
X238700000Y-52700000D03*
X237900000Y-52700000D03*
X237100000Y-52700000D03*
X236300000Y-52700000D03*
X235500000Y-52700000D03*
X234700000Y-52700000D03*
D22*
X233000000Y-54400000D03*
X233000000Y-55200000D03*
X233000000Y-56000000D03*
X233000000Y-56800000D03*
X233000000Y-57600000D03*
X233000000Y-58400000D03*
X233000000Y-59200000D03*
X233000000Y-60000000D03*
D23*
X223500000Y-67000000D03*
X224762653Y-67012653D03*
X243250000Y-65750000D03*
X243275000Y-57500000D03*
X228250000Y-52500000D03*
X215500000Y-68250000D03*
X235000000Y-58500000D03*
X224500000Y-56250000D03*
X221750000Y-56250000D03*
X221750000Y-68250000D03*
X231000000Y-45750000D03*
X223500000Y-64250000D03*
X229000000Y-57750000D03*
X233750000Y-68275000D03*
X213750000Y-53500000D03*
X225500000Y-56250000D03*
X232250000Y-40750000D03*
X234500000Y-40750000D03*
X236750000Y-40750000D03*
X239000000Y-40750000D03*
X241250000Y-40750000D03*
X220250000Y-50750000D03*
X223250000Y-59250000D03*
X221500000Y-50750000D03*
X243887653Y-51612347D03*
X242862347Y-52637653D03*
X235000000Y-59750000D03*
X234750000Y-54500000D03*
X235500000Y-55250000D03*
X221250000Y-57500000D03*
X226250000Y-67250000D03*
X237000000Y-63500000D03*
X240000000Y-47750000D03*
X239500000Y-50000000D03*
X240000000Y-49000000D03*
X236750000Y-69000000D03*
X237000000Y-67000000D03*
X226250000Y-48500000D03*
X222000000Y-42500000D03*
X236750000Y-65000000D03*
X240250000Y-64250000D03*
X222250000Y-65750000D03*
X222250000Y-64750000D03*
D24*
X225000000Y-65500000D02*
X223500000Y-67000000D01*
X229000000Y-65500000D02*
X225000000Y-65500000D01*
X232000000Y-63500000D02*
X231000000Y-64500000D01*
X231000000Y-64500000D02*
X230000000Y-64500000D01*
X230000000Y-64500000D02*
X229000000Y-65500000D01*
X235500000Y-62750000D02*
X234750000Y-63500000D01*
X234750000Y-63500000D02*
X232000000Y-63500000D01*
X235500000Y-61750000D02*
X235500000Y-62750000D01*
X236300000Y-62750000D02*
X235050000Y-64000000D01*
X236300000Y-61750000D02*
X236300000Y-62750000D01*
X235050000Y-64000000D02*
X232500000Y-64000000D01*
X232727180Y-64000000D02*
X232500000Y-64000000D01*
X229186400Y-65950010D02*
X225825296Y-65950010D01*
X230186400Y-64950010D02*
X229186400Y-65950010D01*
X232136410Y-64000000D02*
X231186400Y-64950010D01*
X225825296Y-65950010D02*
X224762653Y-67012653D01*
X231186400Y-64950010D02*
X230186400Y-64950010D01*
X232500000Y-64000000D02*
X232136410Y-64000000D01*
X221250000Y-44750000D02*
X221250000Y-42250000D01*
X221250000Y-42250000D02*
X220750000Y-41750000D01*
X220750000Y-41750000D02*
X219500000Y-41750000D01*
X227300000Y-52400000D02*
X227300000Y-51600000D01*
X227400000Y-52500000D02*
X227300000Y-52400000D01*
X229200000Y-52400000D02*
X229100000Y-52500000D01*
X229100000Y-52500000D02*
X227400000Y-52500000D01*
X229200000Y-51600000D02*
X229200000Y-52400000D01*
X230000000Y-61500000D02*
X230000000Y-62250000D01*
X230000000Y-62250000D02*
X229750000Y-62500000D01*
X229750000Y-62500000D02*
X229000000Y-62500000D01*
X229000000Y-62500000D02*
X228750000Y-62250000D01*
X228750000Y-62250000D02*
X228750000Y-60250000D01*
X228460000Y-59960000D02*
X228625000Y-60125000D01*
X227250000Y-59960000D02*
X228460000Y-59960000D01*
X228625000Y-60125000D02*
X228500000Y-60000000D01*
X228750000Y-60250000D02*
X228625000Y-60125000D01*
X243250000Y-64500000D02*
X243250000Y-65750000D01*
X243125000Y-57600000D02*
X243275000Y-57750000D01*
X242000000Y-57600000D02*
X243125000Y-57600000D01*
X214162000Y-68310000D02*
X211810000Y-68310000D01*
X211810000Y-68310000D02*
X211750000Y-68250000D01*
X211750000Y-68250000D02*
X211750000Y-67500000D01*
X214162000Y-65770000D02*
X215270000Y-65770000D01*
X215270000Y-65770000D02*
X215500000Y-66000000D01*
X215500000Y-66000000D02*
X215500000Y-66750000D01*
X215500000Y-66750000D02*
X215250000Y-67000000D01*
X215250000Y-67000000D02*
X214000000Y-67000000D01*
X215250000Y-67000000D02*
X215500000Y-67250000D01*
X215500000Y-67750000D02*
X215500000Y-68000000D01*
X215500000Y-68000000D02*
X215250000Y-68250000D01*
X215250000Y-68250000D02*
X214250000Y-68250000D01*
X215500000Y-67500000D02*
X215500000Y-66750000D01*
X215500000Y-67250000D02*
X215500000Y-67500000D01*
X215500000Y-67500000D02*
X215500000Y-67750000D01*
X215810000Y-68310000D02*
X215750000Y-68250000D01*
X219750000Y-68310000D02*
X215810000Y-68310000D01*
X215750000Y-68250000D02*
X215500000Y-68000000D01*
X215500000Y-68000000D02*
X215500000Y-68250000D01*
X234900000Y-58400000D02*
X235000000Y-58500000D01*
X233000000Y-58400000D02*
X234900000Y-58400000D01*
X223100000Y-57500000D02*
X223100000Y-56650000D01*
X227000000Y-54250000D02*
X227750000Y-54250000D01*
X228250000Y-53750000D02*
X228250000Y-52500000D01*
X227750000Y-54250000D02*
X228250000Y-53750000D01*
X230000000Y-54250000D02*
X230000000Y-53400000D01*
X229200000Y-52400000D02*
X229200000Y-52550000D01*
X229200000Y-52550000D02*
X229175000Y-52575000D01*
X229175000Y-52575000D02*
X229100000Y-52500000D01*
X230000000Y-53400000D02*
X229175000Y-52575000D01*
X214500000Y-53500000D02*
X214750000Y-53500000D01*
X214750000Y-53500000D02*
X215000000Y-53750000D01*
X215000000Y-53750000D02*
X215000000Y-55000000D01*
X221690000Y-68310000D02*
X221750000Y-68250000D01*
X219750000Y-68310000D02*
X221690000Y-68310000D01*
X219540000Y-40650000D02*
X219390000Y-40500000D01*
X219540000Y-41750000D02*
X219540000Y-40650000D01*
X218500000Y-40500000D02*
X216510998Y-40500000D01*
X216510998Y-40500000D02*
X215250000Y-40500000D01*
X215250000Y-40500000D02*
X215000000Y-40750000D01*
X215000000Y-45750000D02*
X215000000Y-46750000D01*
X213500000Y-46000000D02*
X213750000Y-45750000D01*
X215000000Y-45500000D02*
X214750000Y-45750000D01*
X215000000Y-45250000D02*
X215000000Y-45500000D01*
X215000000Y-45250000D02*
X215000000Y-45750000D01*
X214750000Y-45750000D02*
X215000000Y-45750000D01*
X213750000Y-45750000D02*
X214750000Y-45750000D01*
X215000000Y-40750000D02*
X215000000Y-45250000D01*
X215000000Y-46000000D02*
X214750000Y-45750000D01*
X215000000Y-46750000D02*
X215000000Y-46000000D01*
X220250000Y-40500000D02*
X219250000Y-40500000D01*
X219250000Y-40500000D02*
X218500000Y-40500000D01*
X219390000Y-40500000D02*
X219250000Y-40500000D01*
X219750000Y-40500000D02*
X220250000Y-40500000D01*
X221000000Y-40500000D02*
X219690000Y-40500000D01*
X219690000Y-40500000D02*
X219540000Y-40650000D01*
X220250000Y-40500000D02*
X221000000Y-40500000D01*
X228750000Y-40500000D02*
X221000000Y-40500000D01*
X227300000Y-44650000D02*
X227300000Y-43700000D01*
X227300000Y-43700000D02*
X227750000Y-43250000D01*
X229200000Y-44650000D02*
X229200000Y-43450000D01*
X229000000Y-43250000D02*
X228500000Y-43250000D01*
X228500000Y-43250000D02*
X228750000Y-43250000D01*
X229200000Y-43450000D02*
X229000000Y-43250000D01*
X227750000Y-43250000D02*
X228500000Y-43250000D01*
X229200000Y-40950000D02*
X229000000Y-40750000D01*
X229000000Y-40750000D02*
X228750000Y-40500000D01*
X229200000Y-43050000D02*
X229000000Y-43250000D01*
X229200000Y-42800000D02*
X229200000Y-43050000D01*
X229200000Y-42800000D02*
X229200000Y-40950000D01*
X229250000Y-43250000D02*
X229200000Y-43200000D01*
X230500000Y-43500000D02*
X230250000Y-43250000D01*
X230500000Y-45250000D02*
X230500000Y-43500000D01*
X231000000Y-45750000D02*
X230500000Y-45250000D01*
X229200000Y-43200000D02*
X229200000Y-42800000D01*
X229200000Y-43450000D02*
X229200000Y-43200000D01*
X229400000Y-43250000D02*
X229200000Y-43450000D01*
X230250000Y-43250000D02*
X229500000Y-43250000D01*
X229500000Y-43250000D02*
X229250000Y-43250000D01*
X229400000Y-43250000D02*
X229200000Y-43050000D01*
X229500000Y-43250000D02*
X229400000Y-43250000D01*
X231000000Y-52400000D02*
X230000000Y-53400000D01*
X231000000Y-45750000D02*
X231000000Y-52400000D01*
X222500000Y-63250000D02*
X223500000Y-64250000D01*
X222500000Y-62500000D02*
X222500000Y-63250000D01*
X232086410Y-56800000D02*
X231136410Y-57750000D01*
X233000000Y-56800000D02*
X232086410Y-56800000D01*
X231136410Y-57750000D02*
X229000000Y-57750000D01*
X234750000Y-67500000D02*
X234750000Y-68250000D01*
X234725000Y-68275000D02*
X233750000Y-68275000D01*
X234750000Y-68250000D02*
X234725000Y-68275000D01*
X213750000Y-53500000D02*
X214250000Y-53500000D01*
X214250000Y-53500000D02*
X214750000Y-53500000D01*
X213750000Y-53500000D02*
X213750000Y-53000000D01*
X213750000Y-53000000D02*
X213750000Y-52750000D01*
X213750000Y-52750000D02*
X214250000Y-52250000D01*
X214250000Y-52250000D02*
X215250000Y-52250000D01*
X213500000Y-47180000D02*
X213500000Y-47000000D01*
X213100000Y-47580000D02*
X213500000Y-47180000D01*
X213500000Y-47000000D02*
X213500000Y-46000000D01*
X212000000Y-47580000D02*
X213100000Y-47580000D01*
X212000000Y-47580000D02*
X212000000Y-50250000D01*
X213750000Y-51750000D02*
X214250000Y-52250000D01*
X213750000Y-50750000D02*
X213750000Y-51750000D01*
X213100000Y-50120000D02*
X213730000Y-50750000D01*
X213730000Y-50750000D02*
X213750000Y-50750000D01*
X212000000Y-50120000D02*
X213100000Y-50120000D01*
X217250000Y-55000000D02*
X217250000Y-56250000D01*
X220500000Y-56750000D02*
X220750000Y-56500000D01*
X220750000Y-56500000D02*
X220750000Y-54500000D01*
X220750000Y-54500000D02*
X221000000Y-54250000D01*
X222150000Y-54250000D02*
X222000000Y-54250000D01*
X222450000Y-55200000D02*
X222450000Y-54550000D01*
X222450000Y-54550000D02*
X222150000Y-54250000D01*
X221000000Y-54250000D02*
X222000000Y-54250000D01*
X219000000Y-56750000D02*
X217500000Y-56750000D01*
X217750000Y-56750000D02*
X219000000Y-56750000D01*
X219000000Y-56750000D02*
X220500000Y-56750000D01*
X217500000Y-56750000D02*
X217250000Y-56500000D01*
X217250000Y-56500000D02*
X217250000Y-55000000D01*
X217250000Y-54000000D02*
X217250000Y-55000000D01*
X217250000Y-53750000D02*
X217250000Y-54000000D01*
X218250000Y-53250000D02*
X218000000Y-53500000D01*
X217500000Y-53500000D02*
X217250000Y-53750000D01*
X218250000Y-52500000D02*
X218250000Y-53250000D01*
X218000000Y-52250000D02*
X218250000Y-52500000D01*
X218000000Y-53500000D02*
X217500000Y-53500000D01*
X217250000Y-52250000D02*
X218000000Y-52250000D01*
X210900000Y-55200000D02*
X210500000Y-54800000D01*
X212000000Y-55200000D02*
X210900000Y-55200000D01*
X210500000Y-44500000D02*
X210500000Y-44000000D01*
X210500000Y-54800000D02*
X210500000Y-44500000D01*
X210500000Y-44000000D02*
X212000000Y-42500000D01*
X217250000Y-56500000D02*
X217000000Y-56750000D01*
X217000000Y-56750000D02*
X213000000Y-56750000D01*
X213000000Y-56750000D02*
X212250000Y-56750000D01*
X212250000Y-56750000D02*
X212000000Y-56500000D01*
X212000000Y-56500000D02*
X212000000Y-55250000D01*
X217750000Y-56750000D02*
X217000000Y-56750000D01*
X231750000Y-41250000D02*
X232000000Y-41000000D01*
X231750000Y-42500000D02*
X231750000Y-41250000D01*
X234000000Y-41250000D02*
X234250000Y-41000000D01*
X234000000Y-42500000D02*
X234000000Y-41250000D01*
X236250000Y-41250000D02*
X236500000Y-41000000D01*
X236250000Y-42500000D02*
X236250000Y-41250000D01*
X238500000Y-41250000D02*
X238750000Y-41000000D01*
X238500000Y-42500000D02*
X238500000Y-41250000D01*
X240762563Y-41237437D02*
X241000000Y-41000000D01*
X240762563Y-42487437D02*
X240762563Y-41237437D01*
X224750000Y-63500000D02*
X224750000Y-62000000D01*
X225292501Y-64042501D02*
X224750000Y-63500000D01*
X229542501Y-63042501D02*
X228542501Y-64042501D01*
X230292501Y-63042501D02*
X229542501Y-63042501D01*
X231292501Y-62042501D02*
X230292501Y-63042501D01*
X228542501Y-64042501D02*
X225292501Y-64042501D01*
X231292501Y-61042501D02*
X231292501Y-59707499D01*
X231292501Y-60457499D02*
X231292501Y-61042501D01*
X231292501Y-61042501D02*
X231292501Y-62042501D01*
X231800000Y-59200000D02*
X231292501Y-59707499D01*
X233000000Y-59200000D02*
X231800000Y-59200000D01*
X217100000Y-46250000D02*
X217100000Y-47400000D01*
X217100000Y-47400000D02*
X216500000Y-48000000D01*
X216500000Y-48000000D02*
X216500000Y-48750000D01*
X216500000Y-48750000D02*
X216750000Y-49000000D01*
X216750000Y-49000000D02*
X217250000Y-49000000D01*
X216750000Y-49000000D02*
X216500000Y-49250000D01*
X216500000Y-49500000D02*
X216500000Y-48750000D01*
X216500000Y-49250000D02*
X216500000Y-49500000D01*
X222450000Y-57500000D02*
X222450000Y-58450000D01*
X222450000Y-58450000D02*
X222450000Y-58700000D01*
X216500000Y-49750000D02*
X216500000Y-49500000D01*
X216750000Y-50000000D02*
X216500000Y-49750000D01*
X218272820Y-50000000D02*
X216750000Y-50000000D01*
X219022820Y-50750000D02*
X218272820Y-50000000D01*
X220250000Y-50750000D02*
X219022820Y-50750000D01*
X222450000Y-58509315D02*
X222450000Y-58700000D01*
X222459315Y-58500000D02*
X222450000Y-58509315D01*
X222650000Y-59250000D02*
X222450000Y-59050000D01*
X223250000Y-59250000D02*
X222650000Y-59250000D01*
X222450000Y-58700000D02*
X222450000Y-59050000D01*
X222450000Y-59450000D02*
X222650000Y-59250000D01*
X222450000Y-59550000D02*
X222450000Y-59450000D01*
X222450000Y-59050000D02*
X222450000Y-59550000D01*
X222450000Y-59550000D02*
X222450000Y-60450000D01*
X219500000Y-55000000D02*
X219500000Y-53000000D01*
X219500000Y-53250000D02*
X219500000Y-53000000D01*
X219500000Y-55000000D02*
X219500000Y-52750000D01*
X215000000Y-48750000D02*
X215000000Y-50000000D01*
X215000000Y-50000000D02*
X215500000Y-50500000D01*
X218136410Y-50500000D02*
X218750000Y-51113590D01*
X215500000Y-50500000D02*
X218136410Y-50500000D01*
X218750000Y-52000000D02*
X219500000Y-52750000D01*
X218750000Y-51113590D02*
X218750000Y-52000000D01*
X220750000Y-51500000D02*
X219500000Y-52750000D01*
X221500000Y-50750000D02*
X220750000Y-51500000D01*
X230000000Y-58750000D02*
X230000000Y-59250000D01*
X243700000Y-55200000D02*
X244000000Y-55500000D01*
X242000000Y-55200000D02*
X240300000Y-55200000D01*
X233000000Y-56000000D02*
X234500000Y-56000000D01*
X230150000Y-58600000D02*
X230000000Y-58750000D01*
X243887653Y-51612347D02*
X242862347Y-52637653D01*
X214162000Y-64500000D02*
X213175400Y-64500000D01*
X213175400Y-64500000D02*
X212000000Y-64500000D01*
X212000000Y-64500000D02*
X211750000Y-64750000D01*
X211750000Y-64750000D02*
X211750000Y-65500000D01*
X233000000Y-57600000D02*
X234400000Y-57600000D01*
X234400000Y-57600000D02*
X234750000Y-57250000D01*
X239000000Y-66500000D02*
X239000000Y-66000000D01*
X239000000Y-66000000D02*
X239250000Y-65750000D01*
X239250000Y-65750000D02*
X240750000Y-65750000D01*
X240750000Y-65750000D02*
X241000000Y-66000000D01*
X241000000Y-66000000D02*
X241000000Y-66500000D01*
X240750000Y-65750000D02*
X241250000Y-65750000D01*
X241000000Y-66000000D02*
X241250000Y-65750000D01*
X244000000Y-54900000D02*
X243700000Y-55200000D01*
X242862347Y-52637653D02*
X244000000Y-53775306D01*
X244000000Y-55750000D02*
X244000000Y-56500000D01*
X244000000Y-53775306D02*
X244000000Y-55750000D01*
X244000000Y-55750000D02*
X244000000Y-55900000D01*
X221250000Y-57500000D02*
X221250000Y-62500000D01*
X221250000Y-62500000D02*
X220500000Y-63250000D01*
X220500000Y-63250000D02*
X212000000Y-63250000D01*
X212000000Y-63250000D02*
X211750000Y-63500000D01*
X211750000Y-64250000D02*
X212000000Y-64500000D01*
X211750000Y-63500000D02*
X211750000Y-64250000D01*
X211750000Y-64750000D02*
X211750000Y-64250000D01*
X225750000Y-61000000D02*
X225750000Y-59000000D01*
X227250000Y-62500000D02*
X225750000Y-61000000D01*
X230400000Y-58600000D02*
X230150000Y-58600000D01*
X230650000Y-58600000D02*
X226150000Y-58600000D01*
X225750000Y-59000000D02*
X226000000Y-58750000D01*
X226150000Y-58600000D02*
X226000000Y-58750000D01*
X230650000Y-58600000D02*
X230400000Y-58600000D01*
X230000000Y-58750000D02*
X229850000Y-58600000D01*
X229850000Y-58600000D02*
X229659998Y-58600000D01*
X230400000Y-58600000D02*
X229850000Y-58600000D01*
X227250000Y-67250000D02*
X226250000Y-67250000D01*
X242000000Y-55200000D02*
X243700000Y-55200000D01*
X230000000Y-57000000D02*
X230000000Y-56250000D01*
X231000000Y-57250000D02*
X230250000Y-57250000D01*
X231250000Y-57000000D02*
X231000000Y-57250000D01*
X231500000Y-56000000D02*
X231250000Y-56250000D01*
X231250000Y-56250000D02*
X231250000Y-57000000D01*
X230250000Y-57250000D02*
X230000000Y-57000000D01*
X233000000Y-56000000D02*
X231500000Y-56000000D01*
X230400000Y-58600000D02*
X230922820Y-58600000D01*
X231922820Y-57600000D02*
X231136410Y-58386410D01*
X233000000Y-57600000D02*
X231922820Y-57600000D01*
X231136410Y-58386410D02*
X231322811Y-58200009D01*
X230922820Y-58600000D02*
X231136410Y-58386410D01*
X226250000Y-67250000D02*
X226250000Y-68250000D01*
X226250000Y-68250000D02*
X226500000Y-68500000D01*
X226500000Y-68500000D02*
X232250000Y-68500000D01*
X232250000Y-68500000D02*
X232500000Y-68250000D01*
X232500000Y-68250000D02*
X232500000Y-67500000D01*
X241250000Y-65750000D02*
X241750000Y-65250000D01*
X241750000Y-65250000D02*
X241750000Y-64000000D01*
X241750000Y-65250000D02*
X242000000Y-65000000D01*
X241750000Y-64000000D02*
X241750000Y-61500000D01*
X241750000Y-61500000D02*
X242000000Y-61250000D01*
X242000000Y-61250000D02*
X243000000Y-61250000D01*
X243000000Y-61250000D02*
X243250000Y-61500000D01*
X243250000Y-61500000D02*
X243250000Y-62500000D01*
X244000000Y-59750000D02*
X244000000Y-60750000D01*
X244000000Y-59750000D02*
X244000000Y-56500000D01*
X243000000Y-61250000D02*
X243500000Y-61250000D01*
X243500000Y-61250000D02*
X243250000Y-61500000D01*
X244000000Y-60750000D02*
X243500000Y-61250000D01*
X229886410Y-65886410D02*
X229886410Y-66886410D01*
X231325001Y-65424999D02*
X230347821Y-65424999D01*
X231363590Y-65386410D02*
X231325001Y-65424999D01*
X232590770Y-64500000D02*
X232272820Y-64500000D01*
X230347821Y-65424999D02*
X229886410Y-65886410D01*
X231386410Y-65386410D02*
X231363590Y-65386410D01*
X229522820Y-67250000D02*
X229000000Y-67250000D01*
X229886410Y-66886410D02*
X229522820Y-67250000D01*
X232272820Y-64500000D02*
X231386410Y-65386410D01*
X237100000Y-61750000D02*
X237100000Y-62900000D01*
X236000000Y-64500000D02*
X237000000Y-63500000D01*
X232272820Y-64500000D02*
X234000000Y-64500000D01*
X234000000Y-64500000D02*
X236000000Y-64500000D01*
X237100000Y-63400000D02*
X237000000Y-63500000D01*
X237100000Y-61750000D02*
X237100000Y-63400000D01*
X241250000Y-52250000D02*
X241250000Y-49000000D01*
X243250000Y-54150000D02*
X243250000Y-53750000D01*
X243000000Y-53500000D02*
X242500000Y-53500000D01*
X242500000Y-53500000D02*
X241250000Y-52250000D01*
X243250000Y-53750000D02*
X243000000Y-53500000D01*
X241250000Y-49000000D02*
X240000000Y-47750000D01*
X243000000Y-54400000D02*
X243250000Y-54150000D01*
X242000000Y-54400000D02*
X243000000Y-54400000D01*
X239500000Y-52700000D02*
X239500000Y-51250000D01*
X239500000Y-51250000D02*
X239500000Y-50000000D01*
X240399999Y-49850001D02*
X240399999Y-49399999D01*
X240300000Y-49950000D02*
X240399999Y-49850001D01*
X240399999Y-49399999D02*
X240000000Y-49000000D01*
X240300000Y-52700000D02*
X240300000Y-49950000D01*
X241000000Y-68250000D02*
X241000000Y-69000000D01*
X241000000Y-69000000D02*
X240500000Y-69500000D01*
X221000000Y-66000000D02*
X221000000Y-66426998D01*
X220750000Y-65750000D02*
X221000000Y-66000000D01*
X219750000Y-65750000D02*
X220750000Y-65750000D01*
X240500000Y-69500000D02*
X238750000Y-69500000D01*
X237250000Y-69500000D02*
X236750000Y-69000000D01*
X238750000Y-69500000D02*
X237250000Y-69500000D01*
X238750000Y-69500000D02*
X237750000Y-69500000D01*
X236250000Y-69500000D02*
X224073002Y-69500000D01*
X224073002Y-69500000D02*
X223036501Y-68463499D01*
X236750000Y-69000000D02*
X236250000Y-69500000D01*
X223036501Y-68463499D02*
X223479797Y-68906795D01*
X221000000Y-66426998D02*
X223036501Y-68463499D01*
X237900000Y-61750000D02*
X237900000Y-62900000D01*
X237900000Y-62750000D02*
X237900000Y-62900000D01*
X237450009Y-65663581D02*
X237450009Y-66549991D01*
X237900000Y-65213590D02*
X237450009Y-65663581D01*
X237450009Y-66549991D02*
X237000000Y-67000000D01*
X237900000Y-62900000D02*
X237900000Y-65213590D01*
X239000000Y-68250000D02*
X239000000Y-68750000D01*
X239000000Y-68750000D02*
X238750000Y-69000000D01*
X238250000Y-69000000D02*
X237886410Y-69000000D01*
X238750000Y-69000000D02*
X238250000Y-69000000D01*
X237886410Y-69000000D02*
X237068205Y-68181795D01*
X220736600Y-64500000D02*
X221500000Y-65263400D01*
X221500000Y-65263400D02*
X221500000Y-66250000D01*
X219750000Y-64500000D02*
X220736600Y-64500000D01*
X237068205Y-68181795D02*
X236818205Y-68181795D01*
X224250000Y-69000000D02*
X223500000Y-68250000D01*
X236818205Y-68181795D02*
X236495203Y-68181795D01*
X235676998Y-69000000D02*
X224250000Y-69000000D01*
X236495203Y-68181795D02*
X235676998Y-69000000D01*
X223500000Y-68250000D02*
X223706785Y-68456785D01*
X221500000Y-66250000D02*
X223500000Y-68250000D01*
X237900018Y-67349982D02*
X237068205Y-68181795D01*
X237900018Y-67349982D02*
X237900018Y-65849982D01*
X238700000Y-65050000D02*
X238700000Y-63800000D01*
X237900018Y-65849982D02*
X238700000Y-65050000D01*
X238700000Y-61750000D02*
X238700000Y-63800000D01*
X231750000Y-44750000D02*
X231750000Y-44250000D01*
X234700000Y-47700000D02*
X231750000Y-44750000D01*
X234700000Y-52700000D02*
X234700000Y-47700000D01*
X234000000Y-45750000D02*
X234000000Y-44250000D01*
X235500000Y-47250000D02*
X234000000Y-45750000D01*
X235500000Y-52700000D02*
X235500000Y-47250000D01*
X236300000Y-44300000D02*
X236250000Y-44250000D01*
X236300000Y-52700000D02*
X236300000Y-51550000D01*
X236300000Y-51550000D02*
X236300000Y-44300000D01*
X238500000Y-45750000D02*
X238500000Y-44250000D01*
X237100000Y-47150000D02*
X238500000Y-45750000D01*
X237100000Y-52700000D02*
X237100000Y-47150000D01*
X240750000Y-44750000D02*
X240750000Y-44250000D01*
X237900000Y-47600000D02*
X240750000Y-44750000D01*
X237900000Y-52700000D02*
X237900000Y-47600000D01*
X238700000Y-49200000D02*
X238700000Y-48800000D01*
X238700000Y-52700000D02*
X238700000Y-51450000D01*
X238700000Y-51450000D02*
X238700000Y-49200000D01*
X238700000Y-47550000D02*
X238700000Y-49200000D01*
X239250000Y-47000000D02*
X238700000Y-47550000D01*
X240320000Y-47000000D02*
X239250000Y-47000000D01*
X241900000Y-48580000D02*
X240320000Y-47000000D01*
X243000000Y-48580000D02*
X241900000Y-48580000D01*
X223050000Y-48600000D02*
X223050000Y-49400000D01*
X223150000Y-48500000D02*
X223050000Y-48600000D01*
X224950000Y-48600000D02*
X224850000Y-48500000D01*
X224950000Y-49400000D02*
X224950000Y-48600000D01*
X224750000Y-48500000D02*
X223150000Y-48500000D01*
X224850000Y-48500000D02*
X224750000Y-48500000D01*
X225050000Y-48500000D02*
X224950000Y-48600000D01*
X225500000Y-48500000D02*
X225050000Y-48500000D01*
X225500000Y-48500000D02*
X224750000Y-48500000D01*
X228250000Y-48600000D02*
X228250000Y-49400000D01*
X228150000Y-48500000D02*
X228250000Y-48600000D01*
X226250000Y-48500000D02*
X228150000Y-48500000D01*
X226250000Y-48500000D02*
X225500000Y-48500000D01*
X223050000Y-47650001D02*
X223149999Y-47750000D01*
X223050000Y-46850001D02*
X223050000Y-47650001D01*
X224950000Y-47650001D02*
X224850001Y-47750000D01*
X224950000Y-46850001D02*
X224950000Y-47650001D01*
X224850001Y-47750000D02*
X224000000Y-47750000D01*
X224000000Y-47750000D02*
X224250000Y-47750000D01*
X223149999Y-47750000D02*
X224000000Y-47750000D01*
X225049999Y-47750000D02*
X224950000Y-47650001D01*
X228250000Y-47650000D02*
X228150000Y-47750000D01*
X228250000Y-46850000D02*
X228250000Y-47650000D01*
X224850001Y-47750000D02*
X225049999Y-47750000D01*
X227290000Y-42850000D02*
X226250000Y-43890000D01*
X227290000Y-41750000D02*
X227290000Y-42850000D01*
X226250000Y-47500000D02*
X226000000Y-47750000D01*
X226250000Y-43890000D02*
X226250000Y-47500000D01*
X226000000Y-47750000D02*
X225049999Y-47750000D01*
X226500000Y-47750000D02*
X226250000Y-47500000D01*
X228150000Y-47750000D02*
X226500000Y-47750000D01*
X226500000Y-47750000D02*
X226000000Y-47750000D01*
X218050000Y-44050000D02*
X218050000Y-42800000D01*
X218050000Y-42800000D02*
X217000000Y-41750000D01*
X224000000Y-43850001D02*
X224000000Y-44650001D01*
X223899999Y-43750000D02*
X224000000Y-43850001D01*
X222750000Y-43750000D02*
X223899999Y-43750000D01*
X222324999Y-44175001D02*
X222750000Y-43750000D01*
X222324999Y-51574999D02*
X222324999Y-44175001D01*
X223250000Y-52500000D02*
X222324999Y-51574999D01*
X224000000Y-52400000D02*
X223900000Y-52500000D01*
X224000000Y-51600000D02*
X224000000Y-52400000D01*
X223900000Y-52500000D02*
X223750000Y-52500000D01*
X223750000Y-52500000D02*
X223250000Y-52500000D01*
X222000000Y-43850002D02*
X222324999Y-44175001D01*
X222000000Y-42500000D02*
X222000000Y-43850002D01*
X232500000Y-65750000D02*
X232500000Y-65250000D01*
X232500000Y-65250000D02*
X232750000Y-65000000D01*
X234500000Y-65000000D02*
X234750000Y-65250000D01*
X234750000Y-65250000D02*
X234750000Y-65750000D01*
X234750000Y-65250000D02*
X235000000Y-65000000D01*
X234000000Y-65000000D02*
X235000000Y-65000000D01*
X232750000Y-65000000D02*
X234000000Y-65000000D01*
X234000000Y-65000000D02*
X234500000Y-65000000D01*
X235250000Y-65000000D02*
X235000000Y-65000000D01*
X236725010Y-65000000D02*
X235250000Y-65000000D01*
X239500000Y-63500000D02*
X240250000Y-64250000D01*
X239500000Y-61750000D02*
X239500000Y-63500000D01*
X224000000Y-65750000D02*
X222250000Y-65750000D01*
X224750000Y-65000000D02*
X224000000Y-65750000D01*
X228857822Y-65000000D02*
X224750000Y-65000000D01*
X229857822Y-64000000D02*
X228857822Y-65000000D01*
X230750000Y-64000000D02*
X229857822Y-64000000D01*
X231700010Y-63049990D02*
X230750000Y-64000000D01*
X234450010Y-63049990D02*
X231700010Y-63049990D01*
X234700000Y-62800000D02*
X234450010Y-63049990D01*
X234700000Y-61750000D02*
X234700000Y-62800000D01*
X224507489Y-64492511D02*
X224000000Y-65000000D01*
X228728901Y-64492511D02*
X224507489Y-64492511D01*
X229728901Y-63492511D02*
X228728901Y-64492511D01*
X230478901Y-63492511D02*
X229728901Y-63492511D01*
X224000000Y-65000000D02*
X222500000Y-65000000D01*
X231750000Y-62221412D02*
X230478901Y-63492511D01*
X222500000Y-65000000D02*
X222250000Y-64750000D01*
X231750000Y-61750000D02*
X231750000Y-60250000D01*
X231750000Y-61250000D02*
X231750000Y-61750000D01*
X231750000Y-61750000D02*
X231750000Y-62221412D01*
X231750000Y-60250000D02*
X232000000Y-60000000D01*
X232000000Y-60000000D02*
X233000000Y-60000000D01*
X223750000Y-55200000D02*
X223750000Y-55000000D01*
X223750000Y-55000000D02*
X223750000Y-54500000D01*
X223750000Y-54500000D02*
X224000000Y-54250000D01*
X224000000Y-54250000D02*
X225250000Y-54250000D01*
X223750000Y-57500000D02*
X223750000Y-58500000D01*
X223750000Y-58500000D02*
X224750000Y-59500000D01*
X224750000Y-59500000D02*
X224750000Y-60250000D01*
X219000000Y-46250000D02*
X219000000Y-46000000D01*
X219000000Y-47250000D02*
X219000000Y-46250000D01*
X220000000Y-48250000D02*
X219000000Y-47250000D01*
X220000000Y-48750000D02*
X220000000Y-48250000D01*
X219750000Y-49000000D02*
X220000000Y-48750000D01*
X219000000Y-49000000D02*
X219750000Y-49000000D01*
X221250000Y-47000000D02*
X220000000Y-48250000D01*
X221250000Y-46500000D02*
X221250000Y-47000000D01*
G36*
X240621976Y-54675000D02*
G01*
X240625000Y-54705704D01*
X240625000Y-55694296D01*
X240621976Y-55725000D01*
X240621976Y-56275000D01*
X240625000Y-56305704D01*
X240625000Y-56494296D01*
X240621976Y-56525000D01*
X240621976Y-57075000D01*
X240625000Y-57105704D01*
X240625000Y-57294296D01*
X240621976Y-57325000D01*
X240621976Y-57875000D01*
X240625000Y-57905704D01*
X240625000Y-58094296D01*
X240621976Y-58125000D01*
X240621976Y-58675000D01*
X240625000Y-58705704D01*
X240625000Y-58894296D01*
X240621976Y-58925000D01*
X240621976Y-59475000D01*
X240625000Y-59505704D01*
X240625000Y-59694296D01*
X240621976Y-59725000D01*
X240621976Y-60275000D01*
X240625000Y-60305703D01*
X240625000Y-60375000D01*
X240605703Y-60375000D01*
X240575000Y-60371976D01*
X240025000Y-60371976D01*
X239994296Y-60375000D01*
X239805704Y-60375000D01*
X239775000Y-60371976D01*
X239225000Y-60371976D01*
X239194296Y-60375000D01*
X239005704Y-60375000D01*
X238975000Y-60371976D01*
X238425000Y-60371976D01*
X238394296Y-60375000D01*
X238205704Y-60375000D01*
X238175000Y-60371976D01*
X237625000Y-60371976D01*
X237594296Y-60375000D01*
X237405704Y-60375000D01*
X237375000Y-60371976D01*
X236825000Y-60371976D01*
X236794296Y-60375000D01*
X236605704Y-60375000D01*
X236575000Y-60371976D01*
X236025000Y-60371976D01*
X235994296Y-60375000D01*
X235805704Y-60375000D01*
X235775000Y-60371976D01*
X235225000Y-60371976D01*
X235194296Y-60375000D01*
X235005704Y-60375000D01*
X234975000Y-60371976D01*
X234425000Y-60371976D01*
X234394297Y-60375000D01*
X234375000Y-60375000D01*
X234375000Y-60305703D01*
X234378024Y-60275000D01*
X234378024Y-59725000D01*
X234375000Y-59694296D01*
X234375000Y-59505704D01*
X234378024Y-59475000D01*
X234378024Y-59317167D01*
X234514480Y-59408344D01*
X234701018Y-59485610D01*
X234899046Y-59525000D01*
X235100954Y-59525000D01*
X235298982Y-59485610D01*
X235485520Y-59408344D01*
X235653400Y-59296170D01*
X235796170Y-59153400D01*
X235908344Y-58985520D01*
X235985610Y-58798982D01*
X236025000Y-58600954D01*
X236025000Y-58399046D01*
X235985610Y-58201018D01*
X235908344Y-58014480D01*
X235796170Y-57846600D01*
X235653400Y-57703830D01*
X235485520Y-57591656D01*
X235298982Y-57514390D01*
X235100954Y-57475000D01*
X234899046Y-57475000D01*
X234701018Y-57514390D01*
X234514480Y-57591656D01*
X234427162Y-57650000D01*
X234375000Y-57650000D01*
X234375000Y-57105704D01*
X234378024Y-57075000D01*
X234378024Y-56525000D01*
X234375000Y-56494296D01*
X234375000Y-55505704D01*
X234378024Y-55475000D01*
X234378024Y-54925000D01*
X234375000Y-54894296D01*
X234375000Y-54705704D01*
X234378024Y-54675000D01*
X234378024Y-54125000D01*
X240621976Y-54125000D01*
X240621976Y-54675000D01*
X240621976Y-54675000D01*
G37*
X240621976Y-54675000D02*
X240625000Y-54705704D01*
X240625000Y-55694296D01*
X240621976Y-55725000D01*
X240621976Y-56275000D01*
X240625000Y-56305704D01*
X240625000Y-56494296D01*
X240621976Y-56525000D01*
X240621976Y-57075000D01*
X240625000Y-57105704D01*
X240625000Y-57294296D01*
X240621976Y-57325000D01*
X240621976Y-57875000D01*
X240625000Y-57905704D01*
X240625000Y-58094296D01*
X240621976Y-58125000D01*
X240621976Y-58675000D01*
X240625000Y-58705704D01*
X240625000Y-58894296D01*
X240621976Y-58925000D01*
X240621976Y-59475000D01*
X240625000Y-59505704D01*
X240625000Y-59694296D01*
X240621976Y-59725000D01*
X240621976Y-60275000D01*
X240625000Y-60305703D01*
X240625000Y-60375000D01*
X240605703Y-60375000D01*
X240575000Y-60371976D01*
X240025000Y-60371976D01*
X239994296Y-60375000D01*
X239805704Y-60375000D01*
X239775000Y-60371976D01*
X239225000Y-60371976D01*
X239194296Y-60375000D01*
X239005704Y-60375000D01*
X238975000Y-60371976D01*
X238425000Y-60371976D01*
X238394296Y-60375000D01*
X238205704Y-60375000D01*
X238175000Y-60371976D01*
X237625000Y-60371976D01*
X237594296Y-60375000D01*
X237405704Y-60375000D01*
X237375000Y-60371976D01*
X236825000Y-60371976D01*
X236794296Y-60375000D01*
X236605704Y-60375000D01*
X236575000Y-60371976D01*
X236025000Y-60371976D01*
X235994296Y-60375000D01*
X235805704Y-60375000D01*
X235775000Y-60371976D01*
X235225000Y-60371976D01*
X235194296Y-60375000D01*
X235005704Y-60375000D01*
X234975000Y-60371976D01*
X234425000Y-60371976D01*
X234394297Y-60375000D01*
X234375000Y-60375000D01*
X234375000Y-60305703D01*
X234378024Y-60275000D01*
X234378024Y-59725000D01*
X234375000Y-59694296D01*
X234375000Y-59505704D01*
X234378024Y-59475000D01*
X234378024Y-59317167D01*
X234514480Y-59408344D01*
X234701018Y-59485610D01*
X234899046Y-59525000D01*
X235100954Y-59525000D01*
X235298982Y-59485610D01*
X235485520Y-59408344D01*
X235653400Y-59296170D01*
X235796170Y-59153400D01*
X235908344Y-58985520D01*
X235985610Y-58798982D01*
X236025000Y-58600954D01*
X236025000Y-58399046D01*
X235985610Y-58201018D01*
X235908344Y-58014480D01*
X235796170Y-57846600D01*
X235653400Y-57703830D01*
X235485520Y-57591656D01*
X235298982Y-57514390D01*
X235100954Y-57475000D01*
X234899046Y-57475000D01*
X234701018Y-57514390D01*
X234514480Y-57591656D01*
X234427162Y-57650000D01*
X234375000Y-57650000D01*
X234375000Y-57105704D01*
X234378024Y-57075000D01*
X234378024Y-56525000D01*
X234375000Y-56494296D01*
X234375000Y-55505704D01*
X234378024Y-55475000D01*
X234378024Y-54925000D01*
X234375000Y-54894296D01*
X234375000Y-54705704D01*
X234378024Y-54675000D01*
X234378024Y-54125000D01*
X240621976Y-54125000D01*
X240621976Y-54675000D01*
G36*
X221880426Y-55673513D02*
G01*
X221901869Y-55744200D01*
X221936691Y-55809347D01*
X221983552Y-55866448D01*
X222040653Y-55913309D01*
X222105800Y-55948131D01*
X222176487Y-55969574D01*
X222250000Y-55976814D01*
X222650000Y-55976814D01*
X222723513Y-55969574D01*
X222794200Y-55948131D01*
X222859347Y-55913309D01*
X222916448Y-55866448D01*
X222963309Y-55809347D01*
X222998131Y-55744200D01*
X223019574Y-55673513D01*
X223024352Y-55625000D01*
X223175648Y-55625000D01*
X223180426Y-55673513D01*
X223201869Y-55744200D01*
X223236691Y-55809347D01*
X223283552Y-55866448D01*
X223340653Y-55913309D01*
X223405800Y-55948131D01*
X223476487Y-55969574D01*
X223550000Y-55976814D01*
X223950000Y-55976814D01*
X224023513Y-55969574D01*
X224094200Y-55948131D01*
X224159347Y-55913309D01*
X224216448Y-55866448D01*
X224263309Y-55809347D01*
X224298131Y-55744200D01*
X224319574Y-55673513D01*
X224324352Y-55625000D01*
X225875000Y-55625000D01*
X225875000Y-56875000D01*
X224250463Y-56875000D01*
X224216448Y-56833552D01*
X224159347Y-56786691D01*
X224094200Y-56751869D01*
X224023513Y-56730426D01*
X223950000Y-56723186D01*
X223799284Y-56723186D01*
X223744080Y-56655920D01*
X223648911Y-56577817D01*
X223540334Y-56519781D01*
X223422521Y-56484043D01*
X223300000Y-56471976D01*
X223281250Y-56475000D01*
X223125000Y-56631250D01*
X223125000Y-56875000D01*
X223075000Y-56875000D01*
X223075000Y-56631250D01*
X222918750Y-56475000D01*
X222900000Y-56471976D01*
X222777479Y-56484043D01*
X222659666Y-56519781D01*
X222551089Y-56577817D01*
X222455920Y-56655920D01*
X222400716Y-56723186D01*
X222250000Y-56723186D01*
X222176487Y-56730426D01*
X222105800Y-56751869D01*
X222040653Y-56786691D01*
X221983552Y-56833552D01*
X221949537Y-56875000D01*
X221709585Y-56875000D01*
X221617100Y-56813204D01*
X221476059Y-56754783D01*
X221375000Y-56734681D01*
X221375000Y-55625000D01*
X221875648Y-55625000D01*
X221880426Y-55673513D01*
X221880426Y-55673513D01*
G37*
X221880426Y-55673513D02*
X221901869Y-55744200D01*
X221936691Y-55809347D01*
X221983552Y-55866448D01*
X222040653Y-55913309D01*
X222105800Y-55948131D01*
X222176487Y-55969574D01*
X222250000Y-55976814D01*
X222650000Y-55976814D01*
X222723513Y-55969574D01*
X222794200Y-55948131D01*
X222859347Y-55913309D01*
X222916448Y-55866448D01*
X222963309Y-55809347D01*
X222998131Y-55744200D01*
X223019574Y-55673513D01*
X223024352Y-55625000D01*
X223175648Y-55625000D01*
X223180426Y-55673513D01*
X223201869Y-55744200D01*
X223236691Y-55809347D01*
X223283552Y-55866448D01*
X223340653Y-55913309D01*
X223405800Y-55948131D01*
X223476487Y-55969574D01*
X223550000Y-55976814D01*
X223950000Y-55976814D01*
X224023513Y-55969574D01*
X224094200Y-55948131D01*
X224159347Y-55913309D01*
X224216448Y-55866448D01*
X224263309Y-55809347D01*
X224298131Y-55744200D01*
X224319574Y-55673513D01*
X224324352Y-55625000D01*
X225875000Y-55625000D01*
X225875000Y-56875000D01*
X224250463Y-56875000D01*
X224216448Y-56833552D01*
X224159347Y-56786691D01*
X224094200Y-56751869D01*
X224023513Y-56730426D01*
X223950000Y-56723186D01*
X223799284Y-56723186D01*
X223744080Y-56655920D01*
X223648911Y-56577817D01*
X223540334Y-56519781D01*
X223422521Y-56484043D01*
X223300000Y-56471976D01*
X223281250Y-56475000D01*
X223125000Y-56631250D01*
X223125000Y-56875000D01*
X223075000Y-56875000D01*
X223075000Y-56631250D01*
X222918750Y-56475000D01*
X222900000Y-56471976D01*
X222777479Y-56484043D01*
X222659666Y-56519781D01*
X222551089Y-56577817D01*
X222455920Y-56655920D01*
X222400716Y-56723186D01*
X222250000Y-56723186D01*
X222176487Y-56730426D01*
X222105800Y-56751869D01*
X222040653Y-56786691D01*
X221983552Y-56833552D01*
X221949537Y-56875000D01*
X221709585Y-56875000D01*
X221617100Y-56813204D01*
X221476059Y-56754783D01*
X221375000Y-56734681D01*
X221375000Y-55625000D01*
X221875648Y-55625000D01*
X221880426Y-55673513D01*
M02*
